<svg width="74" height="74" viewBox="0 0 74 74" fill="none" xmlns="http://www.w3.org/2000/svg">
<rect width="74" height="74" rx="10" fill="#2A2A2A"/>
<path d="M32.3882 43.1644C32.3882 41.9495 32.9818 40.8764 33.8904 40.2096C33.8904 37.9342 33.8904 25.9357 33.8904 25.1622C33.8904 23.9673 34.8584 23 36.0532 23C37.2477 23 38.2154 23.9673 38.2154 25.1622C38.2154 25.2808 38.2154 25.6589 38.2154 26.222C38.2249 26.2217 38.2334 26.2193 38.2436 26.2193H40.7526C40.9736 26.2193 41.1538 26.3913 41.1538 26.6035V27.7075C41.1538 27.9194 40.9739 28.0911 40.7526 28.0911H38.2436C38.2334 28.0911 38.2249 28.0894 38.2154 28.0887C38.2154 28.8854 38.2154 29.7918 38.2154 30.7456C38.2249 30.7452 38.2334 30.7429 38.2436 30.7429H40.7526C40.9736 30.7429 41.1538 30.9149 41.1538 31.1274V32.2308C41.1538 32.4429 40.9739 32.615 40.7526 32.615H38.2436C38.2334 32.615 38.2249 32.6126 38.2154 32.6123C38.2154 33.5092 38.2154 34.4099 38.2154 35.2698C38.2249 35.2688 38.2334 35.2675 38.2436 35.2675H40.7526C40.9736 35.2675 41.1538 35.4392 41.1538 35.651V36.755C41.1538 36.9669 40.9739 37.1382 40.7526 37.1382H38.2436C38.2334 37.1382 38.2249 37.1369 38.2154 37.1355C38.2154 38.5 38.2154 39.6132 38.2154 40.2096C39.1249 40.8767 39.7183 41.9495 39.7183 43.1644C39.7183 45.1878 38.0767 46.828 36.0536 46.828C34.0294 46.828 32.3882 45.1878 32.3882 43.1644ZM40.3225 41.161C40.5839 41.7444 40.7308 42.3895 40.7308 43.0698C40.7308 43.1222 40.7291 43.1749 40.7271 43.2279C41.3578 43.0828 42.1249 43.2205 43.0174 44.0487C44.8991 45.7964 47.2503 45.8189 49.4676 44.112C50.8844 43.0198 51.6287 43.0542 51.6355 43.0542C51.5862 43.0511 51.5621 43.0423 51.5621 43.0423L52 40.976C51.6464 40.9015 50.3258 40.7856 48.1786 42.4384C46.7637 43.5278 45.5808 43.5479 44.4537 42.5013C43.1657 41.3045 41.7308 40.8573 40.3225 41.161ZM20.3655 43.0539C20.372 43.0539 21.1163 43.0195 22.5328 44.1116C24.7497 45.8189 27.1009 45.7961 28.9832 44.0484C29.9469 43.1538 30.7649 43.0658 31.4235 43.2677C31.4208 43.2018 31.4184 43.1361 31.4184 43.0695C31.4184 42.4003 31.5602 41.7645 31.8146 41.1902C30.3634 40.8261 28.8768 41.2647 27.5467 42.5006C26.4199 43.5472 25.2363 43.5275 23.8211 42.4377C21.6742 40.7853 20.3543 40.9009 20.0007 40.9753L20.4386 43.0416C20.4383 43.0419 20.4141 43.0511 20.3655 43.0539ZM48.1786 47.8144C46.7637 48.9032 45.5808 48.9232 44.4537 47.8766C42.5312 46.0905 40.2827 45.9647 38.2837 47.5315C37.4106 48.2167 36.7465 48.6424 36.1406 48.6505C36.092 48.6522 36.0457 48.6566 36.0002 48.6634C35.9539 48.6563 35.9073 48.6522 35.8594 48.6505C35.2538 48.6424 34.5898 48.2167 33.7156 47.5315C31.7177 45.9647 29.4691 46.0905 27.546 47.8766C26.4192 48.9232 25.2356 48.9035 23.8204 47.8144C21.6736 46.1613 20.3536 46.2772 20 46.3524L20.4379 48.4176C20.4379 48.4176 20.4138 48.4265 20.3652 48.4295C20.3716 48.4295 21.1159 48.3969 22.5324 49.4873C24.7494 51.1945 27.1006 51.1724 28.9829 49.4241C30.5109 48.0052 31.6724 48.6128 32.4133 49.1932C33.4133 49.9773 34.5014 50.7443 35.8312 50.7624C35.8363 50.7624 35.8407 50.7624 35.8458 50.7624C35.8982 50.7624 35.9488 50.7549 35.9998 50.7464C36.0505 50.7545 36.1012 50.7624 36.1535 50.7624C36.159 50.7624 36.1634 50.7624 36.1685 50.7624C37.4979 50.744 38.5863 49.9769 39.5863 49.1932C40.3272 48.6128 41.4884 48.0052 43.0168 49.4241C44.8984 51.1718 47.2496 51.1942 49.4669 49.4873C50.8837 48.3952 51.628 48.4295 51.6348 48.4295C51.5855 48.4265 51.5614 48.4176 51.5614 48.4176L51.9993 46.3524C51.6467 46.2772 50.3261 46.1613 48.1786 47.8144Z" fill="#304FFE"/>
</svg>
