<svg width="22" height="18" viewBox="0 0 22 18" fill="none" xmlns="http://www.w3.org/2000/svg">
<g id="Group 34203">
<path id="Vector" d="M20.5864 6.28673C19.4977 3.81944 17.4535 1.85528 14.8855 0.809134C13.5636 0.272288 12.1604 0 10.7142 0C9.26798 0 7.86476 0.272288 6.54285 0.809134C3.97484 1.85528 1.93062 3.81944 0.841995 6.28673C0.2831 7.55622 0 8.90434 0 10.2934C0 11.6826 0.283312 13.0311 0.842207 14.301C1.37992 15.524 2.15961 16.6352 3.13803 17.5728L3.58269 18L5.48901 16.1691L4.60053 15.3156L3.59719 16.2794C2.22785 14.7805 1.41231 12.8889 1.27734 10.8987H2.69601V9.69008H1.27734C1.41221 7.69986 2.22785 5.80824 3.5974 4.30941L4.60053 5.27315L5.48837 4.41947L4.48524 3.45573C6.04538 2.14004 8.01429 1.35647 10.0858 1.22687V2.58984H11.3423V1.22687C13.4139 1.35647 15.3828 2.14004 16.9429 3.45573L15.94 4.41947L16.8285 5.27305L17.8316 4.30931C19.2011 5.80814 20.0168 7.69976 20.1517 9.68998H18.733V10.8972H20.1517C20.0167 12.8874 19.2011 14.7789 17.8318 16.2779L16.8285 15.314L15.94 16.1676L17.8463 17.9985L18.291 17.5713C19.2691 16.6341 20.0486 15.5234 20.5864 14.301C21.1453 13.0316 21.4286 11.6834 21.4286 10.2934C21.4286 8.90352 21.1453 7.55622 20.5864 6.28673Z" fill="#007AFF"/>
<path id="Vector_2" d="M11.7594 11.9635C11.8617 11.812 11.9 11.6231 11.869 11.424C11.8379 11.225 11.7391 11.0259 11.5867 10.8557L13.4979 7.56249C13.5364 7.4963 13.4173 7.41589 13.3703 7.47639L11.0308 10.4805C10.8382 10.4108 10.6398 10.3896 10.4587 10.4192C10.2776 10.4488 10.1214 10.5281 10.0083 10.6477C9.8952 10.7674 9.82988 10.9225 9.81998 11.0949C9.81009 11.2673 9.85602 11.4498 9.95242 11.6212L9.05263 12.7759C9.03231 12.802 9.0191 12.8329 9.01379 12.8667C9.00848 12.9006 9.01119 12.9366 9.02176 12.9727C9.03232 13.0088 9.05052 13.0442 9.07525 13.0766C9.09997 13.1091 9.1307 13.138 9.16557 13.1615L9.79656 13.5875C9.83146 13.611 9.86975 13.6287 9.9091 13.6395C9.94846 13.6503 9.98805 13.6539 10.0255 13.6502C10.0629 13.6465 10.0973 13.6356 10.1267 13.618C10.1561 13.6004 10.1799 13.5766 10.1965 13.548L10.9308 12.2817C11.1035 12.3044 11.27 12.2871 11.4149 12.2315C11.5597 12.1759 11.6782 12.0837 11.7594 11.9635Z" fill="#0275F2"/>
</g>
</svg>
