<svg width="137" height="444" viewBox="0 0 137 444" fill="none" xmlns="http://www.w3.org/2000/svg">
<path d="M49 9.99999C49 4.47715 53.4772 0 59 0H137V444H49V9.99999Z" fill="#0279FC"/>
<path d="M23.9586 325.155C23.9487 325.055 23.9487 324.955 23.9586 324.855C24.0373 324.366 24.3068 323.928 24.708 323.637C25.1092 323.347 25.6094 323.227 26.0986 323.305C46.8886 326.685 68.0186 323.305 68.2286 323.305C68.711 323.241 69.1995 323.367 69.5903 323.657C69.9811 323.947 70.2434 324.378 70.3215 324.858C70.3996 325.339 70.2873 325.831 70.0086 326.23C69.7299 326.629 69.3066 326.903 68.8286 326.995C67.9386 327.135 46.9086 330.465 25.4986 326.995C25.0669 326.918 24.6761 326.691 24.3946 326.355C24.1131 326.018 23.9588 325.594 23.9586 325.155Z" fill="#1D1D1B"/>
<path d="M29.8189 120.285C29.8205 119.769 29.982 119.266 30.281 118.845C30.58 118.424 31.002 118.106 31.4889 117.935C42.9713 114.022 55.4264 114.022 66.9089 117.935C67.2318 118.04 67.5299 118.209 67.7849 118.433C68.0399 118.657 68.2464 118.931 68.3918 119.238C68.5371 119.544 68.6182 119.878 68.63 120.217C68.6419 120.556 68.5842 120.894 68.4606 121.21C68.337 121.527 68.1501 121.814 67.9113 122.055C67.6726 122.297 67.387 122.486 67.0722 122.613C66.7573 122.74 66.4199 122.801 66.0805 122.793C65.7412 122.785 65.4071 122.707 65.0989 122.565C54.7098 119.123 43.4879 119.123 33.0989 122.565C32.7903 122.674 32.4633 122.721 32.1366 122.703C31.8099 122.685 31.49 122.602 31.1954 122.46C30.9007 122.318 30.6371 122.119 30.4197 121.874C30.2023 121.629 30.0355 121.344 29.9289 121.035C29.8553 120.792 29.8182 120.539 29.8189 120.285Z" fill="#1D1D1B"/>
<path d="M66.7287 325.415C74.1987 324.325 80.1087 323.855 83.2187 312.045C86.3287 300.235 87.5687 298.975 88.2187 294.045C88.8687 289.115 87.7587 229.505 87.9087 215.815C88.0587 202.125 89.4687 168.535 89.4687 156.405C89.4971 151.842 89.0581 147.288 88.1587 142.815C87.4845 139.58 85.7961 136.644 83.3388 134.435L70.0588 122.475C67.5926 120.253 64.4817 118.876 61.1787 118.545L50.6687 117.475C49.6378 117.375 48.5996 117.375 47.5687 117.475L37.0987 118.475C33.7985 118.833 30.6984 120.234 28.2487 122.475L15.0087 134.395C12.5481 136.602 10.8589 139.538 10.1887 142.775C9.28934 147.248 8.85038 151.802 8.87873 156.365C8.87873 168.495 10.2787 202.095 10.4387 215.775C10.5987 229.455 9.49875 289.025 10.1188 294.005C10.7388 298.985 11.9888 300.225 15.1188 312.005C18.2488 323.785 24.1187 324.285 31.6087 325.375C37.0074 325.964 42.4519 326.004 47.8587 325.495C48.7374 325.425 49.6201 325.425 50.4987 325.495C55.8976 326.016 61.3353 325.989 66.7287 325.415Z" fill="#1D71B8"/>
<path d="M77.4687 307.695L68.6587 321.695L73.4587 321.005C74.8898 320.803 76.1863 320.053 77.0745 318.913C77.9627 317.772 78.373 316.332 78.2187 314.895L77.4687 307.695Z" fill="#E6332A"/>
<path d="M20.5987 307.695L29.4087 321.695L24.6088 321.005C23.1777 320.803 21.8811 320.053 20.9929 318.913C20.1047 317.772 19.6945 316.332 19.8487 314.895L20.5987 307.695Z" fill="#E6332A"/>
<path d="M66.049 322.475C69.521 321.718 72.5948 319.714 74.6884 316.843C76.782 313.972 77.75 310.432 77.409 306.895C76.609 298.495 75.479 283.665 74.039 257.595C70.929 201.405 82.959 192.435 83.889 164.445C84.1618 156.242 82.7115 148.073 79.6318 140.465C76.552 132.856 71.9113 125.979 66.009 120.275C58.539 117.955 49.159 118.475 49.159 118.475C49.159 118.475 39.779 118.005 32.309 120.335C26.4086 126.034 21.7687 132.906 18.6889 140.509C15.6091 148.112 14.158 156.277 14.429 164.475C15.359 192.475 27.429 201.475 24.279 257.625C22.829 283.695 21.699 298.525 20.909 306.925C20.5775 310.456 21.5486 313.985 23.6392 316.85C25.7297 319.714 28.7955 321.715 32.259 322.475C43.4096 324.728 54.8984 324.728 66.049 322.475Z" fill="#0279FC"/>
<path d="M54.8189 199.375C60.8974 199.265 66.9599 200.033 72.8189 201.655C73.4117 201.83 74.0496 201.766 74.5957 201.477C75.1417 201.187 75.5522 200.694 75.739 200.105C78.179 192.425 85.409 167.875 79.649 162.905C79.649 162.905 69.6489 156.215 49.1689 156.215C28.6889 156.215 18.6689 162.905 18.6689 162.905C12.9089 167.905 20.139 192.425 22.579 200.105C22.7634 200.696 23.1736 201.19 23.7203 201.48C24.267 201.77 24.9062 201.833 25.4989 201.655C31.358 200.033 37.4205 199.265 43.4989 199.375C47.2723 199.395 51.0456 199.395 54.8189 199.375Z" fill="black"/>
<path d="M43.4989 259.985C37.4209 260.099 31.3583 259.334 25.4989 257.715C24.9062 257.537 24.267 257.599 23.7203 257.89C23.1736 258.18 22.7634 258.674 22.579 259.265C20.139 266.935 12.9089 291.495 18.6689 296.465C18.6689 296.465 28.619 303.155 49.149 303.155C69.679 303.155 79.6689 296.475 79.6689 296.475C85.4289 291.475 78.1989 266.945 75.7589 259.275C75.5745 258.684 75.1643 258.19 74.6176 257.9C74.0709 257.609 73.4317 257.547 72.839 257.725C66.9796 259.344 60.917 260.109 54.839 259.995L43.4989 259.985Z" fill="black"/>
<path d="M68.5386 227.505V217.835C68.5386 215.582 66.7119 213.755 64.4586 213.755H33.8386C31.5853 213.755 29.7586 215.582 29.7586 217.835V227.505C29.7586 229.758 31.5853 231.585 33.8386 231.585H64.4586C66.7119 231.585 68.5386 229.758 68.5386 227.505Z" fill="black"/>
<path d="M85.9488 182.775C85.9371 182.469 85.8186 182.177 85.6138 181.949C85.409 181.721 85.1309 181.572 84.8278 181.528C84.5247 181.484 84.2158 181.548 83.9547 181.708C83.6936 181.868 83.4969 182.115 83.3988 182.405C80.9488 190.065 77.4688 205.345 77.4688 230.405C77.4688 253.905 79.9088 265.905 81.8288 271.715C81.9202 272.008 82.1122 272.259 82.3709 272.424C82.6295 272.588 82.9381 272.657 83.2421 272.616C83.5461 272.575 83.8259 272.428 84.0321 272.201C84.2383 271.974 84.3575 271.681 84.3688 271.375C85.0488 257.295 86.7388 217.345 85.9488 182.775Z" fill="black"/>
<path d="M12.3689 182.775C12.3806 182.469 12.499 182.177 12.7038 181.949C12.9086 181.721 13.1868 181.572 13.4899 181.528C13.793 181.484 14.1019 181.548 14.363 181.708C14.6241 181.868 14.8208 182.115 14.9189 182.405C17.3689 190.065 20.8489 205.345 20.8489 230.405C20.8489 253.905 18.4089 265.905 16.4889 271.715C16.3923 272.004 16.1981 272.25 15.9399 272.411C15.6816 272.572 15.3753 272.638 15.0736 272.597C14.7719 272.557 14.4936 272.413 14.2865 272.19C14.0795 271.967 13.9566 271.679 13.9389 271.375C13.2589 257.295 11.5789 217.345 12.3689 182.775Z" fill="black"/>
<path d="M83.939 182.785L84.749 185.785C84.9261 186.443 85.3167 187.024 85.8597 187.437C86.4026 187.85 87.0671 188.071 87.749 188.065H97.379C97.5314 188.066 97.6817 188.029 97.8161 187.958C97.9505 187.886 98.0648 187.782 98.1484 187.654C98.232 187.527 98.2823 187.38 98.2946 187.228C98.307 187.077 98.2809 186.924 98.219 186.785C97.219 184.605 94.069 180.495 84.659 181.735C84.5374 181.745 84.4196 181.782 84.3141 181.843C84.2085 181.904 84.118 181.988 84.049 182.088C83.98 182.189 83.9344 182.304 83.9153 182.424C83.8963 182.545 83.9044 182.668 83.939 182.785Z" fill="#36A9E1"/>
<path d="M14.3686 182.785L13.5586 185.785C13.3815 186.443 12.9909 187.024 12.448 187.437C11.905 187.85 11.2406 188.071 10.5586 188.065H0.918633C0.766251 188.066 0.615937 188.029 0.481499 187.958C0.347061 187.886 0.232802 187.782 0.149193 187.654C0.0655837 187.527 0.015312 187.38 0.00298314 187.228C-0.00934571 187.077 0.0166691 186.924 0.0786362 186.785C1.07864 184.605 4.23863 180.495 13.6386 181.735C13.7604 181.745 13.8783 181.782 13.9841 181.843C14.0899 181.904 14.1809 181.988 14.2506 182.088C14.3203 182.188 14.3671 182.303 14.3875 182.423C14.4079 182.544 14.4015 182.667 14.3686 182.785Z" fill="#36A9E1"/>
<path d="M84.959 136.125C84.959 136.125 73.899 132.855 67.209 120.475C71.1362 121.618 74.7629 123.614 77.8309 126.319C80.8989 129.024 83.3327 132.372 84.959 136.125Z" fill="#F0F9B4"/>
<path d="M13.4487 136.125C13.4487 136.125 24.4987 132.855 31.1987 120.425C27.2658 121.572 23.635 123.574 20.5664 126.288C17.4978 129.002 15.0672 132.361 13.4487 136.125Z" fill="#F0F9B4"/>
<path opacity="0.2" d="M22.3188 161.035L38.6988 199.505L43.4988 199.385L26.4888 159.475L22.3188 161.035Z" fill="white"/>
<path opacity="0.2" d="M30.0088 158.455L47.5788 199.505L52.3688 199.385L34.7688 157.425L30.0088 158.455Z" fill="white"/>
</svg>
