<svg width="30" height="30" viewBox="0 0 30 30" fill="none" xmlns="http://www.w3.org/2000/svg">
<g id="Group 34162">
<path id="Vector" d="M15 0C6.729 0 0 6.729 0 15C0 23.271 6.729 30 15 30C23.271 30 30 23.271 30 15C30 6.729 23.271 0 15 0ZM15 27C8.3835 27 3 21.6165 3 15C3 8.3835 8.3835 3 15 3C21.6165 3 27 8.3835 27 15C27 21.6165 21.6165 27 15 27Z" fill="#D9D9D9"/>
<path id="Vector_2" d="M9.75 13.5C10.9926 13.5 12 12.4926 12 11.25C12 10.0074 10.9926 9 9.75 9C8.50736 9 7.5 10.0074 7.5 11.25C7.5 12.4926 8.50736 13.5 9.75 13.5Z" fill="#D9D9D9"/>
<path id="Vector_3" d="M20.2395 13.479C21.4763 13.479 22.479 12.4763 22.479 11.2395C22.479 10.0027 21.4763 9 20.2395 9C19.0027 9 18 10.0027 18 11.2395C18 12.4763 19.0027 13.479 20.2395 13.479Z" fill="#D9D9D9"/>
<path id="Vector_4" d="M15 24C22.5 24 24 16.5 24 16.5H6C6 16.5 7.5 24 15 24Z" fill="#D9D9D9"/>
</g>
</svg>
