<svg width="12" height="12" viewBox="0 0 12 12" fill="none" xmlns="http://www.w3.org/2000/svg">
<g id="Group 33683">
<path id="Vector" d="M3.65088 9.16157L5.26219 10.409C5.4701 10.6169 5.9379 10.7209 6.24977 10.7209H8.22493C8.84866 10.7209 9.52437 10.2531 9.68031 9.62937L10.9278 5.83499C11.1877 5.1073 10.7199 4.48356 9.9402 4.48356H7.86108C7.54922 4.48356 7.28933 4.22368 7.3413 3.85983L7.60119 2.19654C7.70515 1.72874 7.39328 1.20896 6.92548 1.05303C6.50966 0.897094 5.98988 1.10501 5.78197 1.41687L3.65088 4.58752" stroke="#0279FC" stroke-miterlimit="10"/>
<path id="Vector_2" d="M1 9.16149V4.06766C1 3.33997 1.31187 3.08008 2.03956 3.08008H2.55934C3.28702 3.08008 3.59889 3.33997 3.59889 4.06766V9.16149C3.59889 9.88918 3.28702 10.1491 2.55934 10.1491H2.03956C1.31187 10.1491 1 9.88918 1 9.16149Z" stroke="#0279FC" stroke-linecap="round" stroke-linejoin="round"/>
</g>
</svg>
