<svg width="74" height="74" viewBox="0 0 74 74" fill="none" xmlns="http://www.w3.org/2000/svg">
<rect width="74" height="74" rx="10" fill="#2A2A2A"/>
<path d="M13.0001 39.067V38.4554C12.9992 38.3941 13.0071 38.3331 13.0235 38.274C13.0376 38.2213 13.0614 38.1717 13.0936 38.1277C13.1257 38.0839 13.1685 38.0491 13.218 38.0268C13.2751 38.0026 13.3365 37.9902 13.3986 37.9902C13.4606 37.9902 13.522 38.0026 13.5792 38.0268C13.6286 38.0491 13.6714 38.0839 13.7035 38.1277C13.7361 38.1715 13.7599 38.2212 13.7737 38.274C13.79 38.3331 13.7979 38.3941 13.7971 38.4554V39.067C13.7979 39.1269 13.7895 39.1866 13.7722 39.244C13.7572 39.2966 13.7329 39.3462 13.7005 39.3903C13.6672 39.4335 13.6241 39.4681 13.5748 39.4913C13.5199 39.517 13.4599 39.53 13.3993 39.5293C13.3377 39.5302 13.2767 39.5172 13.2209 39.4913C13.1717 39.4684 13.129 39.4337 13.0966 39.3903C13.0636 39.3463 13.0389 39.2968 13.0235 39.244C13.0075 39.1864 12.9996 39.1268 13.0001 39.067ZM13.5104 39.067V38.4554C13.5104 38.3091 13.4739 38.2433 13.3993 38.2433C13.3806 38.2425 13.3622 38.2476 13.3466 38.2579C13.3332 38.2681 13.3223 38.2811 13.3145 38.296C13.3062 38.3126 13.3003 38.3303 13.2969 38.3486C13.2935 38.367 13.2911 38.3856 13.2896 38.4042C13.2896 38.4188 13.2896 38.4364 13.2896 38.4554V39.067C13.2896 39.0831 13.2896 39.1006 13.2896 39.1167C13.2914 39.1349 13.2944 39.153 13.2984 39.1709C13.302 39.1895 13.3079 39.2077 13.3159 39.225C13.3237 39.2399 13.3347 39.2529 13.3481 39.263C13.3626 39.2735 13.38 39.2791 13.3978 39.2791C13.4194 39.2797 13.4404 39.2718 13.4563 39.2572C13.4733 39.2416 13.4851 39.2212 13.49 39.1986C13.4973 39.1768 13.5022 39.1543 13.5046 39.1313C13.508 39.1101 13.51 39.0885 13.5104 39.067Z" fill="#0279FC"/>
<path d="M24.0761 25.4157V25.3938H24.3569C24.3561 25.4079 24.3561 25.4221 24.3569 25.4362C24.3569 25.4479 24.3569 25.4626 24.3569 25.4801C24.358 25.4955 24.3609 25.5108 24.3657 25.5255C24.3657 25.5372 24.3774 25.5489 24.3832 25.5606C24.3899 25.5726 24.4001 25.5823 24.4125 25.5884C24.4257 25.5945 24.4403 25.5975 24.4549 25.5972C24.47 25.5973 24.4849 25.5927 24.4973 25.584C24.5096 25.5761 24.5201 25.5656 24.528 25.5533C24.5368 25.5377 24.5432 25.521 24.547 25.5035C24.547 25.483 24.5572 25.4655 24.5602 25.4494C24.5613 25.4289 24.5613 25.4084 24.5602 25.3879C24.5602 25.3631 24.5602 25.3455 24.5602 25.3338V25.2314C24.5096 25.2591 24.4526 25.2732 24.3949 25.2724C24.1624 25.2724 24.0469 25.1261 24.0469 24.8217C24.0469 24.7727 24.0513 24.7237 24.06 24.6754C24.0684 24.625 24.0831 24.5758 24.1039 24.5291C24.1223 24.4868 24.1475 24.4478 24.1785 24.4136C24.2107 24.3801 24.2496 24.3537 24.2926 24.336C24.3411 24.3154 24.3934 24.3054 24.4461 24.3068C24.4963 24.3063 24.5461 24.3163 24.5923 24.336C24.6353 24.3537 24.6737 24.3807 24.7049 24.415C24.7364 24.4497 24.762 24.4892 24.781 24.5321C24.8026 24.576 24.8179 24.6228 24.8263 24.6711C24.8363 24.7192 24.8412 24.7682 24.8409 24.8174V25.2797C24.8414 25.333 24.8379 25.3863 24.8307 25.4392C24.8228 25.489 24.81 25.538 24.7927 25.5855C24.7762 25.6321 24.752 25.6756 24.721 25.7142C24.6901 25.7523 24.6505 25.7824 24.6055 25.802C24.5542 25.8256 24.4982 25.8371 24.4417 25.8356C24.3845 25.837 24.3276 25.826 24.275 25.8034C24.2287 25.784 24.188 25.7533 24.1566 25.7142C24.1252 25.6734 24.1014 25.6273 24.0864 25.5781C24.0749 25.5248 24.0715 25.4701 24.0761 25.4157ZM24.5704 24.9681V24.772C24.5704 24.7501 24.5704 24.7281 24.5704 24.7076C24.5704 24.6872 24.5616 24.6637 24.5558 24.6389C24.5489 24.6169 24.5368 24.5968 24.5207 24.5803C24.5048 24.5657 24.4838 24.5579 24.4622 24.5584C24.4479 24.5585 24.4339 24.562 24.4212 24.5686C24.41 24.575 24.4001 24.5834 24.392 24.5935C24.3834 24.6057 24.3765 24.619 24.3715 24.633C24.3715 24.6491 24.3627 24.6637 24.3598 24.6769C24.3569 24.6901 24.3598 24.7062 24.3598 24.7252C24.3598 24.7442 24.3598 24.7588 24.3598 24.7691C24.3589 24.7817 24.3589 24.7945 24.3598 24.8071V24.8452C24.3598 24.8539 24.3598 24.8671 24.3598 24.8861C24.3586 24.9012 24.3586 24.9164 24.3598 24.9315C24.3623 24.9446 24.3662 24.9573 24.3715 24.9695C24.3757 24.9818 24.3821 24.9933 24.3905 25.0032C24.3992 25.0124 24.4097 25.0199 24.4212 25.0251C24.434 25.0312 24.448 25.0343 24.4622 25.0339C24.4846 25.0339 24.5065 25.0273 24.5251 25.0149C24.5438 25.0032 24.5594 24.9871 24.5704 24.9681Z" fill="#0279FC"/>
<path d="M24.9979 25.3853V24.7738C24.9971 24.7125 25.0049 24.6514 25.0213 24.5924C25.0347 24.5394 25.0586 24.4897 25.0915 24.4461C25.1231 24.4019 25.166 24.367 25.2158 24.3451C25.2729 24.321 25.3343 24.3086 25.3964 24.3086C25.4584 24.3086 25.5198 24.321 25.577 24.3451C25.6267 24.367 25.6696 24.4019 25.7013 24.4461C25.7327 24.4905 25.7565 24.54 25.7715 24.5924C25.7878 24.6514 25.7957 24.7125 25.7949 24.7738V25.3853C25.7957 25.4453 25.7873 25.505 25.77 25.5624C25.755 25.6153 25.7302 25.6649 25.6969 25.7087C25.6649 25.7529 25.6221 25.7882 25.5726 25.8111C25.5169 25.8361 25.4566 25.8491 25.3956 25.8491C25.3346 25.8491 25.2743 25.8361 25.2187 25.8111C25.1694 25.7879 25.1262 25.7533 25.0929 25.7101C25.0608 25.6658 25.0366 25.6163 25.0213 25.5638C25.0049 25.5058 24.997 25.4456 24.9979 25.3853ZM25.5082 25.3853V24.7738C25.5082 24.6275 25.4702 24.5602 25.3971 24.5602C25.3783 24.5599 25.3599 24.5655 25.3444 24.5763C25.3311 24.5859 25.3201 24.5984 25.3123 24.6128C25.3043 24.6301 25.2984 24.6483 25.2947 24.667C25.2913 24.6854 25.2889 24.7039 25.2874 24.7226C25.2874 24.7372 25.2874 24.7548 25.2874 24.7738V25.3853C25.2874 25.4014 25.2874 25.419 25.2874 25.4351C25.2893 25.4533 25.2922 25.4714 25.2962 25.4892C25.2998 25.5079 25.3057 25.5261 25.3137 25.5433C25.3215 25.5582 25.3325 25.5712 25.3459 25.5814C25.3604 25.5918 25.3778 25.5975 25.3956 25.5975C25.4172 25.5977 25.4381 25.5899 25.4541 25.5755C25.4706 25.5596 25.4823 25.5393 25.4878 25.517C25.4944 25.495 25.4993 25.4725 25.5024 25.4497C25.5058 25.4284 25.5078 25.4069 25.5082 25.3853Z" fill="#0279FC"/>
<path d="M58.4816 47.0604C58.4818 47.1261 58.4709 47.1914 58.4494 47.2535C58.4285 47.3183 58.3995 47.3803 58.3631 47.4378C58.3251 47.4978 58.2886 47.549 58.2535 47.5944C58.2184 47.6397 58.176 47.6909 58.1262 47.7407C58.0765 47.7904 58.0429 47.8402 58.0195 47.8709H58.4816V48.1562H57.6992V47.9016L58.0604 47.3852L58.1116 47.3076C58.1278 47.2827 58.1425 47.2568 58.1555 47.2301C58.1708 47.2012 58.183 47.1708 58.192 47.1394C58.1994 47.1112 58.2034 47.0822 58.2037 47.0531C58.2052 47.0355 58.2052 47.0179 58.2037 47.0004C58.1994 46.9827 58.193 46.9655 58.1847 46.9492C58.1764 46.9339 58.1649 46.9204 58.1511 46.9097C58.136 46.8996 58.1181 46.8945 58.0999 46.8951C58.0856 46.8946 58.0714 46.8982 58.059 46.9053C58.0467 46.9127 58.0362 46.9226 58.0283 46.9346C58.0205 46.948 58.0141 46.9622 58.0092 46.977C58.003 46.9934 57.999 47.0107 57.9976 47.0282C57.9976 47.0457 57.9976 47.0633 57.9976 47.0809C57.9961 47.0984 57.9961 47.116 57.9976 47.1335V47.1979H57.6992V47.1043C57.699 47.0552 57.7034 47.0062 57.7124 46.958C57.7203 46.9137 57.7346 46.8708 57.7548 46.8307C57.7734 46.7937 57.7987 46.7604 57.8294 46.7327C57.8619 46.7038 57.9003 46.6823 57.942 46.6697C57.9892 46.6544 58.0386 46.6465 58.0882 46.6463C58.142 46.6428 58.1959 46.6507 58.2463 46.6696C58.2967 46.6886 58.3425 46.718 58.3807 46.7561C58.4528 46.8404 58.489 46.9496 58.4816 47.0604Z" fill="#0279FC"/>
<path d="M58.5767 47.8033V47.5677L58.9393 46.6768H59.2757V47.5677H59.4146V47.7989H59.2757V48.1588H58.992V47.7989L58.5767 47.8033ZM58.8311 47.5721H58.992V47.1332L58.8311 47.5721Z" fill="#0279FC"/>
<path d="M59.5023 47.7273V47.1172C59.5015 47.056 59.5094 46.9949 59.5257 46.9358C59.5409 46.8835 59.5646 46.8341 59.5959 46.7895C59.628 46.7461 59.6708 46.7118 59.7202 46.69C59.7772 46.6645 59.8391 46.652 59.9015 46.6535C59.9635 46.6518 60.025 46.6643 60.0814 46.69C60.1311 46.7119 60.1741 46.7468 60.2057 46.791C60.2383 46.8348 60.2621 46.8845 60.2759 46.9373C60.2927 46.9963 60.3011 47.0574 60.3008 47.1187V47.7288C60.301 47.7892 60.2926 47.8493 60.2759 47.9073C60.2599 47.9598 60.2352 48.0093 60.2028 48.0536C60.1699 48.0976 60.1267 48.1327 60.077 48.156C60.0221 48.1814 59.962 48.194 59.9015 48.1926C59.8405 48.1939 59.78 48.1814 59.7246 48.156C59.675 48.1332 59.6318 48.0985 59.5988 48.0551C59.5663 48.0108 59.5415 47.9613 59.5257 47.9088C59.5091 47.8497 59.5012 47.7886 59.5023 47.7273ZM60.0127 47.7273V47.1172C60.0127 46.9709 59.9761 46.9036 59.9015 46.9036C59.8831 46.9031 59.8651 46.9088 59.8503 46.9197C59.8362 46.9289 59.8246 46.9415 59.8167 46.9563C59.8085 46.9735 59.8026 46.9917 59.7992 47.0104C59.7992 47.0324 59.7992 47.0499 59.7919 47.066C59.7845 47.0821 59.7919 47.0982 59.7919 47.1172V47.7273C59.7919 47.7449 59.7919 47.761 59.7919 47.7771C59.7937 47.7958 59.7966 47.8143 59.8006 47.8327C59.8045 47.8513 59.8104 47.8695 59.8182 47.8868C59.826 47.9017 59.837 47.9147 59.8503 47.9248C59.8648 47.9353 59.8822 47.9409 59.9001 47.9409C59.9217 47.9415 59.9426 47.9336 59.9586 47.919C59.9756 47.9032 59.9877 47.8829 59.9937 47.8605C60.0006 47.8386 60.005 47.816 60.0068 47.7932C60.0103 47.7714 60.0123 47.7494 60.0127 47.7273Z" fill="#0279FC"/>
<path d="M52.4419 31.4835V30.3818H52.2957V30.158L52.3571 30.1258L52.417 30.0951C52.435 30.085 52.4513 30.0721 52.4653 30.0571C52.4835 30.0388 52.4983 30.0175 52.5092 29.9941H52.7271V31.4777L52.4419 31.4835Z" fill="#0279FC"/>
<path d="M52.9899 30.6995C52.9217 30.6116 52.8838 30.504 52.8817 30.3927C52.8796 30.2815 52.9134 30.1725 52.9782 30.0821C53.0551 30.0105 53.1562 29.9707 53.2612 29.9707C53.3662 29.9707 53.4673 30.0105 53.5441 30.0821C53.6095 30.1652 53.6432 30.269 53.6392 30.3747C53.6434 30.4322 53.636 30.4899 53.6174 30.5444C53.5988 30.599 53.5694 30.6492 53.531 30.6922C53.5564 30.7131 53.579 30.7372 53.5983 30.7638C53.6157 30.7903 53.6285 30.8195 53.6363 30.8502C53.6458 30.8796 53.6522 30.9101 53.6553 30.9409C53.6553 30.9701 53.6553 31.0038 53.6553 31.0418C53.6558 31.1048 53.6489 31.1677 53.6348 31.2291C53.622 31.2815 53.5997 31.3311 53.569 31.3754C53.5375 31.4187 53.4944 31.4521 53.4447 31.472C53.3851 31.4954 53.3215 31.5068 53.2575 31.5056C52.9914 31.5056 52.8583 31.352 52.8583 31.0448C52.8569 30.976 52.8658 30.9075 52.8846 30.8414C52.9037 30.7841 52.9406 30.7344 52.9899 30.6995ZM53.218 31.2686C53.2318 31.2747 53.2468 31.2777 53.2619 31.2774C53.277 31.2776 53.2919 31.2746 53.3058 31.2686C53.3171 31.2642 53.3275 31.2577 53.3365 31.2496C53.3456 31.2408 53.353 31.2303 53.3584 31.2189C53.3584 31.2042 53.3687 31.1925 53.3716 31.1823C53.3745 31.172 53.3716 31.1589 53.3716 31.1413C53.3716 31.1238 53.3716 31.1106 53.3716 31.1018C53.3725 31.0896 53.3725 31.0774 53.3716 31.0652C53.3716 30.9028 53.3321 30.8209 53.2531 30.8209C53.1742 30.8209 53.1332 30.9028 53.1332 31.0652V31.1033C53.1332 31.1121 53.1332 31.1252 53.1332 31.1413C53.1343 31.1552 53.1367 31.1689 53.1405 31.1823C53.1438 31.1948 53.1482 31.2071 53.1537 31.2189C53.1586 31.2303 53.1655 31.2407 53.1742 31.2496C53.187 31.2594 53.2021 31.266 53.218 31.2686ZM53.2619 30.5985C53.2737 30.5986 53.2853 30.5956 53.2955 30.5897C53.3056 30.5834 53.314 30.5749 53.3204 30.5649C53.3289 30.5537 53.3344 30.5407 53.3365 30.5268C53.3416 30.5132 53.3451 30.4989 53.3467 30.4844C53.3479 30.4688 53.3479 30.4532 53.3467 30.4376C53.3467 30.4186 53.3467 30.4054 53.3467 30.3952V30.3571C53.3467 30.2503 53.316 30.1977 53.2546 30.1977C53.2366 30.1974 53.2191 30.2032 53.2048 30.214C53.1905 30.2249 53.1802 30.2402 53.1756 30.2576C53.1702 30.2739 53.1658 30.2905 53.1625 30.3074C53.1625 30.3235 53.1625 30.3396 53.1625 30.3571C53.1616 30.3722 53.1616 30.3874 53.1625 30.4025C53.1625 30.4156 53.1625 30.4317 53.1625 30.4537C53.1635 30.472 53.1664 30.4901 53.1712 30.5078C53.1746 30.5231 53.18 30.5379 53.1873 30.5517C53.1918 30.5661 53.2011 30.5785 53.2136 30.5868C53.2206 30.5917 53.2284 30.5951 53.2367 30.5969C53.245 30.5986 53.2536 30.5987 53.2619 30.5971V30.5985Z" fill="#0279FC"/>
<path d="M53.7783 31.0485V30.437C53.7782 30.3757 53.7861 30.3148 53.8017 30.2555C53.8166 30.2029 53.8409 30.1533 53.8734 30.1092C53.9055 30.0655 53.9483 30.0307 53.9977 30.0083C54.0544 29.9836 54.1157 29.9711 54.1776 29.9717C54.2399 29.9709 54.3017 29.9833 54.3589 30.0083C54.4078 30.0315 54.4504 30.0661 54.4832 30.1092C54.5145 30.1538 54.5382 30.2032 54.5534 30.2555C54.5698 30.3141 54.5777 30.3747 54.5768 30.4355V31.0471C54.5769 31.1069 54.5686 31.1666 54.5519 31.2241C54.5364 31.2768 54.5116 31.3263 54.4788 31.3704C54.4458 31.4139 54.4026 31.4485 54.353 31.4713C54.2982 31.4973 54.2382 31.5103 54.1776 31.5094C54.1165 31.5101 54.056 31.4971 54.0006 31.4713C53.951 31.4486 53.9077 31.4139 53.8748 31.3704C53.8423 31.3263 53.8181 31.2768 53.8032 31.2241C53.7868 31.167 53.7785 31.1079 53.7783 31.0485ZM54.2902 31.0485V30.437C54.2902 30.2907 54.2521 30.2248 54.1776 30.2248C54.1594 30.2243 54.1415 30.2294 54.1264 30.2395C54.1126 30.2492 54.1015 30.2623 54.0942 30.2775C54.0857 30.2946 54.0798 30.3128 54.0766 30.3316C54.0724 30.3494 54.07 30.3675 54.0693 30.3858C54.0693 30.4004 54.0693 30.4179 54.0693 30.437V31.0485C54.0693 31.0646 54.0693 31.0822 54.0693 31.0983C54.0713 31.1169 54.0742 31.1355 54.0781 31.1539C54.0815 31.1723 54.0879 31.1901 54.0971 31.2065C54.1044 31.2217 54.1155 31.2348 54.1293 31.2446C54.1433 31.2548 54.1602 31.2605 54.1776 31.2607C54.1883 31.2611 54.199 31.2594 54.209 31.2556C54.2191 31.2518 54.2283 31.2461 54.236 31.2387C54.253 31.2229 54.2652 31.2026 54.2711 31.1802C54.278 31.1582 54.2828 31.1357 54.2858 31.1129C54.2887 31.0916 54.2902 31.07 54.2902 31.0485Z" fill="#0279FC"/>
<path d="M57.4286 38.2039C57.4285 38.27 57.4182 38.3357 57.3979 38.3985C57.3758 38.4632 57.3464 38.525 57.3101 38.5829C57.2721 38.6429 57.2356 38.6941 57.2005 38.7394C57.1654 38.7848 57.123 38.836 57.0747 38.8857C57.0264 38.9355 56.9899 38.9867 56.9665 39.0174H57.4286V39.31H56.6389V39.054L57.0001 38.5375C57.0206 38.5083 57.0381 38.4819 57.0513 38.46C57.0678 38.4358 57.0825 38.4103 57.0952 38.3839C57.1102 38.3549 57.1225 38.3245 57.1317 38.2932C57.1392 38.2645 57.1432 38.235 57.1434 38.2054C57.1448 38.1884 57.1448 38.1712 57.1434 38.1542C57.1393 38.1364 57.1329 38.1192 57.1244 38.103C57.1165 38.0873 57.105 38.0738 57.0908 38.0635C57.0762 38.0532 57.0589 38.0476 57.0411 38.0474C57.0261 38.0473 57.0114 38.0513 56.9987 38.0591C56.9864 38.0665 56.9759 38.0765 56.968 38.0884C56.9602 38.1018 56.9538 38.116 56.9489 38.1308C56.9435 38.147 56.9396 38.1636 56.9372 38.1805C56.9372 38.1996 56.9372 38.2171 56.9372 38.2347C56.9372 38.2522 56.9372 38.2698 56.9372 38.2859V38.3502H56.6535V38.2566C56.6534 38.2075 56.6578 38.1586 56.6667 38.1103C56.6746 38.0661 56.6889 38.0232 56.7091 37.983C56.7282 37.9463 56.7534 37.9132 56.7837 37.885C56.8162 37.8561 56.8547 37.8347 56.8963 37.8221C56.9434 37.8061 56.9928 37.7981 57.0425 37.7987C57.0963 37.7951 57.1502 37.8031 57.2006 37.822C57.251 37.8409 57.2969 37.8704 57.335 37.9084C57.4026 37.9914 57.4361 38.0971 57.4286 38.2039Z" fill="#0279FC"/>
<path d="M57.6536 39.3038V38.2036H57.5073V37.9842L57.5687 37.952L57.6287 37.9227C57.6463 37.9121 57.6625 37.8993 57.677 37.8847C57.6952 37.8659 57.71 37.8441 57.7208 37.8203H57.9402V39.3053L57.6536 39.3038Z" fill="#0279FC"/>
<path d="M58.0945 38.8678V38.2577C58.0943 38.1965 58.1022 38.1355 58.1179 38.0763C58.1331 38.024 58.1568 37.9746 58.1881 37.93C58.2208 37.8866 58.2641 37.8523 58.3139 37.8305C58.3708 37.8064 58.4319 37.7939 58.4937 37.7939C58.5555 37.7939 58.6167 37.8064 58.6736 37.8305C58.7234 37.8523 58.7667 37.8866 58.7994 37.93C58.8307 37.9746 58.8544 38.024 58.8696 38.0763C58.8859 38.1354 58.8938 38.1965 58.893 38.2577V38.8678C58.8931 38.9282 58.8847 38.9883 58.8681 39.0463C58.8527 39.0991 58.8279 39.1486 58.795 39.1926C58.7621 39.2365 58.7189 39.2717 58.6692 39.295C58.6143 39.3205 58.5542 39.333 58.4937 39.3316C58.4327 39.3328 58.3723 39.3203 58.3168 39.295C58.2674 39.2718 58.2243 39.2372 58.191 39.1941C58.1587 39.1499 58.1344 39.1004 58.1194 39.0478C58.1025 38.9893 58.0941 38.9287 58.0945 38.8678ZM58.6049 38.8678V38.2577C58.6049 38.1114 58.5683 38.0441 58.4937 38.0441C58.4754 38.0438 58.4574 38.0495 58.4425 38.0602C58.4288 38.0694 58.4177 38.082 58.4104 38.0968C58.4021 38.114 58.3962 38.1322 58.3928 38.1509C58.3887 38.1687 58.3863 38.1868 58.3855 38.2051C58.3855 38.2212 58.3855 38.2373 58.3855 38.2577V38.8678C58.3855 38.8854 58.3855 38.9015 58.3855 38.9176C58.3873 38.9363 58.3903 38.9548 58.3943 38.9732C58.398 38.992 58.4044 39.0103 58.4133 39.0273C58.4206 39.0425 58.4317 39.0556 58.4455 39.0653C58.4595 39.0754 58.4765 39.0805 58.4937 39.08C58.515 39.0804 58.5358 39.0731 58.5522 39.0595C58.5689 39.0434 58.581 39.0232 58.5873 39.001C58.5938 38.9789 58.5987 38.9564 58.6019 38.9337C58.6044 38.9118 58.6054 38.8898 58.6049 38.8678Z" fill="#0279FC"/>
<path d="M44.6226 25.8175V24.7158H44.4763V24.4978C44.4958 24.4853 44.5163 24.4745 44.5377 24.4657L44.5977 24.4349C44.6156 24.4248 44.6319 24.412 44.646 24.3969C44.6642 24.3787 44.679 24.3574 44.6898 24.334H44.9092V25.8175H44.6226Z" fill="#0279FC"/>
<path d="M45.0728 25.3464H45.3565V25.4152C45.3565 25.4327 45.3565 25.4532 45.3565 25.4752C45.3572 25.493 45.3602 25.5107 45.3652 25.5278C45.3682 25.5419 45.3736 25.5552 45.3813 25.5673C45.3864 25.5795 45.3958 25.5894 45.4076 25.5951C45.4189 25.6011 45.4315 25.6041 45.4442 25.6039C45.4615 25.604 45.4785 25.6 45.4939 25.5922C45.5074 25.5853 45.5189 25.5753 45.5276 25.5629C45.5374 25.55 45.5452 25.5357 45.551 25.5205C45.5569 25.5039 45.5613 25.4867 45.5641 25.4693C45.5641 25.4503 45.5641 25.4313 45.5641 25.4122C45.5656 25.3942 45.5656 25.3761 45.5641 25.3581V25.2425C45.5641 25.2308 45.5641 25.2147 45.5641 25.1972C45.562 25.1808 45.5586 25.1647 45.5539 25.1489C45.5482 25.1352 45.5414 25.1219 45.5334 25.1094C45.5258 25.0972 45.5152 25.0871 45.5027 25.0801C45.4885 25.0735 45.473 25.07 45.4574 25.0699C45.4438 25.0702 45.4305 25.0735 45.4183 25.0796C45.4062 25.0857 45.3956 25.0943 45.3872 25.105C45.3654 25.1283 45.3485 25.1556 45.3374 25.1855H45.0947V24.334H45.801V24.6149H45.3623V24.8826C45.4056 24.8533 45.4563 24.8366 45.5085 24.8343C45.5586 24.8327 45.6084 24.8416 45.6548 24.8607C45.6925 24.8754 45.7265 24.8984 45.7542 24.928C45.7807 24.9582 45.8015 24.9928 45.8156 25.0304C45.8313 25.07 45.8426 25.1112 45.8493 25.1533C45.8553 25.1989 45.8583 25.2448 45.8581 25.2908C45.8604 25.3361 45.8604 25.3816 45.8581 25.4269C45.8535 25.4702 45.8462 25.5132 45.8361 25.5556C45.827 25.5962 45.8117 25.6352 45.7908 25.6712C45.772 25.7051 45.7478 25.7358 45.7191 25.7619C45.6893 25.7907 45.6533 25.8122 45.6138 25.8248C45.515 25.8569 45.4085 25.8569 45.3097 25.8248C45.2669 25.8103 45.2283 25.7857 45.1971 25.7531C45.1664 25.7217 45.1425 25.6844 45.1269 25.6434C45.1089 25.5998 45.0966 25.5541 45.0903 25.5073C45.0801 25.4543 45.0743 25.4004 45.0728 25.3464Z" fill="#0279FC"/>
<path d="M45.9812 25.3834V24.7719C45.9811 24.7107 45.989 24.6497 46.0046 24.5905C46.0193 24.538 46.0431 24.4885 46.0748 24.4442C46.1074 24.4003 46.1507 24.3655 46.2006 24.3432C46.2575 24.3191 46.3186 24.3066 46.3804 24.3066C46.4422 24.3066 46.5034 24.3191 46.5603 24.3432C46.6102 24.3655 46.6535 24.4003 46.6861 24.4442C46.7175 24.4886 46.7413 24.5381 46.7563 24.5905C46.7726 24.6495 46.7805 24.7106 46.7797 24.7719V25.3834C46.7798 25.4433 46.7715 25.5029 46.7548 25.5605C46.7393 25.6132 46.7145 25.6627 46.6817 25.7068C46.6487 25.7503 46.6055 25.7849 46.5559 25.8077C46.5011 25.8337 46.4411 25.8467 46.3804 25.8458C46.3193 25.8465 46.2589 25.8335 46.2035 25.8077C46.1542 25.7845 46.111 25.7499 46.0777 25.7068C46.0452 25.6627 46.021 25.6132 46.0061 25.5605C45.9896 25.5029 45.9812 25.4433 45.9812 25.3834ZM46.4916 25.3834V24.7719C46.4916 24.6256 46.455 24.5598 46.3804 24.5598C46.3623 24.5592 46.3444 24.5643 46.3292 24.5744C46.3155 24.5841 46.3044 24.5972 46.2971 24.6124C46.2888 24.6291 46.2829 24.6468 46.2795 24.6651C46.2778 24.6836 46.2778 24.7022 46.2795 24.7207C46.2795 24.7353 46.2795 24.7529 46.2795 24.7719V25.3834C46.2795 25.3995 46.2795 25.4171 46.2795 25.4332C46.2814 25.4514 46.2843 25.4695 46.2883 25.4873C46.2915 25.5063 46.2979 25.5246 46.3073 25.5415C46.3146 25.5567 46.3257 25.5698 46.3395 25.5795C46.3534 25.5899 46.3703 25.5956 46.3877 25.5956C46.4094 25.5961 46.4303 25.5883 46.4462 25.5736C46.4632 25.5578 46.4754 25.5376 46.4813 25.5151C46.488 25.4931 46.4929 25.4706 46.496 25.4478C46.496 25.4263 46.4945 25.4048 46.4916 25.3834Z" fill="#0279FC"/>
<path d="M16.8079 30.9768V30.4501C16.8077 30.4012 16.8111 30.3523 16.8181 30.3038C16.826 30.2539 16.8387 30.2049 16.8561 30.1575C16.8741 30.1134 16.8982 30.072 16.9278 30.0346C16.9593 29.9982 16.9989 29.9697 17.0433 29.9512C17.0949 29.9288 17.1508 29.9178 17.2071 29.919C17.2634 29.918 17.3192 29.9289 17.3709 29.9512C17.4163 29.9721 17.4563 30.0032 17.4879 30.0419C17.5192 30.0827 17.543 30.1288 17.5581 30.178C17.5743 30.2331 17.5822 30.2903 17.5815 30.3477V30.374H17.3022V30.3214C17.3032 30.3038 17.3032 30.2862 17.3022 30.2687C17.2996 30.251 17.2947 30.2338 17.2875 30.2175C17.2808 30.2044 17.2713 30.1929 17.2597 30.1838C17.2465 30.1745 17.2306 30.1694 17.2144 30.1692C17.1384 30.1692 17.1003 30.2658 17.1018 30.4618V30.5467C17.1521 30.5122 17.2119 30.4943 17.2729 30.4955C17.3227 30.4933 17.3725 30.5013 17.4191 30.5189C17.4563 30.5333 17.4902 30.5552 17.5186 30.5833C17.5448 30.6128 17.5651 30.6471 17.5785 30.6842C17.5947 30.7232 17.6059 30.7639 17.6122 30.8056C17.6186 30.8541 17.6215 30.903 17.621 30.9519C17.6209 31.001 17.6165 31.05 17.6078 31.0982C17.5996 31.1487 17.5849 31.1979 17.5639 31.2445C17.5455 31.2864 17.5203 31.325 17.4893 31.3587C17.4567 31.3917 17.418 31.418 17.3753 31.4362C17.3287 31.4545 17.2791 31.4639 17.229 31.464C17.179 31.4642 17.1293 31.4547 17.0828 31.4362C17.0405 31.4201 17.0021 31.3952 16.9702 31.3631C16.9392 31.3313 16.9135 31.2947 16.8941 31.2548C16.8726 31.2144 16.8573 31.171 16.8488 31.126C16.8298 31.0779 16.816 31.0279 16.8079 30.9768ZM17.1003 30.8027V30.9944C17.1003 31.0119 17.1003 31.028 17.1003 31.0441C17.1022 31.0628 17.1051 31.0814 17.1091 31.0997C17.1127 31.1179 17.1186 31.1356 17.1267 31.1524C17.1344 31.1677 17.1454 31.1812 17.1588 31.1919C17.1734 31.2019 17.1909 31.207 17.2086 31.2065C17.2187 31.2079 17.2291 31.2079 17.2393 31.2065C17.2486 31.2037 17.2571 31.1987 17.2641 31.1919L17.2831 31.1714C17.2897 31.1626 17.2947 31.1527 17.2978 31.1421C17.3005 31.1322 17.3039 31.1224 17.308 31.1129C17.3093 31.1012 17.3093 31.0894 17.308 31.0778C17.3074 31.067 17.3074 31.0563 17.308 31.0456C17.308 31.0383 17.308 31.0266 17.308 31.0105V30.911C17.308 30.8993 17.308 30.8832 17.308 30.8642C17.3073 30.8476 17.3039 30.8313 17.2978 30.8159C17.2932 30.8019 17.2868 30.7886 17.2788 30.7764C17.2716 30.7639 17.2609 30.7537 17.248 30.7471C17.2332 30.7411 17.2173 30.7381 17.2012 30.7383C17.1797 30.7392 17.1587 30.7456 17.1403 30.7569C17.1219 30.7682 17.1066 30.7839 17.096 30.8027H17.1003Z" fill="#0279FC"/>
<path d="M17.7203 30.9958V30.3842C17.7195 30.3229 17.7273 30.2618 17.7437 30.2028C17.7584 30.1503 17.7821 30.1008 17.8139 30.0565C17.846 30.0122 17.8895 29.9774 17.9396 29.9555C17.9965 29.9314 18.0577 29.9189 18.1195 29.9189C18.1813 29.9189 18.2425 29.9314 18.2994 29.9555C18.3495 29.9774 18.393 30.0122 18.4251 30.0565C18.4566 30.101 18.4803 30.1504 18.4953 30.2028C18.511 30.262 18.5188 30.323 18.5187 30.3842V30.9958C18.5189 31.0556 18.5105 31.1153 18.4939 31.1728C18.4789 31.2257 18.4541 31.2753 18.4208 31.3191C18.3879 31.3631 18.3447 31.3982 18.295 31.4215C18.2402 31.4474 18.1801 31.4605 18.1195 31.4595C18.0584 31.4604 17.9979 31.4474 17.9426 31.4215C17.893 31.3987 17.8498 31.364 17.8168 31.3205C17.7842 31.2766 17.7599 31.227 17.7451 31.1742C17.7282 31.1163 17.7199 31.0561 17.7203 30.9958ZM18.2306 30.9958V30.3842C18.2306 30.2379 18.1941 30.1706 18.1195 30.1706C18.1012 30.1703 18.0832 30.1759 18.0683 30.1867C18.0545 30.1964 18.0435 30.2095 18.0361 30.2247C18.0273 30.2411 18.0213 30.259 18.0186 30.2774C18.0169 30.2959 18.0169 30.3145 18.0186 30.333C18.0186 30.3476 18.0186 30.3652 18.0186 30.3842V30.9958C18.0186 31.0118 18.0186 31.0294 18.0186 31.0455C18.0204 31.0637 18.0234 31.0818 18.0274 31.0996C18.031 31.1183 18.0369 31.1365 18.0449 31.1538C18.0533 31.1687 18.0648 31.1817 18.0786 31.1918C18.0925 31.2022 18.1094 31.2079 18.1268 31.2079C18.1484 31.2084 18.1694 31.2006 18.1853 31.1859C18.2023 31.1701 18.2145 31.1499 18.2204 31.1274C18.227 31.1054 18.2319 31.0829 18.235 31.0601C18.2292 31.0353 18.2306 31.0177 18.2306 30.9958Z" fill="#0279FC"/>
<path d="M35.2356 27.6623C35.2356 27.6817 35.2279 27.7003 35.2142 27.714C35.2005 27.7277 35.1819 27.7354 35.1625 27.7354C35.1434 27.735 35.1251 27.7271 35.1117 27.7135C35.0983 27.6998 35.0908 27.6814 35.0908 27.6623V25.08C35.0906 25.0705 35.0924 25.061 35.0959 25.0521C35.0994 25.0432 35.1046 25.0352 35.1113 25.0283C35.118 25.0215 35.1259 25.0161 35.1347 25.0124C35.1435 25.0087 35.153 25.0068 35.1625 25.0068C35.1819 25.0068 35.2005 25.0145 35.2142 25.0283C35.2279 25.042 35.2356 25.0606 35.2356 25.08V27.6623Z" fill="#0279FC"/>
<path d="M56.6608 48.1016C56.6705 48.1014 56.6802 48.1031 56.6892 48.1067C56.6983 48.1103 56.7065 48.1157 56.7135 48.1225C56.7204 48.1293 56.7259 48.1374 56.7297 48.1464C56.7335 48.1554 56.7354 48.165 56.7354 48.1747C56.7343 48.1937 56.7259 48.2116 56.7121 48.2247C56.6982 48.2377 56.6799 48.245 56.6608 48.245H54.0797C54.0607 48.245 54.0423 48.2377 54.0285 48.2247C54.0146 48.2116 54.0062 48.1937 54.0051 48.1747C54.0051 48.165 54.0071 48.1554 54.0108 48.1464C54.0146 48.1374 54.0201 48.1293 54.0271 48.1225C54.034 48.1157 54.0422 48.1103 54.0513 48.1067C54.0603 48.1031 54.07 48.1014 54.0797 48.1016H56.6608Z" fill="#0279FC"/>
<path d="M15.0737 47.5209L15.0752 47.4258L15.704 47.4477L15.7026 47.5355L15.0737 47.5209Z" fill="#0279FC"/>
<path d="M15.1145 46.6981L15.1204 46.6074L15.7506 46.644L15.7433 46.7362L15.1145 46.6981Z" fill="#0279FC"/>
<path d="M15.1599 45.893L15.1628 45.8037L15.7917 45.8432L15.7887 45.9325L15.1599 45.893Z" fill="#0279FC"/>
<path d="M13.5773 48.1016C13.5674 48.1012 13.5576 48.1028 13.5484 48.1063C13.5392 48.1098 13.5308 48.1152 13.5237 48.122C13.5166 48.1288 13.5109 48.137 13.5071 48.1461C13.5032 48.1552 13.5012 48.1649 13.5012 48.1748C13.5016 48.1844 13.5039 48.1938 13.5079 48.2026C13.5119 48.2113 13.5176 48.2191 13.5247 48.2257C13.5318 48.2322 13.54 48.2372 13.5491 48.2406C13.5581 48.2439 13.5677 48.2454 13.5773 48.245H16.1554C16.165 48.2454 16.1746 48.2439 16.1837 48.2406C16.1927 48.2372 16.201 48.2322 16.208 48.2257C16.2151 48.2191 16.2208 48.2113 16.2248 48.2026C16.2288 48.1938 16.2311 48.1844 16.2315 48.1748C16.2315 48.1649 16.2295 48.1552 16.2257 48.1461C16.2218 48.137 16.2161 48.1288 16.209 48.122C16.2019 48.1152 16.1935 48.1098 16.1843 48.1063C16.1751 48.1028 16.1653 48.1012 16.1554 48.1016H13.5773Z" fill="#0279FC"/>
<path d="M44.061 26.5083C44.0646 26.4988 44.07 26.4902 44.077 26.4828C44.0839 26.4754 44.0923 26.4695 44.1015 26.4655C44.1108 26.4614 44.1208 26.4592 44.1309 26.459C44.141 26.4588 44.1511 26.4607 44.1605 26.4644C44.1695 26.4692 44.1776 26.4757 44.1841 26.4836C44.1906 26.4915 44.1955 26.5006 44.1985 26.5104C44.2015 26.5202 44.2025 26.5305 44.2015 26.5407C44.2005 26.5509 44.1975 26.5607 44.1927 26.5698L42.9555 29.2032C42.9474 29.2224 42.9322 29.2376 42.9131 29.2458C42.894 29.254 42.8725 29.2544 42.8531 29.2471C42.8355 29.2365 42.8227 29.2193 42.8175 29.1994C42.8123 29.1794 42.8151 29.1582 42.8253 29.1403L44.061 26.5083Z" fill="#0279FC"/>
<path d="M51.4517 31.6329C51.4589 31.6254 51.4675 31.6195 51.4771 31.6155C51.4866 31.6115 51.4969 31.6094 51.5072 31.6094C51.5176 31.6094 51.5279 31.6115 51.5374 31.6155C51.547 31.6195 51.5556 31.6254 51.5628 31.6329C51.5693 31.6408 51.5741 31.65 51.5769 31.6598C51.5797 31.6697 51.5804 31.68 51.5791 31.6902C51.5777 31.7003 51.5742 31.7101 51.5689 31.7189C51.5636 31.7276 51.5566 31.7352 51.5482 31.7411L49.3956 33.7001C49.3882 33.7076 49.3795 33.7135 49.3698 33.7176C49.3601 33.7217 49.3497 33.7237 49.3393 33.7237C49.3288 33.7237 49.3184 33.7217 49.3087 33.7176C49.2991 33.7135 49.2903 33.7076 49.283 33.7001C49.2712 33.6837 49.266 33.6635 49.2684 33.6434C49.2708 33.6234 49.2807 33.605 49.2961 33.5919L51.4517 31.6329Z" fill="#0279FC"/>
<path d="M56.0176 39.4732C56.0268 39.4691 56.0369 39.4669 56.047 39.4668C56.0572 39.4667 56.0672 39.4686 56.0766 39.4724C56.086 39.4762 56.0946 39.4819 56.1018 39.489C56.1089 39.4962 56.1146 39.5047 56.1185 39.5141C56.1238 39.5339 56.1212 39.555 56.111 39.5729C56.1009 39.5907 56.0841 39.6038 56.0643 39.6092L53.3121 40.5778C53.3027 40.5819 53.2926 40.5841 53.2824 40.5842C53.2721 40.5844 53.2619 40.5825 53.2524 40.5787C53.2429 40.5749 53.2342 40.5692 53.2269 40.562C53.2196 40.5548 53.2138 40.5463 53.2098 40.5368C53.2067 40.5269 53.2056 40.5165 53.2067 40.5062C53.2078 40.4959 53.2109 40.4859 53.216 40.4768C53.2211 40.4678 53.2279 40.4599 53.2362 40.4536C53.2444 40.4473 53.2538 40.4428 53.2639 40.4402L56.0176 39.4732Z" fill="#0279FC"/>
<path d="M26.3441 26.5084C26.3404 26.4988 26.3348 26.4901 26.3277 26.4828C26.3206 26.4754 26.3121 26.4695 26.3027 26.4654C26.2934 26.4613 26.2833 26.4592 26.273 26.459C26.2628 26.4588 26.2527 26.4607 26.2432 26.4645C26.2342 26.4694 26.2263 26.476 26.22 26.4839C26.2136 26.4919 26.2088 26.501 26.206 26.5108C26.2031 26.5206 26.2022 26.5308 26.2033 26.541C26.2045 26.5511 26.2075 26.5609 26.2125 26.5698L27.4496 29.2033C27.4574 29.2223 27.4723 29.2375 27.4912 29.2457C27.51 29.2539 27.5313 29.2544 27.5505 29.2472C27.5597 29.2423 27.5677 29.2356 27.5742 29.2275C27.5807 29.2194 27.5855 29.2101 27.5882 29.2001C27.5909 29.1901 27.5916 29.1796 27.5902 29.1694C27.5887 29.1591 27.5852 29.1492 27.5798 29.1404L26.3441 26.5084Z" fill="#0279FC"/>
<path d="M18.8525 31.6327C18.8454 31.6254 18.8369 31.6195 18.8275 31.6155C18.8181 31.6114 18.8079 31.6094 18.7977 31.6094C18.7875 31.6094 18.7773 31.6114 18.7679 31.6155C18.7585 31.6195 18.75 31.6254 18.7429 31.6327C18.7302 31.6487 18.7243 31.669 18.7265 31.6893C18.7287 31.7095 18.7388 31.7281 18.7546 31.741L20.9101 33.7C20.9173 33.7075 20.926 33.7134 20.9355 33.7174C20.9451 33.7214 20.9553 33.7235 20.9657 33.7235C20.976 33.7235 20.9863 33.7214 20.9958 33.7174C21.0054 33.7134 21.014 33.7075 21.0213 33.7C21.0276 33.6921 21.0324 33.683 21.0352 33.6732C21.0379 33.6634 21.0388 33.6532 21.0375 33.6431C21.0363 33.633 21.0331 33.6233 21.028 33.6145C21.023 33.6056 21.0162 33.5979 21.0081 33.5918L18.8525 31.6327Z" fill="#0279FC"/>
<path d="M14.2897 39.4723C14.2705 39.464 14.2488 39.4636 14.2293 39.4713C14.2099 39.479 14.1943 39.4941 14.1859 39.5133C14.181 39.5333 14.184 39.5544 14.1944 39.5721C14.2048 39.5899 14.2217 39.6029 14.2415 39.6084L16.9878 40.5769C17.0071 40.5849 17.0286 40.585 17.048 40.5774C17.0674 40.5698 17.083 40.5549 17.0917 40.536C17.0967 40.516 17.0939 40.4949 17.0838 40.4769C17.0738 40.4589 17.0572 40.4455 17.0375 40.4394L14.2897 39.4723Z" fill="#0279FC"/>
<path d="M34.0781 23.5118V22.4102H33.9319V22.1922C33.9513 22.1796 33.9719 22.1688 33.9933 22.16L34.0533 22.1293C34.0712 22.1191 34.0875 22.1063 34.1015 22.0912C34.1197 22.073 34.1346 22.0517 34.1454 22.0283H34.3647V23.5118H34.0781Z" fill="#0279FC"/>
<path d="M35.2877 22.409C35.2878 22.4746 35.2774 22.5398 35.257 22.6021C35.2359 22.6676 35.2064 22.7301 35.1693 22.7879C35.1313 22.8465 35.0947 22.8991 35.0596 22.943C35.0245 22.9869 34.9836 23.0396 34.9338 23.0893C34.8841 23.1391 34.849 23.1888 34.8271 23.2195H35.2877V23.5122H34.4995V23.2576L34.8593 22.7411C34.8812 22.7104 34.8987 22.6841 34.9119 22.6636C34.9251 22.6431 34.9397 22.6168 34.9558 22.5861C34.971 22.5578 34.9828 22.5278 34.9909 22.4968C34.9989 22.4682 35.0028 22.4387 35.0026 22.409C35.0047 22.3915 35.0047 22.3738 35.0026 22.3564C34.998 22.3389 34.9922 22.3217 34.985 22.3051C34.9766 22.2894 34.9646 22.2759 34.9499 22.2656C34.9353 22.2556 34.9179 22.2505 34.9002 22.251C34.8859 22.2506 34.8717 22.2541 34.8593 22.2613C34.8467 22.2683 34.8361 22.2783 34.8285 22.2905C34.8202 22.3037 34.8138 22.318 34.8095 22.3329C34.8033 22.3494 34.7993 22.3666 34.7978 22.3842C34.7978 22.4017 34.7978 22.4193 34.7978 22.4383C34.7978 22.4573 34.7978 22.4734 34.7978 22.4895C34.7978 22.5056 34.7978 22.5202 34.7978 22.5334V22.5539H34.5054V22.4602C34.5052 22.4112 34.5096 22.3622 34.5185 22.3139C34.5267 22.27 34.5415 22.2276 34.5624 22.1881C34.5801 22.1501 34.6055 22.1162 34.637 22.0886C34.6699 22.0603 34.7082 22.0389 34.7496 22.0257C34.7969 22.0109 34.8462 22.0035 34.8958 22.0038C34.9496 22.0002 35.0035 22.0081 35.0539 22.0271C35.1043 22.046 35.1501 22.0754 35.1883 22.1135C35.2583 22.1955 35.2939 22.3014 35.2877 22.409Z" fill="#0279FC"/>
<path d="M35.3978 23.0768V22.4653C35.3969 22.404 35.4048 22.3429 35.4212 22.2838C35.4359 22.2314 35.4596 22.1818 35.4914 22.1375C35.5235 22.0933 35.567 22.0584 35.6171 22.0366C35.674 22.0124 35.7352 22 35.797 22C35.8588 22 35.92 22.0124 35.9769 22.0366C36.027 22.0584 36.0704 22.0933 36.1026 22.1375C36.1341 22.182 36.1578 22.2315 36.1728 22.2838C36.1892 22.3429 36.197 22.404 36.1962 22.4653V23.0768C36.1964 23.1367 36.188 23.1963 36.1714 23.2538C36.1564 23.3068 36.1316 23.3564 36.0982 23.4001C36.0658 23.4445 36.0225 23.4797 35.9725 23.5026C35.9177 23.5285 35.8576 23.5415 35.797 23.5406C35.7359 23.5415 35.6754 23.5285 35.62 23.5026C35.5705 23.4798 35.5273 23.4451 35.4943 23.4016C35.4617 23.3576 35.4374 23.308 35.4226 23.2553C35.4057 23.1973 35.3974 23.1372 35.3978 23.0768ZM35.9081 23.0768V22.4653C35.9081 22.319 35.8716 22.2517 35.797 22.2517C35.7786 22.2513 35.7607 22.257 35.7458 22.2677C35.7324 22.2773 35.7214 22.2898 35.7136 22.3043C35.7056 22.3216 35.6997 22.3398 35.6961 22.3585C35.692 22.3767 35.6895 22.3953 35.6888 22.4141C35.6888 22.4287 35.6888 22.4462 35.6888 22.4653V23.0768C35.6888 23.0929 35.6888 23.1105 35.6888 23.1265C35.6906 23.1448 35.6935 23.1628 35.6975 23.1807C35.701 23.1996 35.7074 23.2179 35.7166 23.2348C35.7239 23.25 35.735 23.2631 35.7487 23.2729C35.7627 23.2833 35.7796 23.2889 35.797 23.2889C35.8186 23.2895 35.8396 23.2816 35.8555 23.267C35.8725 23.2512 35.8846 23.2309 35.8906 23.2085C35.8972 23.1865 35.9021 23.164 35.9052 23.1412C35.9067 23.1207 35.9081 23.0988 35.9081 23.0768Z" fill="#0279FC"/>
<mask id="mask0_1021_2406" style="mask-type:luminance" maskUnits="userSpaceOnUse" x="16" y="30" width="31" height="21">
<path d="M45.6878 33.4229C44.0201 32.4874 42.2241 31.7898 40.3542 31.3511C38.4562 30.9073 36.5017 30.7383 34.5534 30.8496C32.6384 30.9583 30.7502 31.3414 28.9492 31.9865C27.2345 32.6021 25.6188 33.4545 24.1515 34.5178C23.7968 34.772 23.4595 35.0408 23.131 35.3117C22.8025 35.5825 22.4914 35.8664 22.19 36.1517L21.9683 36.3684L21.8579 36.4762L21.7506 36.5866L21.5376 36.8057C21.4691 36.8806 21.4007 36.9548 21.3322 37.0284L21.2296 37.1392L21.13 37.2521L20.9323 37.4768L20.7445 37.705L20.65 37.8183L20.5581 37.9327L20.3759 38.1609L20.2003 38.3911L20.113 38.5054L20.0258 38.6218L19.8589 38.852C19.6428 39.1619 19.4349 39.4693 19.2429 39.7803C18.233 41.4088 17.4955 43.1843 17.0581 45.0398C16.936 45.5609 16.8436 46.0519 16.7784 46.5078C16.7604 46.6217 16.7481 46.7335 16.7337 46.8428C16.7265 46.8975 16.7193 46.9517 16.7127 47.0048C16.706 47.058 16.7019 47.1117 16.6962 47.1638C16.6856 47.2688 16.6754 47.3709 16.6654 47.4702C16.6555 47.5695 16.648 47.667 16.6428 47.7626C16.5999 48.3468 16.588 48.9327 16.6074 49.518C16.611 49.7186 16.6233 49.8746 16.628 49.9789C16.6326 50.0832 16.6377 50.1404 16.6377 50.1404L16.65 49.9824C16.6598 49.8786 16.668 49.7246 16.6911 49.524C16.7485 48.9467 16.8365 48.3727 16.955 47.8043L17.015 47.5229C17.0376 47.4269 17.0609 47.329 17.0848 47.229C17.0966 47.1789 17.109 47.1287 17.1208 47.0786C17.1326 47.0284 17.1485 46.9782 17.1623 46.9241C17.1906 46.8198 17.2168 46.7134 17.2486 46.6056C17.3703 46.1738 17.5222 45.7129 17.705 45.2299C18.1132 44.1552 18.6322 43.1238 19.2537 42.1515C19.6046 41.6015 19.9884 41.0721 20.4031 40.5662C20.6151 40.3039 20.843 40.0466 21.0771 39.7898L21.2568 39.5997L21.3471 39.504L21.44 39.4102L21.6269 39.2221L21.8194 39.037L21.9159 38.9437L22.015 38.853L22.2142 38.6704L22.4195 38.4914L22.5222 38.4016L22.6274 38.3138L22.8384 38.1383L23.055 37.9668L23.1639 37.8805L23.2747 37.7973L23.4975 37.6292C23.7994 37.4106 24.1084 37.1964 24.4287 36.9933C24.7491 36.7902 25.0766 36.5921 25.4159 36.4115C26.7923 35.6611 28.2718 35.1073 29.8091 34.767C31.3644 34.4234 32.9629 34.3051 34.5534 34.4159C36.112 34.5242 37.6457 34.8561 39.1052 35.4009C40.2177 35.8183 41.2774 36.3594 42.2633 37.0134L46.4327 33.8628C46.1899 33.7113 45.9419 33.5633 45.6878 33.4229Z" fill="white"/>
</mask>
<g mask="url(#mask0_1021_2406)">
<path d="M16.5879 36.2651L32.2249 30.7402H46.4337V39.692L16.8615 50.1404H16.5879V36.2651Z" fill="#0279FC"/>
</g>
<mask id="mask1_1021_2406" style="mask-type:luminance" maskUnits="userSpaceOnUse" x="44" y="34" width="13" height="17">
<path d="M48.8648 49.4085C48.8648 49.4205 48.8648 49.43 48.8648 49.4411C48.8648 49.4616 48.8648 49.4822 48.8612 49.5017C48.8612 49.5414 48.8571 49.579 48.8555 49.6146C48.836 49.9852 48.8258 50.1833 48.8258 50.1833L56.1224 50.093C56.1224 50.093 56.104 49.8608 56.0711 49.4265C56.0649 49.3613 56.0588 49.2921 56.0526 49.2194C56.049 49.1833 56.046 49.1462 56.0424 49.108C56.0424 49.089 56.0388 49.0699 56.0367 49.0509C56.0347 49.0318 56.0326 49.0143 56.03 48.9957C56.0122 48.8483 55.9927 48.6876 55.9715 48.5137C55.9459 48.3402 55.9202 48.1541 55.8884 47.9555C55.8714 47.8552 55.8535 47.7549 55.837 47.6501C55.8278 47.5999 55.8185 47.5443 55.8093 47.4901C55.8001 47.4359 55.7877 47.3818 55.777 47.3266C55.7549 47.2163 55.7318 47.1029 55.7087 46.9871C55.6856 46.8712 55.6574 46.7529 55.6291 46.6315C55.6153 46.5713 55.6009 46.5096 55.587 46.4479C55.5732 46.3862 55.5557 46.3241 55.5398 46.2609C55.5069 46.135 55.4761 46.0061 55.4371 45.8757C55.296 45.3531 55.1194 44.7944 54.9053 44.2086C54.4266 42.9035 53.8138 41.6491 53.0763 40.4647C52.6593 39.7945 52.2025 39.1487 51.7082 38.5308C51.4546 38.2098 51.1831 37.8954 50.9033 37.5809C50.8319 37.5037 50.7606 37.4259 50.6882 37.3482L50.5804 37.2313C50.5434 37.1932 50.5065 37.1546 50.469 37.1165L50.2457 36.8858L50.0152 36.6586L49.8997 36.5447L49.7811 36.4329L49.5424 36.2092L49.297 35.989L49.1738 35.8792L49.0481 35.7714L48.7945 35.5552L48.5316 35.3441L48.4012 35.2383L48.2678 35.1349C48.1784 35.0681 48.0891 34.9994 47.9998 34.9288C47.9146 34.8656 47.8289 34.8024 47.7431 34.7402L44.8684 39.1893L44.8838 39.2059L45.0532 39.3854L45.2175 39.568L45.2986 39.6587L45.3776 39.751L45.5347 39.9346C45.5861 39.9963 45.6374 40.0584 45.6887 40.1201L45.7637 40.2124L45.8366 40.3062L45.9808 40.4923L46.1199 40.6803L46.1887 40.7736L46.255 40.8679L46.3869 41.056C46.5568 41.3068 46.7211 41.5575 46.8699 41.8113C47.6613 43.129 48.2314 44.5622 48.5583 46.0562C48.6492 46.4745 48.7169 46.8677 48.7637 47.2328C48.7765 47.3236 48.7847 47.4139 48.795 47.5011C48.8001 47.5448 48.8052 47.5879 48.8099 47.6305C48.8145 47.6732 48.817 47.7158 48.8206 47.7579C48.8278 47.8417 48.8345 47.9234 48.8417 48.0032C48.8489 48.0829 48.8509 48.1607 48.8555 48.2369C48.8555 48.2745 48.8597 48.3121 48.8622 48.3487C48.8648 48.3853 48.8622 48.422 48.8658 48.4581C48.8658 48.5298 48.8704 48.599 48.873 48.6667C48.873 48.8016 48.873 48.928 48.8766 49.0459C48.8802 49.1637 48.873 49.272 48.8709 49.3718L48.8648 49.4085Z" fill="white"/>
</mask>
<g mask="url(#mask1_1021_2406)">
<path d="M44.8665 35.6766L47.5174 34.7402H54.6826L56.1215 38.6266V50.1728L56.0912 50.1833H44.8665V35.6766Z" fill="#0279FC"/>
<path d="M56.1215 38.6266L54.6826 34.7402H56.1215V38.6266Z" fill="#0279FC"/>
</g>
<path d="M43.1312 37.2357L31.5271 46.0744C30.8551 46.3265 30.2741 46.7693 29.8577 47.3468L29.7737 47.4675C29.3033 48.18 29.1056 49.034 29.2159 49.8769C29.3261 50.7199 29.7372 51.4966 30.3756 52.0684C31.014 52.6401 31.838 52.9695 32.7004 52.9976C33.5627 53.0257 34.4071 52.7508 35.0825 52.2219L35.1967 52.1284C35.3069 52.0347 35.4114 51.9346 35.5097 51.8288C35.8946 51.4129 36.174 50.9131 36.3251 50.3704L46.2895 34.8271L43.1312 37.2357ZM32.9331 50.8468C32.6141 50.8468 32.3024 50.7536 32.0372 50.5791C31.772 50.4046 31.5653 50.1565 31.4433 49.8662C31.3212 49.576 31.2893 49.2566 31.3515 48.9485C31.4137 48.6404 31.5673 48.3574 31.7928 48.1352C32.0183 47.9131 32.3057 47.7618 32.6185 47.7005C32.9313 47.6392 33.2555 47.6707 33.5502 47.7909C33.8448 47.9111 34.0967 48.1147 34.2739 48.3759C34.4511 48.6371 34.5456 48.9442 34.5456 49.2584C34.5456 49.6797 34.3757 50.0837 34.0733 50.3815C33.7709 50.6794 33.3608 50.8468 32.9331 50.8468Z" fill="#0279FC"/>
</svg>
