<svg width="30" height="30" viewBox="0 0 30 30" fill="none" xmlns="http://www.w3.org/2000/svg">
<g id="Group 34163">
<path id="Vector" d="M10.7141 12.857C11.8976 12.857 12.857 11.8976 12.857 10.7141C12.857 9.53068 11.8976 8.57129 10.7141 8.57129C9.53068 8.57129 8.57129 9.53068 8.57129 10.7141C8.57129 11.8976 9.53068 12.857 10.7141 12.857Z" fill="black"/>
<path id="Vector_2" d="M19.2854 12.857C20.4689 12.857 21.4283 11.8976 21.4283 10.7141C21.4283 9.53068 20.4689 8.57129 19.2854 8.57129C18.102 8.57129 17.1426 9.53068 17.1426 10.7141C17.1426 11.8976 18.102 12.857 19.2854 12.857Z" fill="black"/>
<path id="Vector_3" d="M15 30C6.72857 30 0 23.2714 0 15C0 6.72857 6.72857 0 15 0C23.2714 0 30 6.72857 30 15C30 23.2714 23.2714 30 15 30ZM15 2.14286C7.90714 2.14286 2.14286 7.90714 2.14286 15C2.14286 22.0929 7.90714 27.8571 15 27.8571C22.0929 27.8571 27.8571 22.0929 27.8571 15C27.8571 7.90714 22.0929 2.14286 15 2.14286Z" fill="black"/>
<path id="Vector_4" d="M21.0641 22.4999C20.6141 22.4999 20.207 22.2213 20.057 21.7927C19.6884 20.7458 19.004 19.8391 18.0981 19.1977C17.1923 18.5563 16.1098 18.2118 14.9999 18.2118C13.8899 18.2118 12.8074 18.5563 11.9016 19.1977C10.9957 19.8391 10.3113 20.7458 9.94271 21.7927C9.74986 22.3499 9.12843 22.6499 8.57128 22.4356C8.43785 22.3894 8.31502 22.3169 8.21007 22.2225C8.10511 22.128 8.02016 22.0135 7.96023 21.8856C7.9003 21.7578 7.8666 21.6192 7.86114 21.4781C7.85568 21.337 7.87856 21.1962 7.92843 21.0641C8.97843 18.0641 11.8284 16.0713 14.9999 16.0713C18.1713 16.0713 21.0213 18.0856 22.0713 21.0641C22.1293 21.2259 22.1475 21.3992 22.1246 21.5695C22.1017 21.7398 22.0382 21.9022 21.9395 22.0428C21.8408 22.1835 21.7098 22.2984 21.5575 22.378C21.4052 22.4575 21.236 22.4993 21.0641 22.4999Z" fill="black"/>
</g>
</svg>
