<svg width="53" height="29" viewBox="0 0 53 29" fill="none" xmlns="http://www.w3.org/2000/svg">
<path d="M14.7769 7.6047C14.6633 7.79332 14.5646 7.99059 14.482 8.19469C14.3754 8.51427 14.3345 8.67816 14.3017 8.7683C14.1212 8.70118 13.9279 8.67597 13.7363 8.69455C13.5724 8.76011 13.5396 8.92399 13.3429 8.97316C13.0661 8.97693 12.7901 8.94106 12.5235 8.86663C12.0318 8.78468 11.5238 8.71913 11.0321 8.60441C10.6909 8.50477 10.3987 8.28192 10.2125 7.97909C10.0263 7.67626 9.95917 7.31505 10.0242 6.96554C10.0734 6.27721 10.7699 6.04776 11.3271 5.96582C11.8843 5.88388 12.63 5.62165 13.1545 5.96582C13.9329 6.35915 13.6379 7.77678 14.7769 7.6047Z" fill="#0279FC"/>
<path d="M51.8075 13.0209C51.8075 12.3326 50.1686 10.8576 49.7098 10.4069C49.1627 9.89784 48.5883 9.41912 47.9889 8.97285C47.7759 8.84174 47.7349 8.84175 47.6776 8.71064C47.6202 8.57953 47.6038 8.44841 47.4973 8.12883C47.4146 7.92473 47.3159 7.72745 47.2023 7.53883C46.2845 5.89996 43.6049 1.73721 43.3837 1.50776C42.9275 1.03408 42.3393 0.708593 41.6956 0.573605C40.8762 0.4343 32.5507 0 30.9856 0C29.4205 0 21.095 0.450688 20.2673 0.598187C19.6412 0.737202 19.0706 1.05956 18.6285 1.52416C18.4072 1.7536 15.7276 5.89996 14.8181 7.56342C14.7077 7.75383 14.6092 7.95087 14.5231 8.15341C14.4165 8.48119 14.3756 8.64508 14.3428 8.73522C14.2525 8.85151 14.1378 8.94661 14.0068 9.01383C13.4215 9.40276 12.8729 9.84436 12.368 10.3331C11.6059 11.1526 10.3029 12.3407 10.2702 13.0291C10.0955 13.8672 10.0104 14.7214 10.0161 15.5775C10.0161 16.2413 10.2292 18.2571 10.4095 20.1746C10.5898 22.0921 10.7864 24.0997 10.8028 24.2718C10.8028 24.5668 10.7373 24.8946 10.8684 25.1486C10.9995 25.4026 11.3273 25.4845 11.8435 25.4763L16.121 25.5337L31.0921 25.7222L46.3337 25.5009L50.3407 25.4436C50.857 25.4436 51.1602 25.378 51.3241 25.1158C51.4879 24.8536 51.3241 24.534 51.3814 24.239C51.4388 23.944 51.742 20.5843 51.9632 18.044C52.0616 16.9214 52.1353 15.9791 52.1599 15.5857C52.132 14.7208 52.0139 13.8612 51.8075 13.0209ZM48.6035 12.5128C49.341 12.5128 49.4885 12.4145 49.636 13.0946C49.7343 13.5648 49.7343 14.0503 49.636 14.5205C49.341 15.9381 47.5382 15.9381 46.3583 15.9381C44.2031 15.9381 42.3348 16.4789 40.6222 13.4798C42.1562 13.1726 43.708 12.9618 45.2684 12.8488C46.3676 12.6367 47.4841 12.527 48.6035 12.521V12.5128ZM19.0136 1.72902L30.9938 1.31111L42.9494 1.70443C42.9494 1.70443 47.2678 8.42383 46.9401 8.42383C46.6123 8.42383 35.8367 7.81744 30.9856 7.92397C26.1427 7.82564 15.3425 8.44841 15.0393 8.44841C14.7361 8.44841 19.0136 1.72902 19.0136 1.72902ZM12.3515 13.1274C12.499 12.4473 12.6465 12.5456 13.3758 12.5374C14.4916 12.5407 15.6048 12.6422 16.7028 12.8406C18.2631 12.9503 19.8149 13.1583 21.349 13.4634C19.6528 16.5035 17.7844 15.9709 15.6129 15.9709C14.4411 15.9709 12.6302 15.9709 12.3352 14.5532C12.2422 14.0819 12.2478 13.5965 12.3515 13.1274ZM20.0379 24.0833C18.9963 24.284 17.9336 24.3528 16.8749 24.2882H16.0554H13.9822H13.0481C11.8763 24.2882 11.6796 23.8948 11.9418 22.723C12.204 21.9036 12.0402 21.0842 12.917 20.74C13.8101 20.591 14.7167 20.5388 15.6211 20.5843H16.0554C16.4897 20.5843 16.9486 20.5843 17.4157 20.6253H18.2351H18.5383H18.989H19.4315H19.8576L20.4722 20.6908L20.8491 20.74H21.1523H21.2916H21.4719H21.5375H21.6604H21.8407C21.5047 22.1412 21.2179 23.69 20.0379 24.0833ZM38.885 22.5837C38.4671 23.7555 36.8364 23.5998 36.6725 23.5998H25.356C25.2003 23.5998 23.5615 23.7637 23.1436 22.5919C22.7257 21.4201 22.0619 19.519 21.8325 18.5767C21.603 17.6343 20.7836 15.8807 25.5855 15.9872C28.0438 16.0364 29.8466 16.0364 30.9938 15.9872C32.141 15.9381 33.9356 15.9872 36.4103 15.9463C41.204 15.8316 40.4091 17.536 40.1633 18.5275C39.9175 19.519 39.2865 21.4119 38.885 22.5837ZM49.0051 24.2226C48.0709 24.2226 47.1777 24.2226 46.2681 24.2718H45.1455C44.0898 24.3394 43.0298 24.2733 41.9907 24.0751C40.8189 23.6818 40.5157 22.133 40.1961 21.0268L40.4501 20.9694L40.827 20.9039L41.0893 20.8629H41.1794L41.5482 20.8137L41.9333 20.7646L42.9412 20.6744H43.2362C43.7688 20.6744 44.3179 20.6007 44.8751 20.5843H45.293H45.5962H45.9567H46.2599C47.2185 20.5283 48.1802 20.5778 49.128 20.7318C50.0048 21.0596 49.8491 21.8626 50.1113 22.7148C50.3571 23.8129 50.1523 24.2062 48.9805 24.2062L49.0051 24.2226Z" fill="#0566CE"/>
<path d="M16.0308 26.3532V28.6067C16.0308 28.7096 15.9905 28.8084 15.9185 28.8819C15.8465 28.9555 15.7486 28.9978 15.6457 29H10.729C10.6247 29 10.5247 28.9585 10.4509 28.8848C10.3771 28.811 10.3357 28.711 10.3357 28.6067V25.8779C10.7337 26.1814 11.2298 26.3273 11.7287 26.2876L16.0308 26.345V26.3532Z" fill="#0279FC"/>
<path d="M51.9959 25.501V28.5739C51.997 28.6258 51.9876 28.6775 51.9682 28.7257C51.9489 28.7739 51.9199 28.8177 51.8832 28.8545C51.8464 28.8912 51.8026 28.9202 51.7544 28.9395C51.7062 28.9589 51.6545 28.9683 51.6025 28.9672H46.6859C46.5823 28.9651 46.4834 28.923 46.4101 28.8497C46.3368 28.7764 46.2947 28.6775 46.2926 28.5739V26.3122L50.2996 26.2549C50.6241 26.2939 50.9531 26.2445 51.2517 26.1118C51.5503 25.9791 51.8075 25.768 51.9959 25.501Z" fill="#0279FC"/>
<path d="M15.5882 22.4201C15.5882 22.7151 15.5008 23.0034 15.3369 23.2487C15.173 23.4939 14.9401 23.6851 14.6676 23.7979C14.3951 23.9108 14.0952 23.9404 13.8059 23.8828C13.5166 23.8253 13.2509 23.6832 13.0423 23.4747C12.8337 23.2661 12.6917 23.0003 12.6341 22.711C12.5766 22.4217 12.6061 22.1219 12.719 21.8494C12.8319 21.5769 13.023 21.3439 13.2683 21.1801C13.5135 21.0162 13.8019 20.9287 14.0969 20.9287C14.4924 20.9287 14.8717 21.0858 15.1514 21.3655C15.4311 21.6452 15.5882 22.0246 15.5882 22.4201Z" fill="#0279FC"/>
<path d="M50.9224 8.53064C50.439 8.64537 49.9227 8.71912 49.4392 8.80106C49.1718 8.87259 48.8966 8.91112 48.6198 8.91578C48.4231 8.85842 48.3904 8.70272 48.2265 8.63716C48.0375 8.60974 47.8446 8.63528 47.6693 8.71092C47.6283 8.62078 47.5873 8.45689 47.4808 8.12911C47.3947 7.92657 47.2962 7.72953 47.1858 7.53912C48.3248 7.74398 48.0052 6.32635 48.8247 5.90024C49.3409 5.58885 50.0948 5.83468 50.652 5.90024C51.2092 5.96579 51.9058 6.21163 51.9549 6.89177C52.0208 7.24476 51.9511 7.60961 51.7597 7.91344C51.5683 8.21726 51.2693 8.43768 50.9224 8.53064Z" fill="#0279FC"/>
<path d="M18.153 22.4116C18.1546 22.623 18.0933 22.8301 17.9769 23.0065C17.8604 23.1829 17.6941 23.3207 17.4992 23.4024C17.3042 23.484 17.0893 23.5058 16.8819 23.465C16.6745 23.4241 16.4839 23.3225 16.3345 23.173C16.185 23.0236 16.0834 22.833 16.0425 22.6256C16.0017 22.4182 16.0235 22.2033 16.1051 22.0083C16.1867 21.8134 16.3246 21.6471 16.501 21.5306C16.6774 21.4142 16.8845 21.3529 17.0959 21.3545C17.2347 21.3545 17.3722 21.3819 17.5004 21.435C17.6287 21.4881 17.7452 21.566 17.8434 21.6641C17.9415 21.7623 18.0194 21.8788 18.0725 22.0071C18.1256 22.1353 18.153 22.2728 18.153 22.4116Z" fill="#0279FC"/>
<path d="M49.2999 22.3547C49.2999 22.6497 49.2124 22.938 49.0486 23.1833C48.8847 23.4285 48.6518 23.6197 48.3792 23.7325C48.1067 23.8454 47.8069 23.875 47.5176 23.8174C47.2283 23.7599 46.9625 23.6178 46.7539 23.4093C46.5454 23.2007 46.4033 22.9349 46.3458 22.6456C46.2883 22.3563 46.3178 22.0565 46.4307 21.784C46.5435 21.5114 46.7347 21.2785 46.98 21.1147C47.2252 20.9508 47.5136 20.8633 47.8085 20.8633C48.0047 20.8622 48.1991 20.9001 48.3805 20.9746C48.562 21.0492 48.7268 21.159 48.8655 21.2977C49.0042 21.4364 49.114 21.6013 49.1886 21.7827C49.2631 21.9641 49.301 22.1585 49.2999 22.3547Z" fill="#0279FC"/>
<path d="M45.7271 22.355C45.7287 22.566 45.6676 22.7727 45.5515 22.949C45.4355 23.1253 45.2697 23.2631 45.0752 23.345C44.8807 23.4268 44.6662 23.4491 44.4591 23.4089C44.2519 23.3688 44.0613 23.268 43.9115 23.1193C43.7617 22.9707 43.6594 22.7809 43.6176 22.574C43.5759 22.3671 43.5965 22.1525 43.6769 21.9574C43.7572 21.7623 43.8938 21.5954 44.0691 21.478C44.2445 21.3606 44.4508 21.2979 44.6618 21.2979C44.8013 21.2968 44.9396 21.3233 45.0688 21.376C45.198 21.4286 45.3155 21.5063 45.4146 21.6046C45.5136 21.7028 45.5922 21.8197 45.6458 21.9485C45.6995 22.0773 45.7271 22.2154 45.7271 22.355Z" fill="#0279FC"/>
<rect y="6" width="24" height="21" rx="5" fill="#DBDBDB"/>
<path d="M22.0005 6.25055H18.7504V4.75052C18.7505 4.5516 18.6716 4.36078 18.5311 4.22003C18.3905 4.07928 18.1998 4.00013 18.0009 4C17.802 3.99987 17.6111 4.07876 17.4704 4.21932C17.3296 4.35988 17.2505 4.5506 17.2504 4.74952V6.25055H12.7503V4.75052C12.7503 4.65202 12.731 4.55448 12.6934 4.46346C12.6557 4.37244 12.6005 4.28972 12.5309 4.22003C12.4613 4.15034 12.3787 4.09504 12.2877 4.05728C12.1968 4.01953 12.0992 4.00007 12.0008 4C11.8018 3.99987 11.611 4.07876 11.4703 4.21932C11.3295 4.35988 11.2504 4.5506 11.2502 4.74952V6.25055H6.75014V4.75052C6.75021 4.65202 6.73087 4.55448 6.69324 4.46346C6.65561 4.37244 6.60042 4.28972 6.53082 4.22003C6.46122 4.15034 6.37858 4.09504 6.28761 4.05728C6.19663 4.01953 6.09912 4.00007 6.00063 4C5.80171 3.99987 5.61089 4.07876 5.47014 4.21932C5.32939 4.35988 5.25024 4.5506 5.25011 4.74952V6.25055H2.00004C1.46977 6.25055 0.961204 6.46113 0.586152 6.83599C0.2111 7.21086 0.000265135 7.71932 0 8.24959V26C0 26.5304 0.210718 27.0391 0.585799 27.4142C0.960879 27.7893 1.4696 28 2.00004 28H22.0005C22.5309 28 23.0396 27.7893 23.4147 27.4142C23.7898 27.0391 24.0005 26.5304 24.0005 26V8.24959C24.0002 7.71932 23.7894 7.21086 23.4143 6.83599C23.0393 6.46113 22.5307 6.25055 22.0005 6.25055ZM22.5005 26.001C22.5005 26.1334 22.4479 26.2604 22.3544 26.3542C22.2608 26.4479 22.1339 26.5007 22.0015 26.501H2.00004C1.86743 26.501 1.74025 26.4483 1.64648 26.3545C1.55271 26.2607 1.50003 26.1336 1.50003 26.001V8.25059C1.5003 8.11815 1.55309 7.99123 1.64683 7.89767C1.74058 7.80412 1.8676 7.75158 2.00004 7.75158H5.25011V9.25161C5.24998 9.45053 5.32887 9.64135 5.46943 9.7821C5.60999 9.92285 5.80071 10.002 5.99962 10.0021C6.19854 10.0023 6.38936 9.92337 6.53011 9.7828C6.67086 9.64224 6.75001 9.45153 6.75014 9.25261V7.75158H11.2502V9.25161C11.2501 9.45053 11.329 9.64135 11.4696 9.7821C11.6101 9.92285 11.8008 10.002 11.9998 10.0021C12.1987 10.0023 12.3895 9.92337 12.5302 9.7828C12.671 9.64224 12.7501 9.45153 12.7503 9.25261V7.75158H17.2504V9.25161C17.2502 9.45053 17.3291 9.64135 17.4697 9.7821C17.6102 9.92285 17.801 10.002 17.9999 10.0021C18.1988 10.0023 18.3896 9.92337 18.5304 9.7828C18.6711 9.64224 18.7503 9.45153 18.7504 9.25261V7.75158H22.0005C22.1327 7.75184 22.2595 7.8045 22.353 7.89803C22.4465 7.99155 22.4992 8.11832 22.4995 8.25059L22.5005 26.001Z" fill="#007AFF"/>
<path d="M5.25 13.001H8.25006V15.251H5.25V13.001ZM5.25 16.7511H8.25006V19.0011H5.25V16.7511ZM5.25 20.5011H8.25006V22.7512H5.25V20.5011ZM10.5001 20.5011H13.5002V22.7512H10.5001V20.5011ZM10.5001 16.7511H13.5002V19.0011H10.5001V16.7511ZM10.5001 13.001H13.5002V15.251H10.5001V13.001ZM15.7502 20.5011H18.7503V22.7512H15.7502V20.5011ZM15.7502 16.7511H18.7503V19.0011H15.7502V16.7511ZM15.7502 13.001H18.7503V15.251H15.7502V13.001Z" fill="#007AFF"/>
</svg>
