<svg width="14" height="13" viewBox="0 0 14 13" fill="none" xmlns="http://www.w3.org/2000/svg">
<path id="Vector" d="M13.0218 4.99995C13.0194 4.44746 12.57 4.00191 12.0175 4.00432L8.0175 4.02177L7.5175 4.02395L4.26753 4.03813C4.91146 2.75931 5.00943 2.17938 5.00662 1.53488C5.00336 0.786844 4.71145 0.0410274 3.75693 0.0412953L2.75991 2.29469L1.18869 3.87968C0.441965 4.63295 0.0245348 5.65288 0.0291629 6.71387L0.0437441 10.0566C0.0485619 11.1611 0.94796 12.0527 2.05245 12.0479L7.0524 12.0261C7.31762 12.0249 7.57151 11.9184 7.75822 11.7301C7.94494 11.5417 8.04919 11.2869 8.04803 11.0217C8.04692 10.8322 7.99198 10.6469 7.88962 10.4874C7.78726 10.328 7.6417 10.2008 7.46988 10.1209C7.5127 10.0574 7.54367 10.0239 7.54367 10.0239C7.80889 10.0227 8.06278 9.91627 8.24949 9.72792C8.43621 9.53957 8.54046 9.28476 8.5393 9.01954C8.53814 8.75433 8.43168 8.50044 8.24333 8.31372C8.05497 8.127 7.80016 8.02276 7.53495 8.02391L8.03494 8.02173C8.58744 8.01932 9.03298 7.56988 9.03057 7.01738C9.02816 6.46489 8.57871 6.01934 8.02622 6.02175L12.0262 6.0043C12.5787 6.00189 13.0242 5.55245 13.0218 4.99995ZM3.75693 0.0412953L3.75692 0.0403188L3.75009 0.0403486C3.75259 0.0403377 3.75443 0.0412961 3.75693 0.0412953Z" fill="#0279FC"/>
</svg>
