<svg width="10" height="14" viewBox="0 0 10 14" fill="none" xmlns="http://www.w3.org/2000/svg">
<path id="Vector" d="M10 3.49837C10 3.71249 9.91686 3.91783 9.76887 4.06923C9.62089 4.22063 9.42017 4.30569 9.21089 4.30569H7.36961C7.3684 5.44725 6.9246 6.54169 6.13559 7.3489C5.34659 8.1561 4.27682 8.61013 3.161 8.61138H2.8322L7.10658 12.5888C7.18469 12.6597 7.24828 12.7457 7.29364 12.8419C7.33901 12.9382 7.36526 13.0426 7.37087 13.1493C7.37648 13.256 7.36134 13.3628 7.32632 13.4634C7.29131 13.564 7.23712 13.6566 7.16688 13.7356C7.09665 13.8147 7.01178 13.8787 6.91719 13.924C6.8226 13.9692 6.72017 13.9948 6.61584 13.9993C6.5115 14.0038 6.40734 13.987 6.30939 13.95C6.21144 13.9129 6.12165 13.8564 6.04522 13.7836L0.258366 8.40148C0.14021 8.29161 0.0574109 8.14766 0.0209041 7.98864C-0.0156028 7.82962 -0.00409948 7.66301 0.0538945 7.51081C0.111889 7.35862 0.213645 7.22801 0.345723 7.13622C0.477801 7.04444 0.633986 6.99581 0.793649 6.99675H3.161C3.85862 6.99675 4.52767 6.71322 5.02096 6.20855C5.51425 5.70388 5.79138 5.0194 5.79138 4.30569H0.793649C0.584363 4.30569 0.383648 4.22063 0.23566 4.06923C0.0876721 3.91783 0.0045334 3.71249 0.0045334 3.49837C0.0045334 3.28426 0.0876721 3.07891 0.23566 2.92751C0.383648 2.77611 0.584363 2.69106 0.793649 2.69106H5.26531C5.02029 2.35684 4.70258 2.08557 4.33734 1.89874C3.9721 1.7119 3.56935 1.61463 3.161 1.61463H0.793649C0.584363 1.61463 0.383648 1.52958 0.23566 1.37818C0.0876721 1.22677 0.0045334 1.02143 0.0045334 0.807317C0.0045334 0.593203 0.0876721 0.387859 0.23566 0.236458C0.383648 0.0850564 0.584363 0 0.793649 0H9.21089C9.42017 0 9.62089 0.0850564 9.76887 0.236458C9.91686 0.387859 10 0.593203 10 0.807317C10 1.02143 9.91686 1.22677 9.76887 1.37818C9.62089 1.52958 9.42017 1.61463 9.21089 1.61463H6.44306C6.69913 1.94081 6.90736 2.30343 7.0612 2.69106H9.21089C9.42017 2.69106 9.62089 2.77611 9.76887 2.92751C9.91686 3.07891 10 3.28426 10 3.49837Z" fill="white"/>
</svg>
