<svg width="10" height="10" viewBox="0 0 10 10" fill="none" xmlns="http://www.w3.org/2000/svg">
<path id="Vector" d="M5.69105 1.57767L6.39498 2.99715C6.49097 3.19475 6.74694 3.38428 6.96291 3.42057L8.23877 3.6343C9.05468 3.77141 9.24666 4.36824 8.65873 4.957L7.66684 5.95709C7.49885 6.12645 7.40686 6.4531 7.45886 6.68699L7.74283 7.925C7.9668 8.90492 7.45086 9.28399 6.59095 8.77185L5.39509 8.05808C5.17911 7.92903 4.82315 7.92903 4.60317 8.05808L3.40731 8.77185C2.5514 9.28399 2.03146 8.90089 2.25543 7.925L2.5394 6.68699C2.5914 6.4531 2.49941 6.12645 2.33143 5.95709L1.33954 4.957C0.7556 4.36824 0.943579 3.77141 1.75949 3.6343L3.03535 3.42057C3.24732 3.38428 3.5033 3.19475 3.59929 2.99715L4.30321 1.57767C4.68717 0.807443 5.3111 0.807443 5.69105 1.57767Z" fill="#E4DC0A" stroke="#363636" stroke-width="0.8" stroke-linecap="round" stroke-linejoin="round"/>
</svg>
