<svg width="69" height="69" viewBox="0 0 69 69" fill="none" xmlns="http://www.w3.org/2000/svg">
<path d="M34.5 5.75C18.6587 5.75 5.75 18.6587 5.75 34.5C5.75 50.3412 18.6587 63.25 34.5 63.25C50.3412 63.25 63.25 50.3412 63.25 34.5C63.25 18.6587 50.3412 5.75 34.5 5.75ZM48.2425 27.8875L31.9412 44.1887C31.5387 44.5912 30.9925 44.8212 30.4175 44.8212C29.8425 44.8212 29.2962 44.5912 28.8937 44.1887L20.7575 36.0525C19.9237 35.2187 19.9237 33.8387 20.7575 33.005C21.5912 32.1712 22.9712 32.1712 23.805 33.005L30.4175 39.6175L45.195 24.84C46.0287 24.0062 47.4087 24.0062 48.2425 24.84C49.0762 25.6737 49.0762 27.025 48.2425 27.8875Z" fill="#0279FC"/>
</svg>
