<svg width="96" height="46" viewBox="0 0 96 46" fill="none" xmlns="http://www.w3.org/2000/svg">
<path d="M77.6025 14.1934H75.9712V43.6096H77.6025V14.1934Z" fill="#0566CE"/>
<path d="M20.1039 14.1934H18.4727V43.6096H20.1039V14.1934Z" fill="#0566CE"/>
<path d="M31.4178 2.32564H26.9551C26.9965 1.7497 27.2445 1.20761 27.6539 0.797751C28.0633 0.387891 28.607 0.13742 29.1864 0.0917969C29.4933 0.0976032 29.7952 0.170382 30.0706 0.304977C30.346 0.439571 30.5883 0.632687 30.7803 0.870647C31.13 1.28412 31.3515 1.78957 31.4178 2.32564Z" fill="#0566CE"/>
<path d="M31.4437 24.9385V25.4178C31.4963 26.0674 31.2888 26.7114 30.8661 27.2098C30.4435 27.7082 29.8399 28.0208 29.1865 28.0796C28.8796 28.0737 28.5778 28.001 28.3024 27.8664C28.0269 27.7318 27.7847 27.5387 27.5927 27.3007C27.1571 26.7692 26.9224 26.1031 26.9293 25.4178V24.9385H31.4437Z" fill="#0566CE"/>
<path d="M32.9426 7.767H30.806L33.1235 8.62288L33.3044 8.70847C33.507 8.79011 33.6746 8.9394 33.7782 9.13061C33.8819 9.32181 33.9151 9.54295 33.8723 9.75591C33.8294 9.96886 33.7131 10.1603 33.5433 10.2972C33.3736 10.4341 33.1612 10.5079 32.9426 10.5058H30.806L33.1235 11.3617L33.3044 11.4473C33.507 11.5289 33.6746 11.6782 33.7782 11.8694C33.8819 12.0606 33.9151 12.2818 33.8723 12.4947C33.8294 12.7077 33.7131 12.8991 33.5433 13.036C33.3736 13.1729 33.1612 13.2467 32.9426 13.2446H30.806L33.0977 14.1005C33.1679 14.1261 33.2346 14.1606 33.2958 14.2032C33.4931 14.2881 33.655 14.4377 33.7545 14.6269C33.8541 14.8162 33.8853 15.0336 33.843 15.243C33.8006 15.4523 33.6873 15.6409 33.5219 15.7772C33.3564 15.9135 33.1489 15.9894 32.934 15.992H30.806L33.1235 16.8479L33.2958 16.9335C33.4715 16.9991 33.6231 17.1159 33.7308 17.2687C33.8384 17.4214 33.897 17.6029 33.8989 17.7894C33.8989 18.0368 33.8 18.2741 33.6239 18.449C33.4477 18.624 33.2089 18.7223 32.9598 18.7223H30.806L33.1235 19.5781L33.3044 19.6637C33.5016 19.7487 33.6636 19.8982 33.7631 20.0875C33.8627 20.2767 33.894 20.4941 33.8516 20.7035C33.8093 20.9128 33.6959 21.1014 33.5305 21.2377C33.365 21.3741 33.1575 21.4499 32.9426 21.4525H30.806L33.1235 22.3084L33.3044 22.394C33.507 22.4756 33.6746 22.6249 33.7782 22.8161C33.8819 23.0073 33.9151 23.2285 33.8723 23.4414C33.8294 23.6544 33.7131 23.8458 33.5433 23.9827C33.3736 24.1196 33.1612 24.1934 32.9426 24.1913H25.1199C24.9885 24.2038 24.8559 24.1889 24.7305 24.1475C24.6052 24.1061 24.49 24.0391 24.3923 23.9508C24.2946 23.8626 24.2165 23.755 24.1631 23.6351C24.1096 23.5151 24.082 23.3853 24.082 23.2541C24.082 23.1229 24.1096 22.9932 24.1631 22.8732C24.2165 22.7532 24.2946 22.6457 24.3923 22.5574C24.49 22.4692 24.6052 22.4022 24.7305 22.3608C24.8559 22.3194 24.9885 22.3045 25.1199 22.317H27.5925L25.2233 21.4611H25.1199C24.8709 21.4611 24.632 21.3628 24.4559 21.1878C24.2798 21.0129 24.1809 20.7756 24.1809 20.5282C24.1809 20.2807 24.2798 20.0435 24.4559 19.8685C24.632 19.6935 24.8709 19.5953 25.1199 19.5953H27.6098L25.2492 18.7394H25.1199C24.9885 18.7519 24.8559 18.7369 24.7305 18.6955C24.6052 18.6541 24.49 18.5871 24.3923 18.4989C24.2946 18.4106 24.2165 18.3031 24.1631 18.1831C24.1096 18.0631 24.082 17.9334 24.082 17.8022C24.082 17.671 24.1096 17.5412 24.1631 17.4213C24.2165 17.3013 24.2946 17.1937 24.3923 17.1055C24.49 17.0172 24.6052 16.9503 24.7305 16.9089C24.8559 16.8674 24.9885 16.8525 25.1199 16.865H27.5925L25.2233 16.0091H25.1199C24.8709 16.0091 24.632 15.9108 24.4559 15.7359C24.2798 15.5609 24.1809 15.3236 24.1809 15.0762C24.1809 14.8288 24.2798 14.5915 24.4559 14.4165C24.632 14.2416 24.8709 14.1433 25.1199 14.1433H27.6098L25.2492 13.2874H25.1199C24.9885 13.2999 24.8559 13.285 24.7305 13.2436C24.6052 13.2021 24.49 13.1352 24.3923 13.0469C24.2946 12.9587 24.2165 12.8511 24.1631 12.7312C24.1096 12.6112 24.082 12.4814 24.082 12.3502C24.082 12.219 24.1096 12.0893 24.1631 11.9693C24.2165 11.8493 24.2946 11.7418 24.3923 11.6535C24.49 11.5653 24.6052 11.4983 24.7305 11.4569C24.8559 11.4155 24.9885 11.4006 25.1199 11.413H27.6098L25.2492 10.5572H25.1199C24.9885 10.5697 24.8559 10.5547 24.7305 10.5133C24.6052 10.4719 24.49 10.4049 24.3923 10.3167C24.2946 10.2284 24.2165 10.1209 24.1631 10.0009C24.1096 9.88092 24.082 9.75118 24.082 9.61998C24.082 9.48879 24.1096 9.35904 24.1631 9.23906C24.2165 9.11908 24.2946 9.01153 24.3923 8.92328C24.49 8.83504 24.6052 8.76806 24.7305 8.72665C24.8559 8.68524 24.9885 8.6703 25.1199 8.68279H27.5925L25.2233 7.82691H25.1199C24.8709 7.82691 24.632 7.72863 24.4559 7.55367C24.2798 7.37872 24.1809 7.14143 24.1809 6.894C24.1809 6.64658 24.2798 6.4093 24.4559 6.23434C24.632 6.05939 24.8709 5.9611 25.1199 5.9611H27.6098L25.2492 5.10522H25.1199C24.9885 5.11771 24.8559 5.10277 24.7305 5.06136C24.6052 5.01994 24.49 4.95297 24.3923 4.86473C24.2946 4.77648 24.2165 4.66893 24.1631 4.54895C24.1096 4.42897 24.082 4.29922 24.082 4.16803C24.082 4.03683 24.1096 3.90709 24.1631 3.78711C24.2165 3.66713 24.2946 3.55957 24.3923 3.47133C24.49 3.38309 24.6052 3.31611 24.7305 3.2747C24.8559 3.23329 24.9885 3.21835 25.1199 3.23084H32.9426C33.1773 3.25314 33.3951 3.36152 33.5536 3.53481C33.7122 3.7081 33.8 3.93386 33.8 4.16803C33.8 4.4022 33.7122 4.62796 33.5536 4.80125C33.3951 4.97454 33.1773 5.08292 32.9426 5.10522H30.806L33.1235 5.9611L33.3044 6.04669C33.5016 6.13161 33.6636 6.28118 33.7631 6.47041C33.8627 6.65964 33.894 6.87709 33.8516 7.08644C33.8093 7.29578 33.6959 7.48436 33.5305 7.62069C33.365 7.75701 33.1575 7.83282 32.9426 7.83547V7.767Z" fill="#0566CE"/>
<path d="M67.8804 2.32564H63.4177C63.4592 1.7497 63.7071 1.20761 64.1165 0.797751C64.5259 0.387891 65.0697 0.13742 65.6491 0.0917969C65.956 0.0976032 66.2578 0.170382 66.5333 0.304977C66.8087 0.439571 67.051 0.632687 67.2429 0.870647C67.5927 1.28412 67.8141 1.78957 67.8804 2.32564Z" fill="#0566CE"/>
<path d="M67.9064 24.9385V25.4178C67.959 26.0674 67.7514 26.7114 67.3288 27.2098C66.9061 27.7082 66.3025 28.0208 65.6492 28.0796C65.3423 28.0737 65.0405 28.001 64.765 27.8664C64.4896 27.7318 64.2473 27.5387 64.0554 27.3007C63.6198 26.7692 63.3851 26.1031 63.392 25.4178V24.9385H67.9064Z" fill="#0566CE"/>
<path d="M69.4053 7.767H67.2687L69.5862 8.62288L69.7671 8.70847C69.9697 8.79011 70.1372 8.9394 70.2409 9.13061C70.3445 9.32181 70.3778 9.54295 70.3349 9.75591C70.292 9.96886 70.1757 10.1603 70.006 10.2972C69.8363 10.4341 69.6239 10.5079 69.4053 10.5058H67.2687L69.5862 11.3617L69.7671 11.4473C69.9697 11.5289 70.1372 11.6782 70.2409 11.8694C70.3445 12.0606 70.3778 12.2818 70.3349 12.4947C70.292 12.7077 70.1757 12.8991 70.006 13.036C69.8363 13.1729 69.6239 13.2467 69.4053 13.2446H67.2687L69.5603 14.1005C69.6306 14.1261 69.6972 14.1606 69.7585 14.2032C69.9557 14.2881 70.1176 14.4377 70.2172 14.6269C70.3168 14.8162 70.348 15.0336 70.3056 15.243C70.2633 15.4523 70.15 15.6409 69.9845 15.7772C69.8191 15.9135 69.6116 15.9894 69.3966 15.992H67.2687L69.5862 16.8479L69.7585 16.9335C69.9342 16.9991 70.0858 17.1159 70.1934 17.2687C70.301 17.4214 70.3596 17.6029 70.3615 17.7894C70.3615 18.0368 70.2626 18.2741 70.0865 18.449C69.9104 18.624 69.6715 18.7223 69.4225 18.7223H67.2687L69.5862 19.5781L69.7671 19.6637C69.9643 19.7487 70.1262 19.8982 70.2258 20.0875C70.3254 20.2767 70.3566 20.4941 70.3143 20.7035C70.2719 20.9128 70.1586 21.1014 69.9931 21.2377C69.8277 21.3741 69.6202 21.4499 69.4053 21.4525H67.2687L69.5862 22.3084L69.7671 22.394C69.9697 22.4756 70.1372 22.6249 70.2409 22.8161C70.3445 23.0073 70.3778 23.2285 70.3349 23.4414C70.292 23.6544 70.1757 23.8458 70.006 23.9827C69.8363 24.1196 69.6239 24.1934 69.4053 24.1913H61.5826C61.4511 24.2038 61.3185 24.1889 61.1932 24.1475C61.0679 24.1061 60.9527 24.0391 60.8549 23.9508C60.7572 23.8626 60.6791 23.755 60.6257 23.6351C60.5723 23.5151 60.5447 23.3853 60.5447 23.2541C60.5447 23.1229 60.5723 22.9932 60.6257 22.8732C60.6791 22.7532 60.7572 22.6457 60.8549 22.5574C60.9527 22.4692 61.0679 22.4022 61.1932 22.3608C61.3185 22.3194 61.4511 22.3045 61.5826 22.317H64.0552L61.686 21.4611H61.5826C61.3335 21.4611 61.0947 21.3628 60.9186 21.1878C60.7425 21.0129 60.6435 20.7756 60.6435 20.5282C60.6435 20.2807 60.7425 20.0435 60.9186 19.8685C61.0947 19.6935 61.3335 19.5953 61.5826 19.5953H64.0724L61.7118 18.7394H61.5826C61.4511 18.7519 61.3185 18.7369 61.1932 18.6955C61.0679 18.6541 60.9527 18.5871 60.8549 18.4989C60.7572 18.4106 60.6791 18.3031 60.6257 18.1831C60.5723 18.0631 60.5447 17.9334 60.5447 17.8022C60.5447 17.671 60.5723 17.5412 60.6257 17.4213C60.6791 17.3013 60.7572 17.1937 60.8549 17.1055C60.9527 17.0172 61.0679 16.9503 61.1932 16.9089C61.3185 16.8674 61.4511 16.8525 61.5826 16.865H64.0552L61.686 16.0091H61.5826C61.3335 16.0091 61.0947 15.9108 60.9186 15.7359C60.7425 15.5609 60.6435 15.3236 60.6435 15.0762C60.6435 14.8288 60.7425 14.5915 60.9186 14.4165C61.0947 14.2416 61.3335 14.1433 61.5826 14.1433H64.0724L61.7118 13.2874H61.5826C61.4511 13.2999 61.3185 13.285 61.1932 13.2436C61.0679 13.2021 60.9527 13.1352 60.8549 13.0469C60.7572 12.9587 60.6791 12.8511 60.6257 12.7312C60.5723 12.6112 60.5447 12.4814 60.5447 12.3502C60.5447 12.219 60.5723 12.0893 60.6257 11.9693C60.6791 11.8493 60.7572 11.7418 60.8549 11.6535C60.9527 11.5653 61.0679 11.4983 61.1932 11.4569C61.3185 11.4155 61.4511 11.4006 61.5826 11.413H64.0724L61.7118 10.5572H61.5826C61.4511 10.5697 61.3185 10.5547 61.1932 10.5133C61.0679 10.4719 60.9527 10.4049 60.8549 10.3167C60.7572 10.2284 60.6791 10.1209 60.6257 10.0009C60.5723 9.88092 60.5447 9.75118 60.5447 9.61998C60.5447 9.48879 60.5723 9.35904 60.6257 9.23906C60.6791 9.11908 60.7572 9.01153 60.8549 8.92328C60.9527 8.83504 61.0679 8.76806 61.1932 8.72665C61.3185 8.68524 61.4511 8.6703 61.5826 8.68279H64.0552L61.686 7.82691H61.5826C61.3335 7.82691 61.0947 7.72863 60.9186 7.55367C60.7425 7.37872 60.6435 7.14143 60.6435 6.894C60.6435 6.64658 60.7425 6.4093 60.9186 6.23434C61.0947 6.05939 61.3335 5.9611 61.5826 5.9611H64.0724L61.7118 5.10522H61.5826C61.4511 5.11771 61.3185 5.10277 61.1932 5.06136C61.0679 5.01994 60.9527 4.95297 60.8549 4.86473C60.7572 4.77648 60.6791 4.66893 60.6257 4.54895C60.5723 4.42897 60.5447 4.29922 60.5447 4.16803C60.5447 4.03683 60.5723 3.90709 60.6257 3.78711C60.6791 3.66713 60.7572 3.55957 60.8549 3.47133C60.9527 3.38309 61.0679 3.31611 61.1932 3.2747C61.3185 3.23329 61.4511 3.21835 61.5826 3.23084H69.4053C69.6399 3.25314 69.8577 3.36152 70.0163 3.53481C70.1748 3.7081 70.2627 3.93386 70.2627 4.16803C70.2627 4.4022 70.1748 4.62796 70.0163 4.80125C69.8577 4.97454 69.6399 5.08292 69.4053 5.10522H67.2687L69.5862 5.9611L69.7671 6.04669C69.9643 6.13161 70.1262 6.28118 70.2258 6.47041C70.3254 6.65964 70.3566 6.87709 70.3143 7.08644C70.2719 7.29578 70.1586 7.48436 69.9931 7.62069C69.8277 7.75701 69.6202 7.83282 69.4053 7.83547V7.767Z" fill="#0566CE"/>
<path d="M77.6401 26.9409V32.242H55.2016C54.6659 33.726 53.6856 35.0087 52.3944 35.9153C51.1032 36.8219 49.5639 37.3084 47.9862 37.3084C46.4085 37.3084 44.8692 36.8219 43.578 35.9153C42.2868 35.0087 41.3065 33.726 40.7708 32.242H18.3323V26.9409H40.7708C41.1487 25.9096 41.7438 24.9715 42.5156 24.1901C43.2874 23.4086 44.218 22.8019 45.2445 22.4111V18.6948H43.8421V16.2266H52.0883V18.6948H50.6858V22.4111C51.7079 22.8067 52.6341 23.4153 53.403 24.1963C54.1719 24.9772 54.7659 25.9128 55.1455 26.9409H77.6401Z" fill="#0566CE"/>
<path d="M94.7354 12.791H94.4689H80.7674C80.4549 12.791 80.1553 12.9151 79.9344 13.1361C79.7135 13.357 79.5894 13.6566 79.5894 13.969V44.822C79.5894 45.1345 79.7135 45.4341 79.9344 45.655C80.1553 45.8759 80.4549 46 80.7674 46H94.4689H94.7354C95.0241 45.9485 95.2828 45.7898 95.4596 45.5558C95.6364 45.3218 95.7183 45.0297 95.689 44.7379V13.8849C95.6774 13.6215 95.5768 13.3699 95.4036 13.1711C95.2303 12.9724 94.9947 12.8384 94.7354 12.791ZM89.869 13.394H94.1604L89.869 14.9087V13.394ZM81.0198 13.394H85.3112V14.9087L81.0198 13.394ZM80.8516 14.3337L85.3112 15.9044V19.0598L80.8516 17.4891V14.3337ZM80.8516 18.4287L85.3112 19.9994V23.1408L80.8516 21.5701V18.4287ZM80.8516 22.5097L85.3112 24.0944V27.2358L80.8516 25.6651V22.5097ZM80.8516 26.6047L85.3112 28.1754V31.3168L80.8516 29.7461V26.6047ZM80.8516 30.6998L85.3112 32.2704V35.4119L80.8516 33.8412V30.6998ZM80.8516 34.7808L85.3112 36.3234V39.4788L80.8516 37.8941V34.7808ZM80.8516 38.8758L85.3112 40.4465V43.5879L80.8516 41.9331V38.8758ZM80.8516 45.2007V42.9568L85.3112 44.5415V45.2007H80.8516ZM86.1947 45.2007V13.394H87.2746V45.1446L86.1947 45.2007ZM88.9995 45.2007H87.9617V13.394H88.9995V45.2007ZM94.3427 45.2007H89.869V44.5415L94.3427 42.9568V45.2007ZM94.3427 42.0172L89.869 43.5879V40.3904L94.3427 38.8197V42.0172ZM94.3427 37.9222L89.869 39.5069V36.3234L94.3427 34.7527V37.9222ZM94.3427 33.8412L89.869 35.4119V32.2704L94.2866 30.7138L94.3427 33.8412ZM94.3427 29.7461L89.869 31.3168V28.1754L94.2866 26.5066L94.3427 29.7461ZM94.3427 25.6651L89.869 27.2358V24.0944L94.3427 22.5097V25.6651ZM94.3427 21.5701L89.869 23.1408V19.9994L94.2866 18.3726L94.3427 21.5701ZM94.3427 17.4891L89.869 19.0598V15.8483L94.3427 14.2776V17.4891Z" fill="#0566CE"/>
<path d="M15.3733 12.7911H15.1209H1.41931C1.26409 12.7892 1.11007 12.8184 0.966296 12.877C0.822522 12.9355 0.691907 13.0222 0.582141 13.1319C0.472374 13.2417 0.385663 13.3723 0.327128 13.5161C0.268593 13.6599 0.239415 13.8139 0.241296 13.9691V44.8221C0.239415 44.9773 0.268593 45.1314 0.327128 45.2751C0.385663 45.4189 0.472374 45.5495 0.582141 45.6593C0.691907 45.7691 0.822522 45.8558 0.966296 45.9143C1.11007 45.9729 1.26409 46.002 1.41931 46.0001H15.1209H15.3733C15.6355 45.9426 15.8702 45.7972 16.0386 45.5881C16.2069 45.379 16.2987 45.1186 16.2989 44.8501V13.885C16.2863 13.6262 16.1888 13.3789 16.0215 13.1811C15.8542 12.9834 15.6264 12.8463 15.3733 12.7911ZM10.521 13.3941H14.8123L10.521 14.9088V13.3941ZM1.50346 13.3941H1.67176H5.93507V14.9088L1.72785 13.3941H1.55956H1.50346ZM1.50346 14.3338L5.93507 15.8483V19.0038L1.47542 17.4331L1.50346 14.3338ZM1.50346 18.4288L5.96313 19.9995V23.1409L1.50346 21.5702V18.4288ZM1.50346 22.5098L5.96313 24.0945V27.2359L1.50346 25.6652V22.5098ZM1.50346 26.6048L5.96313 28.1755V31.3169L1.50346 29.7462V26.6048ZM1.50346 30.6998L5.96313 32.2705V35.412L1.50346 33.8413V30.6998ZM1.50346 34.7809L5.93507 36.3235V39.4789L1.47542 37.8942L1.50346 34.7809ZM1.50346 38.8759L5.93507 40.3905V43.5319L1.50346 41.9332V38.8759ZM1.50346 45.2007V42.9569L5.96313 44.5416V45.2007H1.50346ZM6.84663 45.2007V13.3941H7.8704V45.1447L6.84663 45.2007ZM9.65145 45.2007H8.61368V13.3941H9.65145V45.2007ZM14.9946 45.2007H10.535V44.5416L14.9946 42.9569V45.2007ZM14.9946 42.0173L10.535 43.588V40.3905L14.9946 38.8198V42.0173ZM14.9946 37.9223L10.535 39.507V36.3235L14.9946 34.7528V37.9223ZM14.9946 33.8413L10.535 35.412V32.2705L14.9946 30.6998V33.8413ZM14.9946 29.7462L10.535 31.3169V28.1755L14.9946 26.6048V29.7462ZM14.9946 25.6652L10.535 27.2359V24.0945L14.9946 22.5098V25.6652ZM14.9946 21.5702L10.535 23.1409V19.9995L14.9946 18.4288V21.5702ZM14.9946 17.4892L10.535 19.0599V15.8483L14.9946 14.2777V17.4892Z" fill="#0566CE"/>
</svg>
