<svg width="74" height="74" viewBox="0 0 74 74" fill="none" xmlns="http://www.w3.org/2000/svg">
<rect width="74" height="74" rx="10" fill="#2A2A2A"/>
<path d="M37.0067 21C33.8422 20.9987 30.7484 21.9358 28.1165 23.6928C25.4845 25.4498 23.4327 27.9478 22.2205 30.8709C21.0083 33.794 20.6901 37.0109 21.3061 40.1149C21.9222 43.2188 23.4449 46.0704 25.6816 48.309C27.9183 50.5476 30.7686 52.0726 33.872 52.6913C36.9755 53.3099 40.1927 52.9944 43.1168 51.7846C46.0409 50.5748 48.5406 48.5251 50.2998 45.8947C52.059 43.2642 52.9987 40.1711 53 37.0066C53.0012 34.9054 52.5884 32.8245 51.7853 30.8829C50.9821 28.9412 49.8043 27.1767 48.3191 25.6903C46.834 24.2039 45.0705 23.0246 43.1295 22.2199C41.1885 21.4151 39.108 21.0006 37.0067 21ZM44.7028 44.3419C44.3804 44.6935 44.0271 45.0155 43.6472 45.304C41.8389 46.7669 39.5991 47.5933 37.274 47.6555H37.0067C36.6139 47.6536 36.2215 47.6313 35.8309 47.5887C33.513 47.3281 31.3445 46.3142 29.6581 44.7027V44.6893C29.3102 44.3681 28.9885 44.0196 28.6961 43.6472C27.2371 41.8376 26.4154 39.5976 26.3578 37.2739V37.0066C26.3597 36.6138 26.3821 36.2214 26.4247 35.8308C26.6764 33.5104 27.6915 31.3391 29.3107 29.658C29.6319 29.3101 29.9804 28.9884 30.3529 28.696C32.1619 27.2253 34.4087 26.398 36.7395 26.3445H37.0067C37.3951 26.346 37.7831 26.3683 38.1691 26.4112C40.4944 26.66 42.6708 27.6753 44.3554 29.2973C44.7002 29.6263 45.0217 29.979 45.3173 30.3528C46.7765 32.1674 47.5981 34.4116 47.6555 36.7394V37.0066C47.6537 37.3995 47.6314 37.7919 47.5887 38.1824C47.3398 40.4998 46.3241 42.6676 44.7028 44.3419Z" fill="#0566CE"/>
<path d="M43.567 30.7C42.2425 29.2908 40.4913 28.3565 38.5833 28.0411C38.1214 27.9491 37.6513 27.9043 37.1804 27.9075C37.1232 27.8964 37.0649 27.8919 37.0067 27.8941C35.1347 27.8857 33.3073 28.4652 31.7824 29.5509C31.3966 29.8071 31.0383 30.1026 30.7135 30.4327C29.3053 31.7598 28.3673 33.5091 28.0413 35.4164C27.9493 35.8828 27.9045 36.3573 27.9077 36.8327C27.8966 36.8899 27.8921 36.9482 27.8943 37.0064C27.8923 38.8732 28.4713 40.6944 29.5511 42.2173C29.8159 42.6045 30.1156 42.9668 30.4463 43.2996C31.7764 44.7014 33.525 45.6343 35.4301 45.9584C35.8919 46.0504 36.362 46.0952 36.833 46.092C36.8902 46.1031 36.9484 46.1076 37.0067 46.1054C38.8725 46.1141 40.6943 45.5395 42.2175 44.462C42.6048 44.1971 42.9671 43.8975 43.2998 43.5668C44.708 42.2397 45.646 40.4903 45.972 38.583C46.064 38.1211 46.1088 37.6511 46.1056 37.1801C46.1167 37.1229 46.1212 37.0646 46.119 37.0064C46.1295 35.1342 45.5498 33.3062 44.4622 31.7822C44.2015 31.3919 43.9015 31.0292 43.567 30.7ZM42.7921 31.8357C41.8434 33.0516 40.5874 34.214 39.0643 34.5079H39.0509C38.7743 34.2814 38.463 34.1009 38.1289 33.9735C38.8505 32.5839 38.944 30.9405 38.797 29.444C40.3474 29.8006 41.7455 30.6376 42.7921 31.8357ZM37.0067 38.8904C36.6322 38.8917 36.2657 38.7818 35.9538 38.5746C35.6418 38.3673 35.3985 38.0721 35.2545 37.7264C35.1106 37.3807 35.0726 37 35.1453 36.6326C35.218 36.2652 35.3982 35.9277 35.663 35.6629C35.9278 35.3981 36.2653 35.2179 36.6327 35.1452C37.0001 35.0724 37.3808 35.1104 37.7265 35.2543C38.0722 35.3982 38.3675 35.6416 38.5747 35.9535C38.7819 36.2655 38.8919 36.6319 38.8905 37.0064C38.8908 37.2539 38.8423 37.499 38.7477 37.7277C38.6532 37.9564 38.5144 38.1642 38.3394 38.3392C38.1644 38.5142 37.9566 38.653 37.7279 38.7475C37.4992 38.8421 37.2541 38.8907 37.0067 38.8904ZM37.0067 29.2302C37.1497 29.2258 37.2929 29.2347 37.4342 29.257C37.6346 30.7935 37.5678 32.5037 36.686 33.7864C36.3303 33.8245 35.983 33.9192 35.6572 34.0669C35.1896 32.5839 34.0939 31.3547 32.9315 30.3926C34.1548 29.6323 35.5664 29.2297 37.0067 29.2302ZM31.8359 31.2211C33.0651 32.1697 34.2275 33.4256 34.5081 34.9488V34.9622C34.2856 35.2442 34.1097 35.5599 33.987 35.8975C32.5975 35.1626 30.954 35.0557 29.4442 35.2161C29.8008 33.6658 30.6378 32.2676 31.8359 31.2211ZM29.2305 37.0064C29.226 36.8634 29.235 36.7202 29.2572 36.5788C30.7937 36.3785 32.5173 36.4453 33.8 37.3404C33.8363 37.6922 33.9312 38.0354 34.0806 38.3559C32.5841 38.8235 31.3549 39.9191 30.3929 41.0815C29.6326 39.8583 29.2299 38.4467 29.2305 37.0064V37.0064ZM31.2213 42.1772C32.1699 40.9346 33.4392 39.7722 34.9757 39.5049C35.2481 39.7271 35.555 39.9032 35.8843 40.026C35.1628 41.4156 35.0693 43.0591 35.2162 44.5555C33.6692 44.1985 32.2725 43.3669 31.2213 42.1772V42.1772ZM37.0067 44.7692C36.8636 44.7737 36.7205 44.7647 36.5791 44.7426C36.3786 43.1926 36.4588 41.4824 37.3407 40.2131C37.6924 40.1767 38.0356 40.0819 38.3562 39.9325C38.8238 41.4289 39.906 42.6582 41.0684 43.6202C39.8497 44.3779 38.4418 44.7762 37.0067 44.7692V44.7692ZM42.1908 42.7784C40.9482 41.8431 39.7858 40.5739 39.5052 39.0373C39.7275 38.7601 39.9035 38.4488 40.0263 38.1154C41.0684 38.6632 42.2576 38.8636 43.42 38.8636C43.8039 38.8617 44.1875 38.8394 44.569 38.7968C44.2086 40.3386 43.3775 41.7301 42.1908 42.7784V42.7784ZM44.7829 37.0064C44.7873 37.1495 44.7783 37.2926 44.7561 37.434C43.2196 37.6344 41.496 37.5543 40.2134 36.6724C40.177 36.3206 40.0821 35.9774 39.9328 35.6569C41.4292 35.1893 42.6584 34.0937 43.6204 32.9313C44.3807 34.1545 44.7834 35.5662 44.7829 37.0064V37.0064Z" fill="#0566CE"/>
</svg>
