<svg width="178" height="98" viewBox="0 0 178 98" fill="none" xmlns="http://www.w3.org/2000/svg">
<g filter="url(#filter0_dd_734_2394)">
<path d="M43.038 48.7785C43.5492 48.9685 43.9647 49.2853 44.3162 49.8237C44.6677 50.3305 44.8275 50.9957 44.8275 51.8192C44.8275 52.3894 44.7636 52.9278 44.6038 53.403C44.444 53.8781 44.1884 54.2898 43.8368 54.6383C43.4853 54.9867 43.006 55.2718 42.3988 55.4618C41.7917 55.6519 41.0247 55.7786 40.13 55.7786H30V47.5115H40.2258C40.4815 47.5115 40.7371 47.4481 40.9289 47.3214C41.1206 47.1947 41.2165 46.9413 41.2165 46.5929C41.2165 46.2445 41.1206 46.0228 40.8969 45.8961C40.7052 45.7694 40.4495 45.706 40.1939 45.706H30L32.4286 42.1584H40.0661C40.7691 42.1584 41.3763 42.2218 41.9515 42.3802C42.4947 42.5385 42.974 42.7603 43.3895 43.077C43.7729 43.3938 44.0925 43.7739 44.3162 44.249C44.5399 44.7241 44.6357 45.2626 44.6357 45.8961C44.6357 46.3078 44.6038 46.6563 44.5079 46.973C44.4121 47.2897 44.2842 47.5431 44.1564 47.7965C44.0286 48.0499 43.8368 48.24 43.6451 48.3984C43.4214 48.5884 43.2297 48.7151 43.038 48.7785ZM33.579 50.4255V52.2943H40.1619C40.5454 52.2943 40.833 52.1993 40.9928 52.0409C41.1526 51.8826 41.2484 51.6292 41.2484 51.3441C41.2484 51.059 41.1526 50.8056 40.9928 50.6789C40.833 50.5206 40.5454 50.4572 40.1619 50.4572H33.579V50.4255Z" fill="#007AFF"/>
</g>
<g filter="url(#filter1_dd_734_2394)">
<path d="M51.5062 55.7785L53.6472 52.2943H56.5552C56.9067 52.2943 57.2582 52.2943 57.6417 52.2943C58.0251 52.2943 58.3447 52.2943 58.6323 52.3259C58.4725 52.0725 58.2808 51.7875 58.0571 51.4074C57.8334 51.0273 57.6417 50.6789 57.4499 50.3621L55.3728 46.7829L49.9723 55.8102H45.7222L53.1359 43.5204C53.3916 43.1403 53.6792 42.7919 54.0626 42.4751C54.4461 42.1584 54.8935 42 55.4687 42C56.0119 42 56.4593 42.1584 56.8108 42.4434C57.1623 42.7285 57.4819 43.1086 57.7375 43.5204L64.9595 55.8102H51.5062V55.7785Z" fill="#007AFF"/>
</g>
<g filter="url(#filter2_dd_734_2394)">
<path d="M93.049 52.2943L90.7482 55.7786H84.9642C83.9736 55.7786 83.0468 55.5885 82.184 55.2401C81.3212 54.8917 80.5862 54.4165 79.9791 53.7831C79.3719 53.1812 78.8926 52.421 78.5411 51.5975C78.1896 50.7423 78.0298 49.8237 78.0298 48.8418C78.0298 47.8599 78.1896 46.9413 78.5411 46.1178C78.8926 45.2942 79.3719 44.5974 79.9791 43.9956C80.5862 43.3938 81.3212 42.9503 82.184 42.6336C83.0468 42.3168 83.9736 42.1584 84.9642 42.1584H93.049L90.7482 45.706H84.9642C84.4848 45.706 84.0375 45.801 83.622 45.9594C83.2066 46.1178 82.8551 46.3395 82.5675 46.6246C82.2799 46.9096 82.0243 47.2581 81.8645 47.6698C81.7047 48.0816 81.6088 48.5251 81.6088 49.0002C81.6088 49.4753 81.7047 49.9187 81.8645 50.3305C82.0243 50.7423 82.2799 51.059 82.5675 51.3441C82.8871 51.6292 83.2386 51.8509 83.654 52.0093C84.0694 52.1676 84.5168 52.231 84.9961 52.231H93.049V52.2943Z" fill="#007AFF"/>
</g>
<g filter="url(#filter3_dd_734_2394)">
<path d="M99.1839 55.7785L101.325 52.2943H104.233C104.584 52.2943 104.936 52.2943 105.319 52.2943C105.703 52.2943 106.022 52.2943 106.31 52.3259C106.15 52.0725 105.959 51.7875 105.735 51.4074C105.511 51.0273 105.319 50.6789 105.128 50.3621L103.051 46.7829L97.65 55.8102H93.4319L100.846 43.5204C101.101 43.1403 101.389 42.7919 101.772 42.4751C102.156 42.1584 102.603 42 103.178 42C103.722 42 104.169 42.1584 104.521 42.4434C104.872 42.7285 105.192 43.1086 105.447 43.5204L112.669 55.8102H99.1839V55.7785Z" fill="#007AFF"/>
</g>
<g filter="url(#filter4_dd_734_2394)">
<path d="M141.11 52.2942L138.809 55.7784H127.688V42.1899H141.046L138.745 45.7375H131.299V47.3529H140.439L138.394 50.4254H131.299V52.2625H141.11V52.2942Z" fill="#007AFF"/>
</g>
<g filter="url(#filter5_dd_734_2394)">
<path d="M126.411 42.1899L119.029 54.4797C118.773 54.8598 118.454 55.2082 118.102 55.525C117.719 55.8417 117.271 56.0001 116.728 56.0001C116.185 56.0001 115.738 55.8417 115.386 55.5567C115.035 55.2716 114.715 54.8915 114.459 54.4797L107.237 42.1899H111.615L116.792 51.2172V51.1855L122.193 42.1899H126.411Z" fill="#007AFF"/>
</g>
<g filter="url(#filter6_dd_734_2394)">
<path d="M78.9239 42.1899L76.6231 45.7058H72.5008V53.9096L68.9218 55.7784V45.7058H63.5212L65.8221 42.1899H78.9239Z" fill="#007AFF"/>
</g>
<defs>
<filter id="filter0_dd_734_2394" x="0" y="0.158447" width="80.8274" height="97.6201" filterUnits="userSpaceOnUse" color-interpolation-filters="sRGB">
<feFlood flood-opacity="0" result="BackgroundImageFix"/>
<feColorMatrix in="SourceAlpha" type="matrix" values="0 0 0 0 0 0 0 0 0 0 0 0 0 0 0 0 0 0 127 0" result="hardAlpha"/>
<feOffset dx="6" dy="12"/>
<feGaussianBlur stdDeviation="15"/>
<feComposite in2="hardAlpha" operator="out"/>
<feColorMatrix type="matrix" values="0 0 0 0 0 0 0 0 0 0 0 0 0 0 0 0 0 0 0.25 0"/>
<feBlend mode="normal" in2="BackgroundImageFix" result="effect1_dropShadow_734_2394"/>
<feColorMatrix in="SourceAlpha" type="matrix" values="0 0 0 0 0 0 0 0 0 0 0 0 0 0 0 0 0 0 127 0" result="hardAlpha"/>
<feOffset dy="-12"/>
<feGaussianBlur stdDeviation="15"/>
<feComposite in2="hardAlpha" operator="out"/>
<feColorMatrix type="matrix" values="0 0 0 0 0 0 0 0 0 0 0 0 0 0 0 0 0 0 0.25 0"/>
<feBlend mode="normal" in2="effect1_dropShadow_734_2394" result="effect2_dropShadow_734_2394"/>
<feBlend mode="normal" in="SourceGraphic" in2="effect2_dropShadow_734_2394" result="shape"/>
</filter>
<filter id="filter1_dd_734_2394" x="15.7222" y="0" width="85.2373" height="97.8101" filterUnits="userSpaceOnUse" color-interpolation-filters="sRGB">
<feFlood flood-opacity="0" result="BackgroundImageFix"/>
<feColorMatrix in="SourceAlpha" type="matrix" values="0 0 0 0 0 0 0 0 0 0 0 0 0 0 0 0 0 0 127 0" result="hardAlpha"/>
<feOffset dx="6" dy="12"/>
<feGaussianBlur stdDeviation="15"/>
<feComposite in2="hardAlpha" operator="out"/>
<feColorMatrix type="matrix" values="0 0 0 0 0 0 0 0 0 0 0 0 0 0 0 0 0 0 0.25 0"/>
<feBlend mode="normal" in2="BackgroundImageFix" result="effect1_dropShadow_734_2394"/>
<feColorMatrix in="SourceAlpha" type="matrix" values="0 0 0 0 0 0 0 0 0 0 0 0 0 0 0 0 0 0 127 0" result="hardAlpha"/>
<feOffset dy="-12"/>
<feGaussianBlur stdDeviation="15"/>
<feComposite in2="hardAlpha" operator="out"/>
<feColorMatrix type="matrix" values="0 0 0 0 0 0 0 0 0 0 0 0 0 0 0 0 0 0 0.25 0"/>
<feBlend mode="normal" in2="effect1_dropShadow_734_2394" result="effect2_dropShadow_734_2394"/>
<feBlend mode="normal" in="SourceGraphic" in2="effect2_dropShadow_734_2394" result="shape"/>
</filter>
<filter id="filter2_dd_734_2394" x="48.0298" y="0.158447" width="81.0193" height="97.6201" filterUnits="userSpaceOnUse" color-interpolation-filters="sRGB">
<feFlood flood-opacity="0" result="BackgroundImageFix"/>
<feColorMatrix in="SourceAlpha" type="matrix" values="0 0 0 0 0 0 0 0 0 0 0 0 0 0 0 0 0 0 127 0" result="hardAlpha"/>
<feOffset dx="6" dy="12"/>
<feGaussianBlur stdDeviation="15"/>
<feComposite in2="hardAlpha" operator="out"/>
<feColorMatrix type="matrix" values="0 0 0 0 0 0 0 0 0 0 0 0 0 0 0 0 0 0 0.25 0"/>
<feBlend mode="normal" in2="BackgroundImageFix" result="effect1_dropShadow_734_2394"/>
<feColorMatrix in="SourceAlpha" type="matrix" values="0 0 0 0 0 0 0 0 0 0 0 0 0 0 0 0 0 0 127 0" result="hardAlpha"/>
<feOffset dy="-12"/>
<feGaussianBlur stdDeviation="15"/>
<feComposite in2="hardAlpha" operator="out"/>
<feColorMatrix type="matrix" values="0 0 0 0 0 0 0 0 0 0 0 0 0 0 0 0 0 0 0.25 0"/>
<feBlend mode="normal" in2="effect1_dropShadow_734_2394" result="effect2_dropShadow_734_2394"/>
<feBlend mode="normal" in="SourceGraphic" in2="effect2_dropShadow_734_2394" result="shape"/>
</filter>
<filter id="filter3_dd_734_2394" x="63.4319" y="0" width="85.2373" height="97.8101" filterUnits="userSpaceOnUse" color-interpolation-filters="sRGB">
<feFlood flood-opacity="0" result="BackgroundImageFix"/>
<feColorMatrix in="SourceAlpha" type="matrix" values="0 0 0 0 0 0 0 0 0 0 0 0 0 0 0 0 0 0 127 0" result="hardAlpha"/>
<feOffset dx="6" dy="12"/>
<feGaussianBlur stdDeviation="15"/>
<feComposite in2="hardAlpha" operator="out"/>
<feColorMatrix type="matrix" values="0 0 0 0 0 0 0 0 0 0 0 0 0 0 0 0 0 0 0.25 0"/>
<feBlend mode="normal" in2="BackgroundImageFix" result="effect1_dropShadow_734_2394"/>
<feColorMatrix in="SourceAlpha" type="matrix" values="0 0 0 0 0 0 0 0 0 0 0 0 0 0 0 0 0 0 127 0" result="hardAlpha"/>
<feOffset dy="-12"/>
<feGaussianBlur stdDeviation="15"/>
<feComposite in2="hardAlpha" operator="out"/>
<feColorMatrix type="matrix" values="0 0 0 0 0 0 0 0 0 0 0 0 0 0 0 0 0 0 0.25 0"/>
<feBlend mode="normal" in2="effect1_dropShadow_734_2394" result="effect2_dropShadow_734_2394"/>
<feBlend mode="normal" in="SourceGraphic" in2="effect2_dropShadow_734_2394" result="shape"/>
</filter>
<filter id="filter4_dd_734_2394" x="97.6885" y="0.189941" width="79.4214" height="97.5884" filterUnits="userSpaceOnUse" color-interpolation-filters="sRGB">
<feFlood flood-opacity="0" result="BackgroundImageFix"/>
<feColorMatrix in="SourceAlpha" type="matrix" values="0 0 0 0 0 0 0 0 0 0 0 0 0 0 0 0 0 0 127 0" result="hardAlpha"/>
<feOffset dx="6" dy="12"/>
<feGaussianBlur stdDeviation="15"/>
<feComposite in2="hardAlpha" operator="out"/>
<feColorMatrix type="matrix" values="0 0 0 0 0 0 0 0 0 0 0 0 0 0 0 0 0 0 0.25 0"/>
<feBlend mode="normal" in2="BackgroundImageFix" result="effect1_dropShadow_734_2394"/>
<feColorMatrix in="SourceAlpha" type="matrix" values="0 0 0 0 0 0 0 0 0 0 0 0 0 0 0 0 0 0 127 0" result="hardAlpha"/>
<feOffset dy="-12"/>
<feGaussianBlur stdDeviation="15"/>
<feComposite in2="hardAlpha" operator="out"/>
<feColorMatrix type="matrix" values="0 0 0 0 0 0 0 0 0 0 0 0 0 0 0 0 0 0 0.25 0"/>
<feBlend mode="normal" in2="effect1_dropShadow_734_2394" result="effect2_dropShadow_734_2394"/>
<feBlend mode="normal" in="SourceGraphic" in2="effect2_dropShadow_734_2394" result="shape"/>
</filter>
<filter id="filter5_dd_734_2394" x="77.2373" y="0.189941" width="85.1736" height="97.8101" filterUnits="userSpaceOnUse" color-interpolation-filters="sRGB">
<feFlood flood-opacity="0" result="BackgroundImageFix"/>
<feColorMatrix in="SourceAlpha" type="matrix" values="0 0 0 0 0 0 0 0 0 0 0 0 0 0 0 0 0 0 127 0" result="hardAlpha"/>
<feOffset dx="6" dy="12"/>
<feGaussianBlur stdDeviation="15"/>
<feComposite in2="hardAlpha" operator="out"/>
<feColorMatrix type="matrix" values="0 0 0 0 0 0 0 0 0 0 0 0 0 0 0 0 0 0 0.25 0"/>
<feBlend mode="normal" in2="BackgroundImageFix" result="effect1_dropShadow_734_2394"/>
<feColorMatrix in="SourceAlpha" type="matrix" values="0 0 0 0 0 0 0 0 0 0 0 0 0 0 0 0 0 0 127 0" result="hardAlpha"/>
<feOffset dy="-12"/>
<feGaussianBlur stdDeviation="15"/>
<feComposite in2="hardAlpha" operator="out"/>
<feColorMatrix type="matrix" values="0 0 0 0 0 0 0 0 0 0 0 0 0 0 0 0 0 0 0.25 0"/>
<feBlend mode="normal" in2="effect1_dropShadow_734_2394" result="effect2_dropShadow_734_2394"/>
<feBlend mode="normal" in="SourceGraphic" in2="effect2_dropShadow_734_2394" result="shape"/>
</filter>
<filter id="filter6_dd_734_2394" x="33.5212" y="0.189941" width="81.4026" height="97.5884" filterUnits="userSpaceOnUse" color-interpolation-filters="sRGB">
<feFlood flood-opacity="0" result="BackgroundImageFix"/>
<feColorMatrix in="SourceAlpha" type="matrix" values="0 0 0 0 0 0 0 0 0 0 0 0 0 0 0 0 0 0 127 0" result="hardAlpha"/>
<feOffset dx="6" dy="12"/>
<feGaussianBlur stdDeviation="15"/>
<feComposite in2="hardAlpha" operator="out"/>
<feColorMatrix type="matrix" values="0 0 0 0 0 0 0 0 0 0 0 0 0 0 0 0 0 0 0.25 0"/>
<feBlend mode="normal" in2="BackgroundImageFix" result="effect1_dropShadow_734_2394"/>
<feColorMatrix in="SourceAlpha" type="matrix" values="0 0 0 0 0 0 0 0 0 0 0 0 0 0 0 0 0 0 127 0" result="hardAlpha"/>
<feOffset dy="-12"/>
<feGaussianBlur stdDeviation="15"/>
<feComposite in2="hardAlpha" operator="out"/>
<feColorMatrix type="matrix" values="0 0 0 0 0 0 0 0 0 0 0 0 0 0 0 0 0 0 0.25 0"/>
<feBlend mode="normal" in2="effect1_dropShadow_734_2394" result="effect2_dropShadow_734_2394"/>
<feBlend mode="normal" in="SourceGraphic" in2="effect2_dropShadow_734_2394" result="shape"/>
</filter>
</defs>
</svg>
