<svg width="46" height="45" viewBox="0 0 46 45" fill="none" xmlns="http://www.w3.org/2000/svg">
<path d="M32.0002 17.73C31.9802 17.73 31.9502 17.73 31.9202 17.73C26.6302 17.2 21.3502 17 16.1202 17.53L14.0802 17.73C13.6602 17.77 13.2902 17.47 13.2502 17.05C13.2102 16.63 13.5102 16.27 13.9202 16.23L15.9602 16.03C21.2802 15.49 26.6702 15.7 32.0702 16.23C32.4802 16.27 32.7802 16.64 32.7402 17.05C32.7102 17.44 32.3802 17.73 32.0002 17.73Z" fill="#B3B3B3"/>
<path d="M19.4998 16.72C19.4598 16.72 19.4198 16.72 19.3698 16.71C18.9698 16.64 18.6898 16.25 18.7598 15.85L18.9798 14.54C19.1398 13.58 19.3598 12.25 21.6898 12.25H24.3098C26.6498 12.25 26.8698 13.63 27.0198 14.55L27.2398 15.85C27.3098 16.26 27.0298 16.65 26.6298 16.71C26.2198 16.78 25.8298 16.5 25.7698 16.1L25.5498 14.8C25.4098 13.93 25.3798 13.76 24.3198 13.76H21.6998C20.6398 13.76 20.6198 13.9 20.4698 14.79L20.2398 16.09C20.1798 16.46 19.8598 16.72 19.4998 16.72Z" fill="#B3B3B3"/>
<path d="M26.2099 33.7501H19.7899C16.2999 33.7501 16.1599 31.8201 16.0499 30.2601L15.3999 20.1901C15.3699 19.7801 15.6899 19.4201 16.0999 19.3901C16.5199 19.3701 16.8699 19.6801 16.8999 20.0901L17.5499 30.1601C17.6599 31.6801 17.6999 32.2501 19.7899 32.2501H26.2099C28.3099 32.2501 28.3499 31.6801 28.4499 30.1601L29.0999 20.0901C29.1299 19.6801 29.4899 19.3701 29.8999 19.3901C30.3099 19.4201 30.6299 19.7701 30.5999 20.1901L29.9499 30.2601C29.8399 31.8201 29.6999 33.7501 26.2099 33.7501Z" fill="#B3B3B3"/>
<path d="M24.6601 28.25H21.3301C20.9201 28.25 20.5801 27.91 20.5801 27.5C20.5801 27.09 20.9201 26.75 21.3301 26.75H24.6601C25.0701 26.75 25.4101 27.09 25.4101 27.5C25.4101 27.91 25.0701 28.25 24.6601 28.25Z" fill="#B3B3B3"/>
<path d="M25.5 24.25H20.5C20.09 24.25 19.75 23.91 19.75 23.5C19.75 23.09 20.09 22.75 20.5 22.75H25.5C25.91 22.75 26.25 23.09 26.25 23.5C26.25 23.91 25.91 24.25 25.5 24.25Z" fill="#B3B3B3"/>
<rect x="1" y="0.5" width="44" height="44" rx="22" stroke="#B3B3B3"/>
</svg>
