<svg width="24" height="24" viewBox="0 0 24 24" fill="none" xmlns="http://www.w3.org/2000/svg">
<path d="M16.75 9.318V8.25C16.75 6.85761 16.1969 5.52226 15.2123 4.53769C14.2277 3.55312 12.8924 3 11.5 3C10.1076 3 8.77226 3.55312 7.78769 4.53769C6.80312 5.52226 6.25 6.85761 6.25 8.25V9.318C5.58202 9.60953 5.01347 10.0894 4.61387 10.6989C4.21428 11.3084 4.00096 12.0212 4 12.75V17.25C4.00119 18.2442 4.39666 19.1973 5.09966 19.9003C5.80267 20.6033 6.7558 20.9988 7.75 21H15.25C16.2442 20.9988 17.1973 20.6033 17.9003 19.9003C18.6033 19.1973 18.9988 18.2442 19 17.25V12.75C18.999 12.0212 18.7857 11.3084 18.3861 10.6989C17.9865 10.0894 17.418 9.60953 16.75 9.318ZM7.75 8.25C7.75 7.25544 8.14509 6.30161 8.84835 5.59835C9.55161 4.89509 10.5054 4.5 11.5 4.5C12.4946 4.5 13.4484 4.89509 14.1517 5.59835C14.8549 6.30161 15.25 7.25544 15.25 8.25V9H7.75V8.25ZM17.5 17.25C17.5 17.8467 17.2629 18.419 16.841 18.841C16.419 19.2629 15.8467 19.5 15.25 19.5H7.75C7.15326 19.5 6.58097 19.2629 6.15901 18.841C5.73705 18.419 5.5 17.8467 5.5 17.25V12.75C5.5 12.1533 5.73705 11.581 6.15901 11.159C6.58097 10.7371 7.15326 10.5 7.75 10.5H15.25C15.8467 10.5 16.419 10.7371 16.841 11.159C17.2629 11.581 17.5 12.1533 17.5 12.75V17.25Z" fill="#CCCCCC"/>
<path d="M11.5 13.5C11.3011 13.5 11.1103 13.579 10.9697 13.7197C10.829 13.8603 10.75 14.0511 10.75 14.25V15.75C10.75 15.9489 10.829 16.1397 10.9697 16.2803C11.1103 16.421 11.3011 16.5 11.5 16.5C11.6989 16.5 11.8897 16.421 12.0303 16.2803C12.171 16.1397 12.25 15.9489 12.25 15.75V14.25C12.25 14.0511 12.171 13.8603 12.0303 13.7197C11.8897 13.579 11.6989 13.5 11.5 13.5Z" fill="#CCCCCC"/>
</svg>
