<svg id="Layer_1" data-name="Layer 1" xmlns="http://www.w3.org/2000/svg" width="112" height="14" viewBox="0 0 112 14">
  <defs>
    <style>
      .cls-1 {
        fill: #007aff;
      }
    </style>
  </defs>
  <g>
    <path class="cls-1" d="M13.483,6.77845a2.5158,2.5158,0,0,1,1.2782,1.0452,3.433,3.433,0,0,1,.5113,1.9955,4.99887,4.99887,0,0,1-.2237,1.5838,3.11083,3.11083,0,0,1-.767,1.2353,3.49575,3.49575,0,0,1-1.438.8235,7.6591,7.6591,0,0,1-2.2688.3168H.445V5.51145H10.6708a1.29728,1.29728,0,0,0,.7031-.1901.82425.82425,0,0,0,.2876-.7285.71152.71152,0,0,0-.3196-.6968,1.29693,1.29693,0,0,0-.703-.1901H.445L2.8736.15835h7.6375a6.994,6.994,0,0,1,1.8854.2218,4.32879,4.32879,0,0,1,1.438.6968,3.37145,3.37145,0,0,1,.9267,1.172,3.79431,3.79431,0,0,1,.3195,1.6471,3.69135,3.69135,0,0,1-.1278,1.0769,4.9262,4.9262,0,0,1-.3515.8235,1.9043,1.9043,0,0,1-.5113.6019A1.89219,1.89219,0,0,1,13.483,6.77845Zm-9.459,1.647v1.8688h6.5829a1.17838,1.17838,0,0,0,.8309-.2534.98064.98064,0,0,0,.2556-.6968.85363.85363,0,0,0-.2556-.6652,1.18438,1.18438,0,0,0-.8309-.2217H4.024Z"/>
    <path class="cls-1" d="M21.9512,13.77845l2.141-3.4842h3.9945a9.41075,9.41075,0,0,1,.9906.0316c-.1598-.2534-.3515-.5384-.5752-.9185s-.4154-.7285-.6072-1.0453l-2.0771-3.5792-5.4005,9.0273H16.1672l7.4137-12.2898a4.753,4.753,0,0,1,.9267-1.0453A2.0964,2.0964,0,0,1,25.9137,0a2.07088,2.07088,0,0,1,1.3421.4434,4.35981,4.35981,0,0,1,.9267,1.077l7.222,12.2898H21.9512Z"/>
    <path class="cls-1" d="M63.494,10.29425l-2.3008,3.4843h-5.784a7.36378,7.36378,0,0,1-2.7802-.5385,6.21648,6.21648,0,0,1-2.2049-1.457,6.86406,6.86406,0,0,1-1.438-2.1856,7.16883,7.16883,0,0,1-.5113-2.7557,6.9,6.9,0,0,1,.5113-2.724,6.57962,6.57962,0,0,1,1.438-2.1222A6.00815,6.00815,0,0,1,52.629.63355a8.00381,8.00381,0,0,1,2.7802-.4752H63.494L61.1932,3.706h-5.784a3.74293,3.74293,0,0,0-1.3422.2534,2.9862,2.9862,0,0,0-1.0545.6652,3.02412,3.02412,0,0,0-.703,1.0452,3.58861,3.58861,0,0,0,0,2.6607,2.89416,2.89416,0,0,0,.703,1.0136,3.45165,3.45165,0,0,0,1.0865.6652,3.732,3.732,0,0,0,1.3421.2217H63.494Z"/>
    <path class="cls-1" d="M69.6289,13.77845l2.1411-3.4842h3.9944a9.41365,9.41365,0,0,1,.9906.0316c-.16-.2534-.3515-.5384-.5751-.9185s-.4155-.7285-.6072-1.0453l-2.0771-3.5792-5.4006,9.0273H63.8769l7.4137-12.2898a4.753,4.753,0,0,1,.9267-1.0453A2.0964,2.0964,0,0,1,73.6234,0a2.07088,2.07088,0,0,1,1.3421.4434,4.36016,4.36016,0,0,1,.9268,1.077l7.2217,12.2898H69.6289Z"/>
    <path class="cls-1" d="M111.555,10.29415l-2.301,3.4842H98.133V.18985h13.358l-2.301,3.5476h-7.446v1.6154h9.14l-2.045,3.0725h-7.095v1.8371h9.811Z"/>
    <path class="cls-1" d="M96.856.18985l-7.382,12.2898a5.73726,5.73726,0,0,1-.927,1.0453,2.23815,2.23815,0,0,1-2.716.0317,4.37978,4.37978,0,0,1-.927-1.077L77.682.18985H82.06l5.177,9.0273v-.0317L92.638.18985Z"/>
    <path class="cls-1" d="M49.3689.18985l-2.3008,3.5159H42.9458v8.2038l-3.579,1.8688V3.70575H33.9662L36.2671.18985Z"/>
  </g>
</svg>
