<svg width="25" height="25" viewBox="0 0 25 25" fill="none" xmlns="http://www.w3.org/2000/svg">
<path d="M9.66667 12H8C7.08083 12 6.33333 12.7475 6.33333 13.6667V15.3333C6.33333 16.2525 7.08083 17 8 17H9.66667C10.5858 17 11.3333 16.2525 11.3333 15.3333V13.6667C11.3333 12.7475 10.5858 12 9.66667 12ZM8 15.3333V13.6667H9.66667V15.3333H8ZM18.8333 3.66667H18V2.83333C18 2.37333 17.6275 2 17.1667 2C16.7058 2 16.3333 2.37333 16.3333 2.83333V3.66667H9.66667V2.83333C9.66667 2.37333 9.29417 2 8.83333 2C8.3725 2 8 2.37333 8 2.83333V3.66667H7.16667C4.86917 3.66667 3 5.53583 3 7.83333V17.8333C3 20.1308 4.86917 22 7.16667 22H18.8333C21.1308 22 23 20.1308 23 17.8333V7.83333C23 5.53583 21.1308 3.66667 18.8333 3.66667ZM7.16667 5.33333H18.8333C20.2117 5.33333 21.3333 6.455 21.3333 7.83333V8.66667H4.66667V7.83333C4.66667 6.455 5.78833 5.33333 7.16667 5.33333ZM18.8333 20.3333H7.16667C5.78833 20.3333 4.66667 19.2117 4.66667 17.8333V10.3333H21.3333V17.8333C21.3333 19.2117 20.2117 20.3333 18.8333 20.3333Z" fill="#CCCCCC"/>
</svg>
