<svg width="25" height="25" viewBox="0 0 25 25" fill="none" xmlns="http://www.w3.org/2000/svg">
<path fill-rule="evenodd" clip-rule="evenodd" d="M21.7243 5.54799L20.6091 5.28491L17.595 8.28181L15.8878 6.54315L18.8275 3.45903L18.5702 2.32661C17.949 2.11879 17.2992 2.00881 16.6442 2.00062C15.9297 1.98963 15.2205 2.12591 14.561 2.40096C13.9241 2.68923 13.3485 3.09694 12.8652 3.60201C12.3272 4.11162 11.9012 4.72758 11.6141 5.41073C11.0614 6.77032 11.0614 8.29198 11.6141 9.65157C8.63327 12.5841 5.69093 15.5555 2.78783 18.5651C2.48757 18.9583 2.34459 19.4487 2.38176 19.942C2.41106 20.4725 2.64966 20.9698 3.0452 21.3246C3.22249 21.5176 3.43411 21.6778 3.67003 21.7936C3.9131 21.9008 4.17475 21.9623 4.43927 21.9752C4.89109 21.9666 5.32433 21.795 5.66034 21.4933C7.87369 19.4101 12.1145 15.1306 14.5238 12.6227C15.1772 12.9001 15.8792 13.0431 16.5884 13.0417C17.3023 13.0411 18.0088 12.8975 18.6663 12.6192C19.3237 12.341 19.9187 11.9338 20.4161 11.4217C21.4377 10.3797 22.0084 8.97757 22.0046 7.51828C22.0211 6.85052 21.9264 6.18467 21.7243 5.54799ZM4.7953 20.4796C4.74026 20.5285 4.67392 20.5629 4.60227 20.5797C4.53178 20.5919 4.45972 20.5919 4.38923 20.5797C4.31532 20.5684 4.24492 20.5405 4.18333 20.4982C4.11724 20.4595 4.06135 20.4056 4.02033 20.3409C3.82016 20.1364 3.63285 19.7475 3.82016 19.5288C5.77901 17.4455 9.81253 13.3734 12.3347 10.8841C12.4777 11.0728 12.635 11.253 12.8037 11.4217C12.9724 11.5976 13.154 11.7606 13.347 11.9093C10.9078 14.4114 6.92858 18.4349 4.7953 20.4796ZM20.692 7.51828C20.6949 8.61209 20.2688 9.66301 19.5024 10.4466C18.7376 11.1968 17.7091 11.617 16.6378 11.617C15.5665 11.617 14.5379 11.1968 13.7731 10.4466C13.2126 9.86161 12.8297 9.12953 12.669 8.33549C12.5083 7.54145 12.5763 6.7181 12.8652 5.96121C13.0575 5.4461 13.3558 4.97708 13.7407 4.58448C14.1257 4.19189 14.5888 3.88446 15.1 3.68208C15.5854 3.47892 16.1065 3.37488 16.6328 3.3761H16.9959L14.398 6.05415V7.0493L17.1075 9.74594H18.0511L20.692 7.14939V7.51828ZM5.23425 10.1277H7.4233L8.43132 11.1529L9.40074 10.1892L8.44991 9.21977V9.15829L8.53141 6.80052L8.21685 6.17568L4.12757 3.48477L3.28255 3.57913L2.09437 4.79305L2 5.64951L4.62801 9.82172L5.23425 10.1277ZM3.88307 4.9346L7.19167 7.11365L7.13591 8.71933H5.59742L3.46413 5.3421L3.88307 4.9346ZM14.0419 14.8861L15.0056 13.9239L19.4466 18.4778C19.8207 18.871 20.0293 19.3929 20.0293 19.9355C20.0293 20.4782 19.8207 21.0001 19.4466 21.3932C19.1654 21.682 18.8037 21.8794 18.4087 21.9597C18.0136 22.0401 17.6036 21.9996 17.2319 21.8436C16.9946 21.7384 16.7819 21.585 16.607 21.3932L12.1145 16.8135L13.0854 15.8441L17.5636 20.411C17.6238 20.4774 17.6987 20.5288 17.7823 20.5611C17.9469 20.6279 18.1311 20.6279 18.2956 20.5611C18.3792 20.5287 18.4542 20.4773 18.5144 20.411C18.577 20.349 18.6257 20.2744 18.6574 20.1922C18.6902 20.1083 18.7076 20.0192 18.7089 19.9291C18.7074 19.8392 18.6905 19.7502 18.6588 19.666C18.6271 19.5838 18.5784 19.5093 18.5158 19.4473L14.0419 14.8861Z" fill="#CCCCCC"/>
</svg>
