<svg width="25" height="25" viewBox="0 0 25 25" fill="none" xmlns="http://www.w3.org/2000/svg">
<path d="M12.0693 13.1279C9.41537 13.1279 7.25537 10.9679 7.25537 8.31395C7.25537 5.66 9.41537 3.5 12.0693 3.5C14.7233 3.5 16.8833 5.66 16.8833 8.31395C16.8833 10.9679 14.7233 13.1279 12.0693 13.1279ZM12.0693 4.75581C10.1103 4.75581 8.51119 6.35488 8.51119 8.31395C8.51119 10.273 10.1103 11.8721 12.0693 11.8721C14.0284 11.8721 15.6275 10.273 15.6275 8.31395C15.6275 6.35488 14.0284 4.75581 12.0693 4.75581Z" fill="#CCCCCC"/>
<path d="M19.2612 21.5001C18.9179 21.5001 18.6332 21.2154 18.6332 20.8722C18.6332 17.9838 15.6863 15.6396 12.0695 15.6396C8.45279 15.6396 5.50581 17.9838 5.50581 20.8722C5.50581 21.2154 5.22116 21.5001 4.87791 21.5001C4.53465 21.5001 4.25 21.2154 4.25 20.8722C4.25 17.2973 7.7579 14.3838 12.0695 14.3838C16.3812 14.3838 19.8891 17.2973 19.8891 20.8722C19.8891 21.2154 19.6044 21.5001 19.2612 21.5001Z" fill="#CCCCCC"/>
</svg>
