<svg width="24" height="24" viewBox="0 0 24 24" fill="none" xmlns="http://www.w3.org/2000/svg">
<path d="M12.3176 19.1028C10.3786 19.1028 8.43966 18.7949 6.60054 18.1791C5.90151 17.9378 5.36891 17.4468 5.1359 16.806C4.89457 16.1652 4.97779 15.4579 5.36059 14.8254L6.3176 13.236C6.51732 12.9031 6.7004 12.2373 6.7004 11.8462V9.4412C6.7004 6.34549 9.22192 3.82397 12.3176 3.82397C15.4134 3.82397 17.9349 6.34549 17.9349 9.4412V11.8462C17.9349 12.229 18.1179 12.9031 18.3177 13.2443L19.2664 14.8254C19.6242 15.4246 19.6908 16.1486 19.4494 16.806C19.2081 17.4634 18.6838 17.9627 18.0264 18.1791C16.1956 18.7949 14.2566 19.1028 12.3176 19.1028ZM12.3176 5.07225C9.91263 5.07225 7.94868 7.02788 7.94868 9.4412V11.8462C7.94868 12.4537 7.69902 13.3525 7.39111 13.8767L6.4341 15.4662C6.25102 15.7741 6.20109 16.0987 6.30928 16.3733C6.40914 16.6562 6.65879 16.8726 6.99999 16.9891C10.4785 18.1541 14.1651 18.1541 17.6436 16.9891C17.9432 16.8892 18.1762 16.6645 18.2844 16.365C18.3926 16.0654 18.3676 15.7408 18.2012 15.4662L17.2442 13.8767C16.9279 13.3358 16.6866 12.4454 16.6866 11.8379V9.4412C16.6866 7.02788 14.731 5.07225 12.3176 5.07225Z" fill="#CCCCCC"/>
<path d="M13.8654 5.29682C13.8072 5.29682 13.7489 5.2885 13.6907 5.27186C13.4493 5.20528 13.2163 5.15535 12.9916 5.12206C12.2843 5.03052 11.6019 5.08046 10.9611 5.27186C10.7281 5.34675 10.4784 5.27186 10.3203 5.0971C10.1622 4.92234 10.1123 4.67269 10.2038 4.448C10.545 3.57421 11.3772 3 12.3259 3C13.2746 3 14.1068 3.56588 14.448 4.448C14.5312 4.67269 14.4896 4.92234 14.3314 5.0971C14.2066 5.23025 14.0319 5.29682 13.8654 5.29682Z" fill="#CCCCCC"/>
<path d="M12.3175 20.9998C11.4936 20.9998 10.6947 20.667 10.1122 20.0844C9.52965 19.5019 9.19678 18.703 9.19678 17.8792H10.4451C10.4451 18.3701 10.6448 18.8528 10.9943 19.2023C11.3438 19.5518 11.8265 19.7516 12.3175 19.7516C13.3494 19.7516 14.1899 18.9111 14.1899 17.8792H15.4381C15.4381 19.6018 14.0401 20.9998 12.3175 20.9998Z" fill="#CCCCCC"/>
</svg>
