<svg width="20" height="20" viewBox="0 0 20 20" fill="none" xmlns="http://www.w3.org/2000/svg">
<path d="M17.561 2.43891C16.119 0.995906 15.036 1.21191 15.036 1.21191L8.98395 7.26391L2.20995 14.0369L1.19995 18.7989L5.96295 17.7889L12.737 11.0179L18.7889 4.96591C18.788 4.96591 19.005 3.88291 17.561 2.43891ZM5.67995 17.2169L4.05595 17.5669C3.87623 17.222 3.64338 16.9075 3.36595 16.6349C3.0931 16.3575 2.77865 16.1244 2.43395 15.9439L2.78395 14.3209L3.25395 13.8519C3.25395 13.8519 4.13695 13.8699 5.13495 14.8679C6.13195 15.8639 6.15095 16.7489 6.15095 16.7489L5.67995 17.2169Z" fill="#999999"/>
</svg>
