<svg width="46" height="45" viewBox="0 0 46 45" fill="none" xmlns="http://www.w3.org/2000/svg">
<path d="M14 18C13.7167 18 13.4793 17.9043 13.288 17.713C13.096 17.521 13 17.2833 13 17V14C13 13.7167 13.096 13.479 13.288 13.287C13.4793 13.0957 13.7167 13 14 13H17C17.2833 13 17.521 13.0957 17.713 13.287C17.9043 13.479 18 13.7167 18 14C18 14.2833 17.9043 14.5207 17.713 14.712C17.521 14.904 17.2833 15 17 15H15V17C15 17.2833 14.9043 17.521 14.713 17.713C14.521 17.9043 14.2833 18 14 18ZM14 33C13.7167 33 13.4793 32.904 13.288 32.712C13.096 32.5207 13 32.2833 13 32V29C13 28.7167 13.096 28.4793 13.288 28.288C13.4793 28.096 13.7167 28 14 28C14.2833 28 14.521 28.096 14.713 28.288C14.9043 28.4793 15 28.7167 15 29V31H17C17.2833 31 17.521 31.096 17.713 31.288C17.9043 31.4793 18 31.7167 18 32C18 32.2833 17.9043 32.5207 17.713 32.712C17.521 32.904 17.2833 33 17 33H14ZM29 33C28.7167 33 28.4793 32.904 28.288 32.712C28.096 32.5207 28 32.2833 28 32C28 31.7167 28.096 31.4793 28.288 31.288C28.4793 31.096 28.7167 31 29 31H31V29C31 28.7167 31.096 28.4793 31.288 28.288C31.4793 28.096 31.7167 28 32 28C32.2833 28 32.5207 28.096 32.712 28.288C32.904 28.4793 33 28.7167 33 29V32C33 32.2833 32.904 32.5207 32.712 32.712C32.5207 32.904 32.2833 33 32 33H29ZM32 18C31.7167 18 31.4793 17.9043 31.288 17.713C31.096 17.521 31 17.2833 31 17V15H29C28.7167 15 28.4793 14.904 28.288 14.712C28.096 14.5207 28 14.2833 28 14C28 13.7167 28.096 13.479 28.288 13.287C28.4793 13.0957 28.7167 13 29 13H32C32.2833 13 32.5207 13.0957 32.712 13.287C32.904 13.479 33 13.7167 33 14V17C33 17.2833 32.904 17.521 32.712 17.713C32.5207 17.9043 32.2833 18 32 18ZM28.5 28.5H30V30H28.5V28.5ZM28.5 25.5H30V27H28.5V25.5ZM27 27H28.5V28.5H27V27ZM25.5 28.5H27V30H25.5V28.5ZM24 27H25.5V28.5H24V27ZM27 24H28.5V25.5H27V24ZM25.5 25.5H27V27H25.5V25.5ZM24 24H25.5V25.5H24V24ZM30 16V22H24V16H30ZM22 24V30H16V24H22ZM22 16V22H16V16H22ZM20.5 28.5V25.5H17.5V28.5H20.5ZM20.5 20.5V17.5H17.5V20.5H20.5ZM28.5 20.5V17.5H25.5V20.5H28.5Z" fill="#B3B3B3"/>
<rect x="1" y="0.5" width="44" height="44" rx="22" stroke="#B3B3B3"/>
</svg>
