<svg width="24" height="24" viewBox="0 0 24 24" fill="none" xmlns="http://www.w3.org/2000/svg">
<path d="M6.76372 20C6.45116 20 6.16093 19.9256 5.90047 19.7767C5.32744 19.4419 5 18.7647 5 17.9237V7.4307C5 5.54047 6.54047 4 8.4307 4H15.6121C17.5023 4 19.0428 5.54047 19.0428 7.4307V17.9163C19.0428 18.7572 18.7153 19.4344 18.1423 19.7693C17.5693 20.1042 16.8177 20.067 16.0809 19.6577L12.4493 17.6409C12.2335 17.5219 11.8093 17.5219 11.5935 17.6409L7.96186 19.6577C7.56 19.8809 7.1507 20 6.76372 20ZM8.43814 5.11628C7.16558 5.11628 6.12372 6.15814 6.12372 7.4307V17.9163C6.12372 18.3553 6.25023 18.6828 6.47349 18.8093C6.69674 18.9358 7.04651 18.8986 7.42605 18.6828L11.0577 16.666C11.6084 16.3609 12.4419 16.3609 12.9926 16.666L16.6242 18.6828C17.0037 18.8986 17.3535 18.9433 17.5767 18.8093C17.8 18.6753 17.9265 18.3479 17.9265 17.9163V7.4307C17.9265 6.15814 16.8847 5.11628 15.6121 5.11628H8.43814Z" fill="#CCCCCC"/>
</svg>
