<svg width="24" height="24" viewBox="0 0 24 24" fill="none" xmlns="http://www.w3.org/2000/svg">
<path d="M3.62791 10.1163C3.28465 10.1163 3 9.83163 3 9.48837V7.39535C3 4.96744 4.97581 3 7.39535 3H9.48837C9.83163 3 10.1163 3.28465 10.1163 3.62791C10.1163 3.97116 9.83163 4.25581 9.48837 4.25581H7.39535C5.66233 4.25581 4.25581 5.66233 4.25581 7.39535V9.48837C4.25581 9.83163 3.97116 10.1163 3.62791 10.1163Z" fill="#CCCCCC"/>
<path d="M20.3726 10.1163C20.0294 10.1163 19.7447 9.83163 19.7447 9.48837V7.39535C19.7447 5.66233 18.3382 4.25581 16.6052 4.25581H14.5122C14.1689 4.25581 13.8843 3.97116 13.8843 3.62791C13.8843 3.28465 14.1689 3 14.5122 3H16.6052C19.0247 3 21.0006 4.96744 21.0006 7.39535V9.48837C21.0006 9.83163 20.7159 10.1163 20.3726 10.1163Z" fill="#CCCCCC"/>
<path d="M16.6049 21.0003H15.3491C15.0058 21.0003 14.7212 20.7156 14.7212 20.3724C14.7212 20.0291 15.0058 19.7444 15.3491 19.7444H16.6049C18.3379 19.7444 19.7444 18.3379 19.7444 16.6049V15.3491C19.7444 15.0058 20.0291 14.7212 20.3724 14.7212C20.7156 14.7212 21.0003 15.0058 21.0003 15.3491V16.6049C21.0003 19.0328 19.0244 21.0003 16.6049 21.0003Z" fill="#CCCCCC"/>
<path d="M9.48837 21.0006H7.39535C4.97581 21.0006 3 19.0331 3 16.6052V14.5122C3 14.1689 3.28465 13.8843 3.62791 13.8843C3.97116 13.8843 4.25581 14.1689 4.25581 14.5122V16.6052C4.25581 18.3382 5.66233 19.7447 7.39535 19.7447H9.48837C9.83163 19.7447 10.1163 20.0294 10.1163 20.3726C10.1163 20.7159 9.83163 21.0006 9.48837 21.0006Z" fill="#CCCCCC"/>
<path d="M13.6742 17.2322H10.3253C8.29928 17.2322 7.18579 16.1187 7.18579 14.0927V9.90662C7.18579 7.88058 8.29928 6.76709 10.3253 6.76709H13.6742C15.7002 6.76709 16.8137 7.88058 16.8137 9.90662V14.0927C16.8137 16.1187 15.7002 17.2322 13.6742 17.2322ZM10.3253 8.0229C9.00254 8.0229 8.4416 8.58383 8.4416 9.90662V14.0927C8.4416 15.4155 9.00254 15.9764 10.3253 15.9764H13.6742C14.997 15.9764 15.5579 15.4155 15.5579 14.0927V9.90662C15.5579 8.58383 14.997 8.0229 13.6742 8.0229H10.3253Z" fill="#CCCCCC"/>
<path d="M17.8603 12.6274H6.13938C5.79613 12.6274 5.51147 12.3427 5.51147 11.9995C5.51147 11.6562 5.79613 11.3716 6.13938 11.3716H17.8603C18.2036 11.3716 18.4882 11.6562 18.4882 11.9995C18.4882 12.3427 18.2036 12.6274 17.8603 12.6274Z" fill="#CCCCCC"/>
</svg>
