<svg width="46" height="45" viewBox="0 0 46 45" fill="none" xmlns="http://www.w3.org/2000/svg">
<path d="M28.5418 25.276C28.0241 25.2786 27.5136 25.3974 27.0479 25.6236C26.5822 25.8499 26.1733 26.1778 25.8513 26.5832L20.7954 23.4224C20.9797 22.8277 20.9797 22.1911 20.7954 21.5964L25.8513 18.4356C26.3645 19.0711 27.086 19.5044 27.888 19.6587C28.69 19.8131 29.5208 19.6787 30.2332 19.2792C30.9456 18.8797 31.4936 18.2409 31.7801 17.4761C32.0667 16.7112 32.0732 15.8697 31.7987 15.1004C31.5241 14.3312 30.9862 13.684 30.2801 13.2734C29.5741 12.8628 28.7455 12.7154 27.9411 12.8572C27.1368 12.9991 26.4086 13.4211 25.8856 14.0484C25.3626 14.6757 25.0785 15.4679 25.0836 16.2846C25.0869 16.5939 25.1334 16.9012 25.2219 17.1976L20.166 20.3584C19.7197 19.7965 19.1096 19.3874 18.4203 19.1877C17.731 18.9881 16.9967 19.0078 16.3191 19.2442C15.6416 19.4805 15.0543 19.9218 14.6388 20.5069C14.2232 21.092 14 21.7918 14 22.5094C14 23.227 14.2232 23.9269 14.6388 24.5119C15.0543 25.097 15.6416 25.5383 16.3191 25.7746C16.9967 26.011 17.731 26.0307 18.4203 25.8311C19.1096 25.6314 19.7197 25.2223 20.166 24.6604L25.2219 27.8212C25.1334 28.1176 25.0869 28.4249 25.0836 28.7342C25.0836 29.4181 25.2864 30.0867 25.6664 30.6554C26.0464 31.2241 26.5865 31.6674 27.2184 31.9291C27.8503 32.1909 28.5456 32.2594 29.2165 32.1259C29.8873 31.9925 30.5035 31.6631 30.9871 31.1795C31.4708 30.6958 31.8001 30.0797 31.9335 29.4088C32.067 28.738 31.9985 28.0427 31.7368 27.4108C31.475 26.7789 31.0318 26.2388 30.4631 25.8588C29.8944 25.4788 29.2258 25.276 28.5418 25.276ZM28.5418 14.2097C28.9522 14.2097 29.3533 14.3314 29.6946 14.5594C30.0358 14.7874 30.3017 15.1115 30.4588 15.4906C30.6158 15.8697 30.6569 16.2869 30.5768 16.6894C30.4968 17.0919 30.2992 17.4617 30.009 17.7518C29.7188 18.042 29.3491 18.2396 28.9466 18.3197C28.5441 18.3998 28.1269 18.3587 27.7478 18.2016C27.3686 18.0446 27.0446 17.7786 26.8166 17.4374C26.5886 17.0962 26.4669 16.695 26.4669 16.2846C26.4669 15.7343 26.6855 15.2066 27.0746 14.8175C27.4637 14.4283 27.9915 14.2097 28.5418 14.2097ZM17.4756 24.5843C17.0652 24.5843 16.664 24.4626 16.3228 24.2346C15.9816 24.0066 15.7156 23.6826 15.5586 23.3034C15.4015 22.9243 15.3604 22.5071 15.4405 22.1046C15.5206 21.7021 15.7182 21.3324 16.0084 21.0422C16.2985 20.752 16.6683 20.5544 17.0708 20.4744C17.4733 20.3943 17.8904 20.4354 18.2696 20.5924C18.6487 20.7495 18.9728 21.0154 19.2008 21.3566C19.4288 21.6979 19.5505 22.099 19.5505 22.5094C19.5505 23.0597 19.3319 23.5875 18.9427 23.9766C18.5536 24.3657 18.0259 24.5843 17.4756 24.5843ZM28.5418 30.8091C28.1314 30.8091 27.7303 30.6874 27.389 30.4594C27.0478 30.2314 26.7819 29.9073 26.6248 29.5282C26.4678 29.1491 26.4267 28.7319 26.5067 28.3294C26.5868 27.9269 26.7844 27.5572 27.0746 27.267C27.3648 26.9768 27.7345 26.7792 28.137 26.6991C28.5395 26.6191 28.9567 26.6601 29.3358 26.8172C29.715 26.9742 30.039 27.2402 30.267 27.5814C30.495 27.9226 30.6167 28.3238 30.6167 28.7342C30.6167 29.2845 30.3981 29.8122 30.009 30.2014C29.6199 30.5905 29.0921 30.8091 28.5418 30.8091Z" fill="#B3B3B3"/>
<rect x="1" y="0.5" width="44" height="44" rx="22" stroke="#B3B3B3"/>
</svg>
