<svg width="148" height="100" viewBox="0 0 148 100" fill="none" xmlns="http://www.w3.org/2000/svg">
<g clip-path="url(#clip0_439_2142)">
<path d="M133.273 48.5601C129.426 51.0616 125.831 53.4161 122.215 55.7284C121.438 56.2119 121.311 56.5903 121.774 57.4522C122.552 58.9237 123.245 60.4583 123.981 62.0139L124.465 63.065C124.549 63.2542 124.654 63.4644 124.738 63.6536L125.39 65.02C128.648 63.4644 131.927 61.9088 135.207 60.3532C136.447 59.7646 137.687 59.155 139.117 58.4823C137.141 55.1188 135.228 51.8815 133.273 48.5601Z" fill="#0E5BB6"/>
<path d="M100.252 0.126104C103.763 -0.31535 107.904 1.97601 109.502 5.06619C110.448 6.87405 110.931 8.82907 110.952 10.8261C110.994 17.9945 114.904 22.346 120.959 25.4152C124.322 27.1179 127.37 26.9077 130.46 24.9527C131.932 24.0277 133.488 23.1869 134.833 22.0937C136.325 20.8745 136.557 19.1297 136.073 17.3008C135.485 15.0725 134.16 13.2646 132.689 11.5619C131.869 10.6159 130.986 9.733 129.893 8.57681C132.899 10.2375 135.716 11.6249 137.881 13.9584C140.172 16.4389 140.32 19.3609 139.353 22.4091C138.659 24.5743 137.881 26.6975 138.049 29.0519C138.301 32.4784 139.857 35.3374 141.749 38.0702C143.431 40.4877 145.155 42.8631 146.773 45.3016C147.824 46.8783 147.761 48.6651 147.173 50.3679C146.248 53.0586 144.482 55.1608 142.296 57.1158C141.791 56.1698 141.35 55.2659 140.887 54.383C135.758 44.5238 128.61 36.4725 119.382 30.2712C112.718 25.7935 105.424 22.7034 97.5615 21.0637C91.4232 19.7813 85.2218 19.487 78.9573 20.0967C72.9872 20.6643 67.2062 21.9466 61.6775 24.2379C59.3441 25.2049 57.0948 26.3821 54.7824 27.4332C54.404 27.6014 50.9985 29.6825 50.6201 29.9348C45.7852 33.067 41.5808 36.893 37.86 41.2445C35.8629 43.5989 34.2863 46.3107 32.4995 48.8543C30.7547 51.3348 29.7036 54.1728 28.5684 56.9687C28.2531 57.7465 27.8537 58.0618 27.0128 57.9777C22.1358 57.5362 17.7002 55.8545 13.622 53.1637C11.4568 51.7343 9.27055 50.3468 7.31553 48.6861C4.45659 46.2476 1.72378 43.5779 0.50452 39.815C0.189195 38.827 0.147152 37.7549 0 36.7038C0.105108 36.6617 0.231238 36.6197 0.336346 36.5987C0.525541 36.8299 0.75678 37.0191 0.903931 37.2714C2.48056 39.836 4.66681 41.728 7.27349 43.1784C8.30355 43.7671 9.16544 44.692 10.2375 45.0704C14.6521 46.668 18.9405 49.0645 23.9226 48.0344C27.5173 47.2777 29.9138 44.5659 29.5775 41.1183C29.4303 39.6468 28.5474 38.7219 27.4122 37.8389C25.8777 36.6617 24.4692 35.3163 23.0608 33.992C22.8295 33.7818 22.6824 33.067 22.8085 32.9409C23.292 32.4574 24.0908 31.6796 24.4902 31.8268C29.7036 33.5716 34.7067 32.5835 39.7099 30.9228C44.4608 29.3462 48.8333 27.0548 52.7643 23.9016C54.5091 22.4931 54.5932 21.6523 53.1427 19.9916C50.5991 17.0906 46.9834 16.4179 43.3256 18.2468C41.3286 19.2558 39.2054 19.6342 37.0191 19.5081C34.3494 19.3819 31.6586 19.2138 29.0309 18.7723C26.3612 18.3098 23.7334 17.49 21.1057 16.7963C20.4961 16.6281 19.9075 16.3128 19.3399 15.8923C19.4871 15.8713 19.6552 15.8293 19.8024 15.8293C22.8085 16.2287 25.5623 15.4299 28.2321 14.1896C30.9439 12.9283 33.6136 11.5829 36.3464 10.3636C39.9832 8.72396 43.7461 7.92514 47.7822 8.38761C49.6742 8.59783 51.6082 8.85009 53.5001 8.15638C55.0767 7.56777 55.5812 6.49567 54.5512 5.1713C53.353 3.6157 51.8604 2.24929 50.515 0.819819C50.3258 0.630624 50.0946 0.462451 49.9685 0.0209961C51.1877 0.189169 52.407 0.294278 53.6262 0.525516C56.4642 1.07208 59.218 1.8709 61.5094 3.74183C62.4764 4.54065 63.3803 5.42356 64.3263 6.26443C66.7017 8.38761 69.6237 9.16541 72.6719 9.16541C76.6449 9.14439 80.6391 8.93418 84.6122 8.55579C88.7744 8.15638 92.9157 7.58879 97.057 8.30353C99.012 8.63987 100.904 9.2495 102.985 9.79606C103.679 6.24341 102.838 3.02709 100.252 0.126104Z" fill="url(#paint0_linear_439_2142)"/>
<path d="M132.373 47.6141C128.421 50.3049 124.616 52.8905 120.769 55.5182C117.49 50.3259 113.58 45.7852 108.85 41.9803C110.153 40.0673 111.436 38.1333 112.739 36.2203C113.286 35.4215 113.832 34.6227 114.379 33.8029C115.283 32.4364 115.598 32.3944 116.943 33.1932C122.43 36.5357 127.013 40.9082 131.07 45.8483C131.511 46.3948 131.89 46.9624 132.373 47.6141Z" fill="#0E5BB6"/>
<path d="M93.3781 23.8386C100.883 25.163 107.841 27.5174 114.358 31.5536C112.235 34.8329 110.132 38.0493 108.114 41.1605C105.381 39.6469 102.754 38.0493 100 36.7249C97.2251 35.4216 94.3241 34.4125 91.4021 33.2353C92.0327 30.2082 92.7054 27.0339 93.3781 23.8386Z" fill="white" fill-opacity="0.2"/>
<path d="M92.2009 23.6914C91.6123 26.8657 91.0237 29.9349 90.414 33.1932C84.2127 31.7007 78.0113 31.4064 71.5997 32.1842C71.1162 29.7036 70.6537 27.2441 70.1492 24.6795C77.4647 22.9977 84.7172 22.5563 92.2009 23.6914Z" fill="white" fill-opacity="0.2"/>
<path d="M49.4219 34.1812C50.6411 33.4455 51.6922 32.7938 52.7643 32.1631C53.9626 31.4484 55.1187 30.6496 56.38 30.061C59.0708 28.7787 61.7826 27.5384 64.5364 26.3612C65.7557 25.8356 67.059 25.5623 68.3414 25.184C68.8459 25.0158 69.0981 25.1209 69.2243 25.7095C69.6447 27.8747 70.1282 30.0189 70.6117 32.3313C64.1791 33.4034 58.1669 35.5266 52.5121 38.827C51.482 37.2714 50.494 35.8209 49.4219 34.1812Z" fill="white" fill-opacity="0.2"/>
<path d="M2.66968 98.9909C44.8181 98.6546 86.9455 98.3183 129.115 98.0029C128.505 99.4534 127.706 100.021 126.298 100C121.358 99.9579 116.439 99.8739 111.499 99.8318C100.042 99.7687 88.6062 99.7267 77.1494 99.6636C70.6957 99.6216 64.2631 99.5795 57.8095 99.5165C54.3619 99.4744 50.9144 99.3063 47.4458 99.2852C40.2774 99.2432 33.109 99.2432 25.9196 99.2432C18.1837 99.2432 10.4477 99.2432 2.71172 99.2432C2.73274 99.1591 2.71172 99.075 2.66968 98.9909Z" fill="white" fill-opacity="0.2"/>
<path d="M133.656 88.1858C131.469 85.6001 129.367 83.1406 127.118 80.4708C129.577 80.4708 131.827 80.4498 134.076 80.4919C134.328 80.4919 134.602 80.8072 134.791 81.0384C136.641 83.1826 138.449 85.3479 140.32 87.4921C140.782 88.0176 140.782 88.354 140.298 88.9005C138.449 91.0027 136.662 93.1469 134.833 95.2701C134.602 95.5434 134.244 95.8797 133.95 95.8797C131.764 95.9428 129.577 95.9007 127.118 95.9007C129.367 93.231 131.469 90.7504 133.656 88.1858Z" fill="white" fill-opacity="0.2"/>
<path d="M104.183 80.4708C106.559 80.4708 108.745 80.4498 110.931 80.4919C111.226 80.4919 111.562 80.7862 111.772 81.0174C113.664 83.2036 115.514 85.4319 117.427 87.6392C117.805 88.0807 117.784 88.354 117.406 88.7744C115.514 90.9606 113.664 93.1889 111.751 95.3752C111.52 95.6485 111.057 95.8797 110.7 95.8797C108.598 95.9217 106.517 95.9007 104.162 95.9007C104.688 95.228 105.108 94.7025 105.529 94.198C107.042 92.4111 108.556 90.6243 110.111 88.8795C110.595 88.3329 110.532 87.9756 110.09 87.471C108.325 85.453 106.58 83.3928 104.835 81.3537C104.667 81.1435 104.499 80.8702 104.183 80.4708Z" fill="white" fill-opacity="0.2"/>
<path d="M115.64 80.4918C118.058 80.4918 120.223 80.4708 122.388 80.5128C122.64 80.5128 122.935 80.681 123.103 80.8702C125.184 83.2877 127.223 85.7052 129.367 88.2068C127.959 89.8675 126.424 91.381 125.247 93.1258C123.691 95.4382 121.736 96.3842 119.004 95.9427C117.995 95.7746 116.943 95.9217 115.703 95.9217C117.932 93.315 120.055 90.8345 122.241 88.2909C120.055 85.6842 117.931 83.1826 115.64 80.4918Z" fill="#0E5BB6"/>
<path d="M36.9982 52.5331C36.0312 51.8604 35.1903 51.2928 34.2864 50.6832C38.1123 44.5659 42.7791 39.3105 48.5601 34.938C49.5691 36.4095 50.5571 37.839 51.5872 39.3315C45.9324 42.8842 41.0343 47.1726 36.9982 52.5331Z" fill="white" fill-opacity="0.2"/>
<path d="M69.918 79.6089C68.951 80.9963 68.0261 81.669 66.3654 81.627C57.1579 81.3747 47.9504 81.2906 38.7429 81.1224C31.2592 80.9963 23.7545 80.8281 16.2708 80.5969C34.0761 80.2816 51.9235 79.9452 69.918 79.6089Z" fill="white" fill-opacity="0.2"/>
<path d="M27.7276 71.4525C27.3282 71.3685 27.0339 71.3264 26.6765 71.2423C27.7486 64.2211 30.1451 57.7674 33.7188 51.6501C34.6227 52.2388 35.4846 52.7853 36.3675 53.3529C32.3944 58.8606 29.5144 64.8307 27.7276 71.4525Z" fill="white" fill-opacity="0.2"/>
<path d="M79.5249 73.7649C78.9784 73.9541 78.4528 74.3325 77.9063 74.3325C71.0532 74.2905 64.1791 74.1854 57.3261 74.1223C49.485 74.0592 41.6439 74.0172 33.8028 73.9751C33.4245 73.9751 33.0671 73.891 32.7097 73.7859C48.2657 73.6388 63.8218 73.4916 79.3778 73.3445C79.4408 73.4916 79.4829 73.6178 79.5249 73.7649Z" fill="#1A1A1A"/>
<path d="M100.294 94.8286C99.979 95.7746 99.3273 95.6485 98.7597 95.6485C93.7565 95.6274 88.7534 95.5854 83.7292 95.5433C74.4797 95.4803 65.2302 95.4172 56.0017 95.3752C53.6052 95.3542 51.2087 95.3752 48.8123 95.165C65.9239 95.0388 83.0565 94.9337 100.294 94.8286Z" fill="white" fill-opacity="0.2"/>
<path d="M71.4105 91.4863C81.9003 91.4863 92.3901 91.4863 102.901 91.4863C102.754 92.159 102.228 92.159 101.64 92.159C96.6364 92.096 91.6333 92.0749 86.6301 92.0119C81.8792 91.9488 77.1073 91.8647 72.3564 91.7806C72.0411 91.7806 71.7258 91.7386 71.4105 91.7386C71.3894 91.6335 71.4105 91.5494 71.4105 91.4863Z" fill="white" fill-opacity="0.2"/>
<path d="M86.2518 83.7923C85.9995 85.9785 84.1496 87.6603 81.8793 88.0176C79.5248 88.396 77.0863 87.1137 76.0773 84.9485C75.0052 82.6571 75.5728 79.9453 77.4227 78.3477C79.1885 76.8341 81.8582 76.5608 83.603 77.8852C83.2667 77.8431 82.9093 77.8431 82.573 77.738C79.9663 76.8972 77.3596 78.2005 76.3085 80.8492C75.4046 83.1406 76.6028 85.9575 78.9993 87.0927C81.2906 88.1858 84.1496 87.2398 85.4319 84.9695C85.6211 84.6752 85.8734 84.3599 86.2518 83.7923Z" fill="white"/>
<path d="M133.34 79.0415C125.857 79.0415 118.394 79.0415 110.91 79.0415C110.91 78.9784 110.91 78.9364 110.91 78.8733C118.394 78.8733 125.857 78.8733 133.34 78.8733C133.34 78.9364 133.34 78.9994 133.34 79.0415Z" fill="white" fill-opacity="0.2"/>
<path d="M19.9916 29.178C21.7364 30.187 23.5023 31.1961 25.2471 32.2051C23.3341 34.4544 23.3131 34.4544 21.5683 32.2471C20.8535 31.3432 20.2649 30.3762 19.6343 29.4302C19.7394 29.3462 19.8655 29.2621 19.9916 29.178Z" fill="#309AF1"/>
<path d="M134.728 77.2756C130.65 77.2756 126.55 77.2756 122.472 77.2756C122.472 77.2126 122.472 77.1495 122.472 77.0864C126.571 77.0864 130.65 77.0864 134.749 77.0864C134.749 77.1495 134.728 77.2126 134.728 77.2756Z" fill="white" fill-opacity="0.2"/>
<path d="M68.1731 77.0653C65.0198 77.0653 61.8666 77.0653 58.7344 77.0653C58.7344 77.0233 58.7344 76.9813 58.7344 76.9392C61.8876 76.9392 65.0409 76.9392 68.1731 76.9392C68.1521 76.9813 68.1731 77.0233 68.1731 77.0653Z" fill="#1A1A1A"/>
<path d="M51.0826 84.9485C46.8993 84.9485 42.737 84.9485 38.5537 84.9485C38.5537 84.8854 38.5537 84.8223 38.5537 84.7593C42.737 84.7593 46.8993 84.7593 51.0826 84.7593C51.0826 84.8223 51.0826 84.8854 51.0826 84.9485Z" fill="white" fill-opacity="0.2"/>
<path d="M81.0174 84.0026C80.1975 83.9816 79.5879 83.3509 79.5879 82.5311C79.5879 81.7323 80.3447 80.9965 81.1435 81.0175C81.9003 81.0386 82.594 81.7743 82.573 82.5311C82.573 83.414 81.9003 84.0236 81.0174 84.0026Z" fill="#0E5BB6"/>
<path d="M138.974 57.3051C136.641 52.0497 133.53 47.1306 129.788 42.7581C126.046 38.3856 121.652 34.5386 116.817 31.4064C111.982 28.2742 106.664 25.8357 101.114 24.217C95.5644 22.5983 89.7624 21.7995 83.9604 21.8416C78.1585 21.8626 72.3565 22.7245 66.8068 24.4272C61.236 26.1089 55.9386 28.6315 51.0826 31.8479C46.2266 35.0642 41.833 38.9952 38.0912 43.4728C34.3493 47.9504 31.2592 52.9746 28.9468 58.3562C31.1751 52.9536 34.2022 47.8664 37.902 43.3047C41.6018 38.743 45.9533 34.7278 50.7883 31.4064C55.6233 28.085 60.9628 25.4573 66.5755 23.6704C72.1883 21.8626 78.0534 20.8956 83.9604 20.7905C89.8675 20.6643 95.7746 21.4001 101.492 22.9557C107.189 24.5323 112.676 26.9288 117.7 30.082C122.724 33.2353 127.286 37.1033 131.217 41.5599C135.148 46.0165 138.428 51.0406 140.929 56.4432L138.974 57.3051Z" fill="#0E5BB6"/>
<path d="M124.684 63.5484C124.179 63.7376 123.885 63.8638 123.57 63.9689C120.585 65.041 117.578 66.1341 114.593 67.2062C104.44 70.864 94.2654 74.5217 84.091 78.1375C83.6285 78.3056 82.9978 78.2636 82.5143 78.1164C80.202 77.4648 77.6794 78.5999 76.8385 80.7441C75.9556 83.0355 76.9646 85.6632 79.0878 86.6302C81.4632 87.7023 83.9858 86.8194 85.1841 84.5701C85.4153 84.1286 85.8358 83.6662 86.2982 83.4349C91.7218 80.8282 97.1664 78.2636 102.59 75.6989C113.458 70.5486 124.326 65.4194 135.195 60.2691C136.288 59.7435 137.381 59.218 138.579 58.6504L124.684 63.5484ZM81.1269 84.9905C79.6764 85.0115 78.6253 83.9605 78.6043 82.4889C78.6043 81.1436 79.7185 80.0084 81.0428 79.9663C82.4092 79.9453 83.5654 81.1015 83.5654 82.51C83.5444 83.9184 82.5143 84.9695 81.1269 84.9905Z" fill="white"/>
<path d="M43.9611 67.1344C44.1124 66.2599 44.4361 65.4821 44.9323 64.801C45.4284 64.1115 46.0506 63.5775 46.799 63.1991C47.5473 62.8123 48.3672 62.6189 49.2585 62.6189C50.3769 62.6189 51.2514 62.888 51.882 63.4261C52.5211 63.9643 52.849 64.7001 52.8658 65.6334H50.2045C50.112 65.398 49.9522 65.2172 49.7252 65.0911C49.4982 64.9649 49.2123 64.9019 48.8675 64.9019C48.2537 64.9019 47.7281 65.1037 47.2909 65.5073C46.862 65.9109 46.5888 66.4533 46.471 67.1344C46.429 67.3866 46.408 67.5968 46.408 67.765C46.408 68.3284 46.5677 68.7572 46.8873 69.0515C47.2068 69.3374 47.6777 69.4804 48.2999 69.4804C49.166 69.4804 49.8555 69.0894 50.3685 68.3074H47.8837L48.199 66.5289H52.8154L52.3865 68.9254C51.9493 69.6738 51.3228 70.317 50.5072 70.8552C49.6916 71.3934 48.7498 71.6624 47.6819 71.6624C46.8915 71.6624 46.2104 71.5153 45.6386 71.221C45.0668 70.9183 44.6295 70.4978 44.3268 69.9597C44.0241 69.4215 43.8728 68.7993 43.8728 68.093C43.8728 67.7566 43.9022 67.4371 43.9611 67.1344ZM57.1269 71.6877C56.3786 71.6877 55.7185 71.5321 55.1467 71.221C54.5749 70.9099 54.1335 70.4726 53.8223 69.9092C53.5112 69.3458 53.3557 68.6984 53.3557 67.9668C53.3557 66.9157 53.5743 65.9824 54.0115 65.1667C54.4572 64.3427 55.0752 63.7036 55.8656 63.2496C56.6645 62.7955 57.5768 62.5685 58.6027 62.5685C59.3679 62.5685 60.0363 62.724 60.6081 63.0351C61.1883 63.3379 61.634 63.7709 61.9451 64.3343C62.2562 64.8893 62.4118 65.5325 62.4118 66.2641C62.4118 67.3067 62.189 68.2401 61.7433 69.0642C61.2976 69.8882 60.6754 70.5315 59.8766 70.9939C59.0778 71.4564 58.1612 71.6877 57.1269 71.6877ZM57.5053 69.3921C58.0014 69.3921 58.4345 69.2618 58.8045 69.0011C59.1829 68.7404 59.4688 68.3957 59.6622 67.9668C59.864 67.5296 59.9649 67.0587 59.9649 66.5542C59.9649 66.016 59.8177 65.5998 59.5234 65.3055C59.2375 65.0028 58.8255 64.8514 58.2873 64.8514C57.7912 64.8514 57.354 64.9817 56.9756 65.2424C56.5972 65.4947 56.3071 65.8352 56.1053 66.2641C55.9035 66.6929 55.8026 67.1638 55.8026 67.6767C55.8026 68.2065 55.9497 68.6269 56.244 68.938C56.5383 69.2407 56.9588 69.3921 57.5053 69.3921ZM65.3898 69.72H68.1521L67.8115 71.5994H62.5645L64.1411 62.7072H66.6133L65.3898 69.72ZM73.6666 62.7072C74.4823 62.7072 75.1886 62.8544 75.7856 63.1487C76.3826 63.4346 76.8367 63.8424 77.1478 64.3721C77.4589 64.9019 77.6145 65.5199 77.6145 66.2262C77.6145 66.5458 77.5851 66.8527 77.5262 67.147C77.3748 68.0047 77.0469 68.7699 76.5424 69.4425C76.0463 70.1152 75.4114 70.645 74.6378 71.0318C73.8726 71.4102 73.0234 71.5994 72.09 71.5994H68.571L70.1476 62.7072H73.6666ZM72.2918 69.4299C73.0149 69.4299 73.6162 69.2323 74.0955 68.8371C74.5748 68.4335 74.8817 67.8701 75.0162 67.147C75.0498 66.9788 75.0667 66.798 75.0667 66.6046C75.0667 66.0412 74.8943 65.6082 74.5495 65.3055C74.2048 65.0028 73.7213 64.8514 73.099 64.8514H72.254L71.4341 69.4299H72.2918Z" fill="white"/>
</g>
<defs>
<linearGradient id="paint0_linear_439_2142" x1="17.9735" y1="34.1601" x2="145.68" y2="54.1307" gradientUnits="userSpaceOnUse">
<stop stop-color="#309AF1"/>
<stop offset="0.255208" stop-color="#66BEF9"/>
<stop offset="0.442708" stop-color="#B7E8EB"/>
<stop offset="0.671875" stop-color="#9CDEEB"/>
<stop offset="0.822917" stop-color="#1165C1"/>
<stop offset="1" stop-color="#043F98"/>
</linearGradient>
<clipPath id="clip0_439_2142">
<rect width="147.614" height="100" fill="white"/>
</clipPath>
</defs>
</svg>
